<?xml version="1.0" encoding="UTF-8" standalone="no"?>
<!DOCTYPE svg PUBLIC "-//W3C//DTD SVG 1.1//EN" "http://www.w3.org/Graphics/SVG/1.1/DTD/svg11.dtd">
<svg width="100%" height="100%" viewBox="0 0 2845 809" version="1.1" xmlns="http://www.w3.org/2000/svg" xmlns:xlink="http://www.w3.org/1999/xlink" xml:space="preserve" xmlns:serif="http://www.serif.com/" style="fill-rule:evenodd;clip-rule:evenodd;stroke-linejoin:round;stroke-miterlimit:2;">
    <g transform="matrix(1,0,0,1,-228.3,-548.54)">
        <g transform="matrix(4.16667,0,0,4.16667,0,0)">
            <g transform="matrix(1,0,0,1,-24,27.9736)">
                <g transform="matrix(1,0,0,1,419.926,200.861)">
                    <path d="M0,38.162C3.571,49.181 12.55,54.894 24.794,54.894C36.731,54.894 45.914,48.671 49.281,37.855C50.403,34.387 50.913,28.367 50.913,22.653L50.913,16.633C50.913,16.02 50.505,15.613 49.893,15.613L26.936,15.613C26.324,15.613 25.916,16.02 25.916,16.633L25.916,24.796C25.916,25.408 26.324,25.815 26.936,25.815L38.364,25.815C38.772,25.815 38.976,26.019 38.976,26.428C38.976,30.408 38.568,33.265 37.854,35.407C36.017,41.018 30.813,44.08 24.691,44.08C17.651,44.08 13.57,40.61 11.632,34.999C10.815,32.448 10.407,28.877 10.407,19.082C10.407,9.184 10.815,5.716 11.632,3.165C13.57,-2.446 17.651,-5.915 24.691,-5.915C31.426,-5.915 35.609,-2.855 38.67,2.655C38.874,3.062 39.384,3.369 39.996,3.165L48.567,-0.61C49.077,-0.916 49.179,-1.528 48.975,-2.038C46.118,-9.793 37.751,-16.732 24.794,-16.732C12.55,-16.732 3.571,-11.018 0,0.002C-1.428,4.288 -1.837,8.165 -1.837,19.082C-1.837,30 -1.428,33.877 0,38.162M53.363,52.752C53.159,53.365 53.363,53.772 54.078,53.772L63.975,53.772C64.689,53.772 65.097,53.467 65.301,52.752L69.892,39.284L96.012,39.284L100.604,52.752C100.808,53.467 101.216,53.772 101.93,53.772L111.929,53.772C112.643,53.772 112.847,53.365 112.643,52.752L89.176,-14.588C88.972,-15.2 88.564,-15.609 87.85,-15.609L78.463,-15.609C77.749,-15.609 77.341,-15.2 77.137,-14.588L53.363,52.752ZM73.566,28.571L82.85,1.635L83.156,1.635L92.339,28.571L73.566,28.571ZM141.416,54.894C158.658,54.894 167.536,45.712 167.536,33.367C167.536,21.429 160.189,15.102 146.823,13.266L143.15,12.756C133.763,11.43 130.396,8.165 130.396,3.369C130.396,-2.038 134.273,-5.915 141.313,-5.915C147.129,-5.915 152.333,-4.181 157.944,-0.508C158.455,-0.202 158.964,-0.304 159.373,-0.815L164.27,-8.364C164.678,-8.977 164.577,-9.384 164.066,-9.793C158.556,-13.977 150.292,-16.732 141.62,-16.732C127.335,-16.732 118.152,-8.364 118.152,4.185C118.152,15.715 125.703,22.142 139.068,23.979L142.742,24.49C152.333,25.815 155.393,29.081 155.393,34.081C155.393,39.896 150.598,44.08 142.333,44.08C134.58,44.08 127.947,40.305 123.458,36.733C123.049,36.325 122.437,36.325 122.029,36.836L115.704,44.182C115.295,44.691 115.5,45.304 115.907,45.712C121.315,50.813 131.212,54.894 141.416,54.894M202.327,53.772C202.939,53.772 203.347,53.365 203.347,52.752L203.347,-4.181C203.347,-4.589 203.551,-4.793 203.959,-4.793L222.122,-4.793C222.733,-4.793 223.141,-5.201 223.141,-5.814L223.141,-14.588C223.141,-15.2 222.733,-15.609 222.122,-15.609L172.533,-15.609C171.921,-15.609 171.513,-15.2 171.513,-14.588L171.513,-5.814C171.513,-5.201 171.921,-4.793 172.533,-4.793L190.695,-4.793C191.103,-4.793 191.307,-4.589 191.307,-4.181L191.307,52.752C191.307,53.365 191.715,53.772 192.328,53.772L202.327,53.772ZM281.195,53.772C281.91,53.772 282.318,53.161 281.91,52.446L267.319,24.183C275.277,21.225 280.481,14.184 280.481,5.103C280.481,-7.141 271.094,-15.609 258.34,-15.609L231.506,-15.609C230.894,-15.609 230.486,-15.2 230.486,-14.588L230.486,52.752C230.486,53.365 230.894,53.772 231.506,53.772L241.505,53.772C242.117,53.772 242.525,53.365 242.525,52.752L242.525,26.326C242.525,25.918 242.73,25.714 243.138,25.714L255.076,25.714L268.339,52.752C268.645,53.467 269.054,53.772 269.871,53.772L281.195,53.772ZM257.932,14.898L243.138,14.898C242.73,14.898 242.525,14.695 242.525,14.287L242.525,-4.181C242.525,-4.589 242.73,-4.793 243.138,-4.793L257.932,-4.793C264.258,-4.793 268.543,-0.916 268.543,5.103C268.543,11.021 264.258,14.898 257.932,14.898M315.069,54.894C327.109,54.894 336.088,49.181 339.66,38.162C341.087,33.877 341.496,30 341.496,19.082C341.496,8.165 341.087,4.288 339.66,0.002C336.088,-11.018 327.109,-16.732 315.069,-16.732C303.132,-16.732 294.153,-11.018 290.583,0.002C289.153,4.288 288.746,8.165 288.746,19.082C288.746,30 289.153,33.877 290.583,38.162C294.153,49.181 303.132,54.894 315.069,54.894M315.069,44.08C308.233,44.08 304.152,40.61 302.213,34.999C301.397,32.448 300.989,28.877 300.989,19.082C300.989,9.184 301.397,5.716 302.213,3.165C304.152,-2.446 308.233,-5.915 315.069,-5.915C322.007,-5.915 326.089,-2.446 328.027,3.165C328.843,5.716 329.251,9.184 329.251,19.082C329.251,28.877 328.843,32.448 328.027,34.999C326.089,40.61 322.007,44.08 315.069,44.08" style="fill:white;fill-rule:nonzero;"/>
                </g>
                <g transform="matrix(1,0,0,1,307.898,185.151)">
                    <path d="M0,68.461C0,69.073 0.408,69.482 1.02,69.482L39.996,69.482C40.608,69.482 41.016,69.073 41.016,68.461L41.016,60.299C41.016,59.687 40.608,59.278 39.996,59.278L14.284,59.278L14.284,59.074L34.486,34.587C38.568,29.69 41.016,24.588 41.016,18.364C41.016,7.548 33.568,-1.021 20.61,-1.021C7.448,-1.021 0.918,7.446 0,15.609C-0.102,16.222 0.204,16.732 0.816,16.833L9.795,18.67C10.407,18.773 10.815,18.466 10.917,17.855C11.632,12.548 14.794,9.182 20.304,9.182C26.12,9.182 29.487,13.16 29.487,18.364C29.487,22.343 27.752,25.608 24.998,28.976L0.51,59.482C0.102,59.891 0,60.196 0,60.81L0,68.461ZM64.789,69.482C65.401,69.482 65.81,69.073 65.81,68.461L65.81,43.872C65.81,43.463 66.014,43.259 66.422,43.259L80.808,43.259C94.276,43.259 103.663,34.587 103.663,21.629C103.663,8.773 94.276,0.101 80.808,0.101L54.79,0.101C54.178,0.101 53.77,0.508 53.77,1.121L53.77,68.461C53.77,69.073 54.178,69.482 54.79,69.482L64.789,69.482ZM80.094,32.342L66.422,32.342C66.014,32.342 65.81,32.139 65.81,31.731L65.81,11.528C65.81,11.12 66.014,10.916 66.422,10.916L80.094,10.916C87.236,10.916 91.623,15.304 91.623,21.629C91.623,28.058 87.236,32.342 80.094,32.342" style="fill:white;fill-rule:nonzero;"/>
                </g>
                <g transform="matrix(1,0,0,1,307.878,276.348)">
                    <path d="M0,14.658L2.605,14.658L2.605,6.952L4.525,4.733L11.183,14.658L14.272,14.658L6.384,3.024L13.702,-5.552L10.463,-5.552L4.285,2.034C3.775,2.694 3.235,3.413 2.695,4.193L2.605,4.193L2.605,-5.552L0,-5.552L0,14.658ZM31.127,0.146L28.491,0.146L28.491,9.053C28.491,9.533 28.401,10.012 28.251,10.403C27.771,11.573 26.541,12.802 24.77,12.802C22.37,12.802 21.529,10.943 21.529,8.183L21.529,0.146L18.894,0.146L18.894,8.634C18.894,13.73 21.619,14.988 23.9,14.988C26.481,14.988 28.011,13.461 28.701,12.292L28.761,12.292L28.91,14.658L31.246,14.658C31.157,13.518 31.127,12.199 31.127,10.7L31.127,0.146ZM48.401,12.141C47.651,12.471 46.662,12.862 45.162,12.862C42.283,12.862 40.124,10.792 40.124,7.431C40.124,4.402 41.923,1.942 45.252,1.942C46.692,1.942 47.681,2.272 48.311,2.632L48.911,0.595C48.191,0.235 46.812,-0.155 45.252,-0.155C40.513,-0.155 37.458,3.082 37.458,7.552C37.458,11.992 40.304,14.958 44.682,14.958C46.632,14.958 48.161,14.479 48.851,14.12L48.401,12.141ZM54.943,14.658L57.578,14.658L57.578,5.901C57.578,5.39 57.608,5.001 57.758,4.64C58.238,3.202 59.589,2.002 61.299,2.002C63.79,2.002 64.66,3.981 64.66,6.321L64.66,14.658L67.295,14.658L67.295,6.021C67.295,1.013 64.18,-0.184 62.229,-0.184C61.239,-0.184 60.309,0.116 59.529,0.565C58.718,1.013 58.058,1.673 57.638,2.422L57.578,2.422L57.578,-6.632L54.943,-6.632L54.943,14.658ZM72.278,0.146L77.645,13.522C77.764,13.851 77.824,14.062 77.824,14.212C77.824,14.362 77.734,14.572 77.615,14.842C77.015,16.191 76.115,17.211 75.396,17.781C74.616,18.441 73.747,18.86 73.087,19.07L73.747,21.29C74.406,21.17 75.696,20.72 76.985,19.58C78.784,18.021 80.073,15.47 81.962,10.493L85.92,0.146L83.131,0.146L80.253,8.664C79.893,9.713 79.593,10.823 79.324,11.693L79.264,11.693C79.024,10.823 78.664,9.682 78.334,8.723L75.156,0.146L72.278,0.146ZM91.322,14.658L93.957,14.658L93.957,5.93C93.957,5.481 94.017,5.031 94.137,4.701C94.587,3.231 95.937,2.002 97.678,2.002C100.168,2.002 101.039,3.951 101.039,6.291L101.039,14.658L103.674,14.658L103.674,5.991C103.674,1.013 100.558,-0.184 98.548,-0.184C96.147,-0.184 94.467,1.164 93.747,2.542L93.687,2.542L93.538,0.146L91.202,0.146C91.292,1.345 91.322,2.575 91.322,4.074L91.322,14.658ZM122.628,7.88C122.658,7.611 122.718,7.192 122.718,6.653C122.718,3.983 121.46,-0.184 116.722,-0.184C112.491,-0.184 109.916,3.262 109.916,7.64C109.916,12.022 112.581,14.958 117.052,14.958C119.362,14.958 120.951,14.479 121.879,14.059L121.43,12.172C120.442,12.592 119.302,12.922 117.412,12.922C114.771,12.922 112.491,11.452 112.431,7.88L122.628,7.88ZM112.461,5.994C112.671,4.163 113.841,1.702 116.512,1.702C119.482,1.702 120.202,4.313 120.172,5.994L112.461,5.994ZM117.322,-1.837L120.142,-6.122L118.192,-6.122L116.392,-3.276L116.332,-3.276L114.561,-6.122L112.551,-6.122L115.432,-1.837L117.322,-1.837ZM137.327,13.97C138.345,14.569 139.813,14.958 141.403,14.958C144.853,14.958 146.83,13.162 146.83,10.612C146.83,8.452 145.542,7.192 143.024,6.232C141.132,5.512 140.262,4.971 140.262,3.772C140.262,2.692 141.132,1.792 142.693,1.792C144.044,1.792 145.093,2.272 145.662,2.632L146.321,0.714C145.512,0.235 144.224,-0.184 142.753,-0.184C139.633,-0.184 137.746,1.732 137.746,4.072C137.746,5.812 138.974,7.252 141.583,8.181C143.534,8.902 144.284,9.592 144.284,10.851C144.284,12.052 143.384,13.012 141.463,13.012C140.142,13.012 138.765,12.471 137.986,11.962L137.327,13.97ZM162.578,20.595L165.184,20.595L165.184,12.712L165.244,12.712C166.114,14.15 167.794,14.988 169.714,14.988C173.135,14.988 176.31,12.412 176.31,7.192C176.31,2.782 173.675,-0.184 170.165,-0.184C167.794,-0.184 166.084,0.864 165.004,2.632L164.944,2.632L164.824,0.146L162.458,0.146C162.518,1.526 162.578,3.025 162.578,4.885L162.578,20.595ZM165.184,6.263C165.184,5.904 165.274,5.514 165.364,5.184C165.874,3.202 167.554,1.912 169.354,1.912C172.145,1.912 173.675,4.402 173.675,7.312C173.675,10.641 172.055,12.922 169.264,12.922C167.374,12.922 165.784,11.662 165.304,9.832C165.244,9.502 165.184,9.141 165.184,8.752L165.184,6.263ZM182.642,14.658L185.247,14.658L185.247,6.92C185.247,6.47 185.307,6.051 185.367,5.691C185.727,3.711 187.047,2.302 188.906,2.302C189.266,2.302 189.536,2.332 189.806,2.391L189.806,-0.094C189.566,-0.155 189.356,-0.184 189.056,-0.184C187.287,-0.184 185.697,1.044 185.038,2.992L184.918,2.992L184.828,0.146L182.522,0.146C182.612,1.495 182.642,2.965 182.642,4.674L182.642,14.658ZM186.867,-1.837L189.686,-6.122L187.706,-6.122L185.937,-3.276L185.877,-3.276L184.109,-6.122L182.072,-6.122L184.948,-1.837L186.867,-1.837ZM198.203,0.146L195.568,0.146L195.568,14.658L198.203,14.658L198.203,0.146ZM196.885,-5.582C195.927,-5.582 195.238,-4.863 195.238,-3.934C195.238,-3.036 195.897,-2.318 196.825,-2.318C197.874,-2.318 198.533,-3.036 198.503,-3.934C198.503,-4.863 197.874,-5.582 196.885,-5.582M215.481,-6.632L215.481,2.032L215.421,2.032C214.761,0.864 213.261,-0.184 211.041,-0.184C207.5,-0.184 204.505,2.782 204.535,7.612C204.535,12.022 207.23,14.988 210.741,14.988C213.111,14.988 214.881,13.76 215.691,12.141L215.751,12.141L215.871,14.658L218.237,14.658C218.147,13.668 218.117,12.199 218.117,10.909L218.117,-6.632L215.481,-6.632ZM215.481,8.57C215.481,8.99 215.451,9.349 215.361,9.71C214.881,11.692 213.261,12.862 211.491,12.862C208.64,12.862 207.2,10.431 207.2,7.492C207.2,4.282 208.82,1.882 211.551,1.882C213.531,1.882 214.971,3.262 215.361,4.942C215.451,5.272 215.481,5.721 215.481,6.052L215.481,8.57ZM235.931,14.658C235.75,13.668 235.691,12.439 235.691,11.179L235.691,5.754C235.691,2.843 234.613,-0.184 230.175,-0.184C228.344,-0.184 226.604,0.325 225.407,1.103L226.006,2.843C227.024,2.181 228.434,1.762 229.785,1.762C232.756,1.762 233.085,3.924 233.085,5.124L233.085,5.425C227.474,5.395 224.358,7.309 224.358,10.819C224.358,12.922 225.856,14.988 228.793,14.988C230.865,14.988 232.425,13.97 233.236,12.832L233.325,12.832L233.535,14.658L235.931,14.658ZM233.146,9.768C233.146,10.041 233.085,10.341 232.996,10.611C232.576,11.842 231.375,13.042 229.485,13.042C228.134,13.042 226.994,12.232 226.994,10.521C226.994,7.7 230.265,7.19 233.146,7.25L233.146,9.768ZM242.952,14.658L245.587,14.658L245.587,5.93C245.587,5.481 245.648,5.031 245.768,4.701C246.218,3.231 247.568,2.002 249.309,2.002C251.799,2.002 252.668,3.951 252.668,6.291L252.668,14.658L255.305,14.658L255.305,5.991C255.305,1.013 252.189,-0.184 250.179,-0.184C247.778,-0.184 246.098,1.164 245.377,2.542L245.318,2.542L245.168,0.146L242.833,0.146C242.921,1.345 242.952,2.575 242.952,4.074L242.952,14.658ZM268.742,-0.184C264.722,-0.184 261.546,2.662 261.546,7.522C261.546,12.112 264.572,14.988 268.501,14.988C272.013,14.988 275.728,12.652 275.728,7.282C275.728,2.842 272.913,-0.184 268.742,-0.184M268.682,1.792C271.803,1.792 273.033,4.912 273.033,7.372C273.033,10.641 271.143,13.012 268.622,13.012C266.042,13.012 264.211,10.612 264.211,7.431C264.211,4.672 265.562,1.792 268.682,1.792M294.203,0.146L291.567,0.146L291.567,9.053C291.567,9.533 291.477,10.012 291.327,10.403C290.847,11.573 289.617,12.802 287.846,12.802C285.446,12.802 284.606,10.943 284.606,8.183L284.606,0.146L281.97,0.146L281.97,8.634C281.97,13.73 284.696,14.988 286.976,14.988C289.557,14.988 291.086,13.461 291.777,12.292L291.836,12.292L291.986,14.658L294.323,14.658C294.233,13.518 294.203,12.199 294.203,10.7L294.203,0.146ZM310.941,14.658L313.576,14.658L313.576,5.901C313.576,5.39 313.606,5.001 313.756,4.64C314.236,3.202 315.586,2.002 317.296,2.002C319.788,2.002 320.658,3.981 320.658,6.321L320.658,14.658L323.292,14.658L323.292,6.021C323.292,1.013 320.178,-0.184 318.227,-0.184C317.237,-0.184 316.307,0.116 315.527,0.565C314.716,1.013 314.056,1.673 313.636,2.422L313.576,2.422L313.576,-6.632L310.941,-6.632L310.941,14.658ZM336.731,-0.184C332.709,-0.184 329.535,2.662 329.535,7.522C329.535,12.112 332.56,14.988 336.491,14.988C340,14.988 343.717,12.652 343.717,7.282C343.717,2.842 340.901,-0.184 336.731,-0.184M336.67,1.792C339.791,1.792 341.021,4.912 341.021,7.372C341.021,10.641 339.131,13.012 336.611,13.012C334.03,13.012 332.2,10.612 332.2,7.431C332.2,4.672 333.549,1.792 336.67,1.792M359.945,-6.632L359.945,2.032L359.885,2.032C359.225,0.864 357.725,-0.184 355.504,-0.184C351.963,-0.184 348.969,2.782 348.999,7.612C348.999,12.022 351.694,14.988 355.205,14.988C357.575,14.988 359.345,13.76 360.155,12.141L360.215,12.141L360.334,14.658L362.701,14.658C362.611,13.668 362.581,12.199 362.581,10.909L362.581,-6.632L359.945,-6.632ZM359.945,8.57C359.945,8.99 359.915,9.349 359.825,9.71C359.345,11.692 357.725,12.862 355.955,12.862C353.104,12.862 351.664,10.431 351.664,7.492C351.664,4.282 353.284,1.882 356.015,1.882C357.995,1.882 359.435,3.262 359.825,4.942C359.915,5.272 359.945,5.721 359.945,6.052L359.945,8.57ZM369.961,14.658L372.598,14.658L372.598,5.93C372.598,5.481 372.658,5.031 372.778,4.701C373.228,3.231 374.578,2.002 376.318,2.002C378.809,2.002 379.679,3.951 379.679,6.291L379.679,14.658L382.315,14.658L382.315,5.991C382.315,1.013 379.199,-0.184 377.189,-0.184C374.788,-0.184 373.108,1.164 372.388,2.542L372.328,2.542L372.178,0.146L369.842,0.146C369.932,1.345 369.961,2.575 369.961,4.074L369.961,14.658ZM395.751,-0.184C391.732,-0.184 388.556,2.662 388.556,7.522C388.556,12.112 391.582,14.988 395.512,14.988C399.023,14.988 402.738,12.652 402.738,7.282C402.738,2.842 399.922,-0.184 395.751,-0.184M395.692,1.792C398.812,1.792 400.042,4.912 400.042,7.372C400.042,10.641 398.152,13.012 395.631,13.012C393.052,13.012 391.222,10.612 391.222,7.431C391.222,4.672 392.572,1.792 395.692,1.792M409.668,-3.333L409.668,0.146L407.419,0.146L407.419,2.152L409.668,2.152L409.668,10.072C409.668,11.782 409.939,13.072 410.688,13.849C411.317,14.569 412.305,14.958 413.535,14.958C414.554,14.958 415.364,14.807 415.874,14.598L415.753,12.622C415.424,12.712 414.914,12.802 414.224,12.802C412.754,12.802 412.245,11.782 412.245,9.982L412.245,2.152L416.024,2.152L416.024,0.146L412.245,0.146L412.245,-4.024L409.668,-3.333ZM427.961,-0.184C423.941,-0.184 420.766,2.662 420.766,7.522C420.766,12.112 423.791,14.988 427.722,14.988C431.232,14.988 434.948,12.652 434.948,7.282C434.948,2.842 432.131,-0.184 427.961,-0.184M427.902,1.792C431.022,1.792 432.251,4.912 432.251,7.372C432.251,10.641 430.362,13.012 427.842,13.012C425.262,13.012 423.431,10.612 423.431,7.431C423.431,4.672 424.782,1.792 427.902,1.792M453.421,0.146L450.787,0.146L450.787,9.053C450.787,9.533 450.697,10.012 450.546,10.403C450.066,11.573 448.835,12.802 447.066,12.802C444.665,12.802 443.825,10.943 443.825,8.183L443.825,0.146L441.19,0.146L441.19,8.634C441.19,13.73 443.915,14.988 446.196,14.988C448.776,14.988 450.306,13.461 450.996,12.292L451.056,12.292L451.206,14.658L453.542,14.658C453.452,13.518 453.421,12.199 453.421,10.7L453.421,0.146Z" style="fill:white;fill-rule:nonzero;"/>
                </g>
            </g>
            <g transform="matrix(-0.947618,0.319407,0.319407,0.947618,453.098,326.164)">
                <path d="M-3.765,-0.617C-2.478,-0.603 -1.191,-0.586 0.101,-0.617" style="fill:white;fill-rule:nonzero;"/>
            </g>
            <g transform="matrix(0.21664,0,0,0.21664,-228.199,27.3563)">
                <path d="M1886.69,1356.69C1844.71,1369.72 1800.14,1376.73 1753.93,1376.73C1686.88,1376.73 1623.25,1361.96 1566.15,1335.5C1604.81,1353.38 1646.45,1365.89 1690.12,1372.13C1696.03,1349.43 1700.91,1326.66 1708.67,1304.63C1722.96,1265.33 1742.49,1227.95 1753.68,1187.71C1755.1,1182.71 1750.35,1178.18 1745.82,1176.75C1717.48,1170.32 1694.14,1149.36 1678.91,1125.09C1672.95,1114.13 1668.91,1100.56 1658.19,1092.93C1630.57,1091.5 1602.47,1091.27 1575.09,1097.21C1561.77,1098.65 1550.09,1106.28 1541.52,1116.27C1520.32,1142.95 1506.28,1174.61 1493.42,1206.04C1484.44,1228.52 1475.56,1250.84 1468.64,1273.96C1369.49,1191.84 1306.27,1067.78 1306.27,929.074C1306.27,682.003 1506.86,481.413 1753.93,481.413C2001.01,481.413 2201.6,682.003 2201.6,929.074C2201.6,1128.09 2071.45,1296.95 1891.72,1355.09C1895.15,1353.96 1898.55,1352.77 1901.95,1351.57C1903.54,1341.53 1904.72,1330.29 1905.83,1319.14C1906.77,1309.51 1907.67,1300.41 1908.85,1292.85C1909.26,1287.3 1909.63,1283 1909.97,1279.22C1910.98,1267.66 1911.6,1260.69 1911.25,1238.33C1910.77,1206.29 1888.43,1189.47 1887.48,1188.77L1887.33,1188.99C1879.45,1179.05 1857.43,1160.04 1856.9,1159.62C1850.28,1154.27 1841.73,1147.47 1830.45,1149C1828.47,1149.27 1826.75,1150.47 1825.76,1152.21C1824.78,1153.95 1824.67,1156.07 1825.47,1157.9C1827.08,1161.66 1828.91,1165.92 1832.6,1168.99C1836.61,1172.83 1840.74,1176.59 1844.89,1180.35C1858.82,1193 1871.97,1204.95 1881.17,1220.69C1891.04,1236.05 1891.17,1255.58 1890.16,1271.1C1889.69,1286.95 1888.96,1302.74 1888.25,1318.5C1887.66,1331.25 1887.14,1343.96 1886.69,1356.69ZM1670.41,1291.49C1669.27,1292.62 1667.65,1293.31 1665.87,1293.31C1662.53,1293.31 1659.51,1290.88 1657.09,1288.93L1652.62,1285.41L1657.23,1285.41C1658.27,1285.41 1659.38,1285.55 1660.5,1285.71C1661.48,1285.83 1662.49,1285.97 1663.45,1285.97C1665,1285.97 1666,1285.6 1666.76,1284.68C1666.39,1282.91 1664.89,1281.61 1662.94,1280.21C1661.1,1280.85 1659.3,1281.62 1657.4,1282.43C1654.59,1283.62 1651.69,1284.85 1648.61,1285.69L1646.54,1286.25L1646.6,1284.11C1646.8,1276.49 1653.6,1269.55 1660.87,1269.55C1663.16,1269.55 1665.31,1270.21 1667.25,1271.53C1671.49,1273.09 1674.72,1277.42 1675.16,1282.15C1675.53,1286.17 1673.8,1289.57 1670.41,1291.49ZM1698.2,1209.38C1696.9,1215.41 1690.62,1215.52 1686.04,1215.61C1685.01,1215.62 1684.01,1215.64 1683.12,1215.73L1676.54,1216.37L1682.1,1212.8C1683.19,1212.09 1684.31,1211.39 1685.42,1210.69C1687.3,1209.51 1689.17,1208.34 1690.93,1207.16C1690.87,1207.03 1690.82,1206.91 1690.76,1206.78C1689.15,1203.23 1687.9,1201.04 1685.08,1201.43C1680.58,1201.82 1679.07,1205.33 1677.1,1211.06C1676.31,1213.34 1675.5,1215.69 1674.31,1217.61L1673.9,1218.25L1673.16,1218.34C1672.78,1218.39 1672.42,1218.42 1672.07,1218.42C1670.11,1218.42 1668.44,1217.67 1667.24,1216.26C1665.14,1213.78 1664.93,1209.71 1665.42,1206.73C1665.86,1197.8 1674.45,1189.81 1683.8,1189.81C1685,1189.81 1686.19,1189.93 1687.36,1190.2C1691.93,1191.31 1696.16,1194.81 1698.16,1199.12C1699.77,1202.56 1699.78,1206.21 1698.2,1209.38ZM2039.25,880.64C2029.28,871.278 2018.78,862.165 2008.62,853.357C1987.26,834.828 1965.18,815.669 1947.12,793.29C1936.04,780.294 1926.88,765.248 1918.02,750.698L1905.93,730.757C1879.97,687.457 1853.12,642.686 1815.89,607.011C1794.87,585.353 1774.6,574.823 1753.99,574.823C1734.78,575.094 1716.12,585.603 1699.9,606.778C1687.69,623.786 1671.73,649.719 1674.23,678.482C1676.18,699.44 1688.19,719.132 1710.53,738.311C1714.97,742.853 1719.98,746.461 1724.83,749.953C1730.5,754.028 1735.84,757.873 1739.85,762.807C1743.95,768.015 1742.44,776.132 1740.98,783.982L1740.81,784.928C1735.59,805.853 1725.33,825.561 1715.39,844.623C1713.47,848.328 1711.54,852.023 1709.88,855.298C1706.84,860.298 1706.1,866.473 1707.78,874.711C1713.04,892.648 1724.67,909.865 1743.4,927.369C1778.56,959.769 1829.17,978.353 1882.26,978.353C1882.61,978.353 1883.18,978.107 1883.52,978.048C1881.44,1000.25 1872.41,1021.23 1862.94,1040.64C1850.1,1067.39 1836.53,1088.81 1821.62,1105.96C1802.52,1126.52 1785.06,1137.48 1767.45,1140.37C1751.2,1141.12 1734.42,1132.34 1716.2,1113.81C1697.74,1094.08 1692.83,1068.74 1691.96,1050.95C1691.78,1047.55 1688.98,1044.88 1685.58,1044.88L1685.54,1044.88C1682.11,1044.9 1679.33,1047.61 1679.2,1051.04C1678.1,1081.35 1688.89,1109.59 1708.78,1128.49C1719.14,1138.43 1736.88,1151.49 1752.82,1155.56C1758.11,1156.91 1762.45,1157.49 1766.3,1157.48C1773.17,1157.48 1778.42,1155.66 1784.54,1153.19C1800.82,1146.91 1816.39,1136.41 1830.93,1121.87C1851.58,1100.17 1868.82,1073.2 1887.09,1033.86C1894.25,1016.89 1901.62,999.398 1902.42,980.523C1923.75,996.728 1953.76,1006.68 1977.93,1012.56C1999.36,1015.93 2022.84,1009.24 2042.52,994.048C2063.72,976.603 2074.14,959.128 2074.36,940.132C2072.77,915.065 2055.45,896.319 2039.25,880.64Z" style="fill:white;"/>
            </g>
        </g>
    </g>
</svg>
