<?xml version="1.0" encoding="UTF-8" standalone="no"?>
<!DOCTYPE svg PUBLIC "-//W3C//DTD SVG 1.1//EN" "http://www.w3.org/Graphics/SVG/1.1/DTD/svg11.dtd">
<svg width="100%" height="100%" viewBox="0 0 10338 10338" version="1.1" xmlns="http://www.w3.org/2000/svg" xmlns:xlink="http://www.w3.org/1999/xlink" xml:space="preserve" xmlns:serif="http://www.serif.com/" style="fill-rule:evenodd;clip-rule:evenodd;stroke-linejoin:round;stroke-miterlimit:2;">
    <g transform="matrix(4.16667,0,0,4.16667,0,0)">
        <g transform="matrix(9.02976,0,0,9.02976,-2560.87,-826.126)">
            <g>
                <g>
                    <g transform="matrix(1,0,0,1,420.945,91.4895)">
                        <path d="M0,274.683C75.852,274.683 137.341,213.194 137.341,137.342C137.341,61.491 75.852,0 0,0C-75.852,0 -137.341,61.491 -137.341,137.342C-137.341,213.194 -75.852,274.683 0,274.683" style="fill:rgb(43,74,212);fill-rule:nonzero;"/>
                    </g>
                    <g transform="matrix(1,0,0,1,0,-137.613)">
                        <rect x="360.515" y="304.641" width="61.804" height="123.607" style="fill:white;"/>
                    </g>
                    <g transform="matrix(1,0,0,1,0,-75.81)">
                        <rect x="422.318" y="304.641" width="61.804" height="61.804" style="fill:rgb(82,193,233);"/>
                    </g>
                </g>
            </g>
        </g>
    </g>
</svg>
