<?xml version="1.0" encoding="UTF-8" standalone="no"?>
<!DOCTYPE svg PUBLIC "-//W3C//DTD SVG 1.1//EN" "http://www.w3.org/Graphics/SVG/1.1/DTD/svg11.dtd">
<svg width="100%" height="100%" viewBox="0 0 676 262" version="1.1" xmlns="http://www.w3.org/2000/svg" xmlns:xlink="http://www.w3.org/1999/xlink" xml:space="preserve" xmlns:serif="http://www.serif.com/" style="fill-rule:evenodd;clip-rule:evenodd;stroke-linejoin:round;stroke-miterlimit:2;">
    <g transform="matrix(1,0,0,1,-67.8933,-134.305)">
        <g>
            <g transform="matrix(1.23912,0,0,1.26795,1.95323,-3.12757)">
                <path d="M200.167,228.127L200.174,228.131L200.222,228.169L200.318,228.244L200.332,228.256L200.345,228.265L200.397,228.308L200.474,228.37L200.495,228.387L200.513,228.402L200.562,228.443L200.627,228.497L200.655,228.521L200.679,228.541L200.723,228.579L200.778,228.627L200.813,228.657L200.842,228.682L200.881,228.717L200.928,228.758L200.969,228.795L201.003,228.825L201.036,228.856L201.075,228.891L201.123,228.935L201.161,228.971L201.189,228.997L201.22,229.026L201.275,229.078L201.318,229.119L201.339,229.14L201.364,229.163L201.426,229.224L201.472,229.268L201.488,229.284L201.505,229.301L201.578,229.374L201.624,229.419L201.634,229.43L201.645,229.441L201.736,229.533L201.774,229.572L201.779,229.577C201.827,229.626 201.875,229.676 201.922,229.726L202.056,229.868L202.07,229.883L202.112,229.93L202.19,230.013L202.203,230.028L202.215,230.041L202.259,230.09L202.323,230.16L202.342,230.181L202.359,230.2L202.4,230.247L202.454,230.307L202.48,230.336L202.501,230.36L202.539,230.403L202.584,230.455L202.602,230.476C202.672,230.557 202.742,230.638 202.812,230.719L202.842,230.755L202.978,230.917L203.058,231.011L203.077,231.034L203.096,231.057L203.266,231.264L203.33,231.342L203.339,231.352C203.426,231.458 203.512,231.565 203.599,231.673L203.648,231.734L208.83,237.038C209.043,237.048 209.264,237.11 209.092,237.306C209.258,237.409 209.427,237.507 209.6,237.6L209.6,264.8L53.6,264.8L53.6,247.514L53.504,245.762C53.427,244.31 53.36,242.857 53.31,241.404C53.258,239.896 53.223,238.388 53.216,236.879C53.21,235.401 53.229,233.923 53.285,232.445C53.331,231.225 53.402,230.005 53.505,228.789C53.534,228.451 53.565,228.113 53.599,227.775L53.6,220.8C53.646,220.91 53.691,221.021 53.733,221.133C53.817,221.355 53.893,221.579 53.963,221.805C54.048,222.082 54.123,222.363 54.189,222.645C54.219,222.775 54.247,222.905 54.274,223.035L54.278,223.031C54.335,222.734 54.395,222.438 54.458,222.143C54.604,221.453 54.768,220.767 54.951,220.085L55.194,219.22C55.196,219.213 55.193,219.2 55.2,219.2C55.206,219.2 55.203,219.213 55.205,219.219L55.258,219.445L55.447,220.299C55.921,218.546 56.971,217.19 59.2,216.8C58.984,218.95 58.545,220.456 57.6,222.4L58.4,220.8L58.524,221.246C58.529,221.268 58.534,221.291 58.538,221.313C58.548,221.363 58.555,221.413 58.557,221.464C58.558,221.512 58.554,221.561 58.54,221.607C58.534,221.629 58.525,221.65 58.515,221.67L58.514,221.671C60.584,220.082 63.125,218.464 64.94,216.57L67.968,209.441L69.793,206.93C69.878,206.765 69.967,206.601 70.058,206.439C70.134,206.304 70.213,206.171 70.293,206.04C70.358,205.935 70.424,205.831 70.493,205.728C70.729,205.371 70.987,205.027 71.274,204.709C71.55,204.402 71.852,204.118 72.182,203.871C72.322,203.765 72.466,203.667 72.616,203.575C72.805,203.459 73.001,203.355 73.203,203.264C73.466,203.145 73.739,203.049 74.019,202.977C74.252,202.917 74.489,202.874 74.728,202.847C74.883,202.829 75.038,202.819 75.194,202.814L75.2,202.4C75.369,202.422 75.539,202.446 75.708,202.471C75.845,202.492 75.983,202.514 76.119,202.538C76.363,202.582 76.605,202.633 76.843,202.698C77.015,202.745 77.185,202.8 77.352,202.864C77.461,202.906 77.568,202.952 77.674,203.001C77.785,203.053 77.894,203.11 78.001,203.17C78.262,203.315 78.511,203.482 78.753,203.658L79.095,203.825C79.44,203.998 79.777,204.187 80.107,204.388C80.504,204.63 80.892,204.889 81.269,205.162C81.703,205.475 82.125,205.804 82.535,206.147C83.029,206.56 83.506,206.991 83.97,207.436L83.971,207.437C84.206,207.437 84.499,207.496 84.271,207.729C87.136,210.557 89.478,213.945 90.4,216C91.747,215.821 92.25,215.826 93.6,216C94.672,223.798 100.094,228.595 107.441,229.463C107.446,229.394 107.456,229.344 107.466,229.334C107.506,229.294 107.541,229.269 107.571,229.257L105.6,224C107.624,224.518 108.708,225.142 110.4,226.4C110.348,226.556 110.301,226.7 110.26,226.835L112,226.4C112.088,226.581 112.178,226.758 112.27,226.93C112.586,226.62 112.583,227.264 112.547,227.43L112.799,227.852L113.074,228.285C113.129,228.31 113.162,228.348 113.152,228.402L113.154,228.405C113.346,228.693 113.547,228.975 113.756,229.251C113.982,229.551 114.217,229.845 114.458,230.133C114.682,230.401 114.912,230.664 115.144,230.925L116.262,232.169C116.359,232.278 116.455,232.389 116.551,232.5L116.917,232.94C117.1,233.168 117.277,233.403 117.442,233.645C117.589,233.861 117.727,234.083 117.851,234.313C117.9,234.403 117.947,234.495 117.992,234.588C118.06,234.729 118.123,234.874 118.18,235.02C118.244,235.184 118.301,235.351 118.349,235.52C118.398,235.692 118.439,235.866 118.472,236.042C118.497,236.175 118.517,236.308 118.533,236.441C118.544,236.534 118.553,236.627 118.56,236.72C118.601,237.285 118.567,237.853 118.485,238.413C118.473,238.497 118.46,238.582 118.445,238.666C118.426,238.779 118.405,238.891 118.382,239.004C118.352,239.152 118.319,239.299 118.284,239.445C118.236,239.643 118.183,239.84 118.127,240.036C118.014,240.432 117.885,240.823 117.745,241.21L117.605,241.588C117.603,241.592 117.598,241.596 117.6,241.6C117.602,241.603 117.606,241.596 117.609,241.594L118.084,241.29C118.028,241.244 118.027,241.173 118.134,241.066C118.154,241.046 118.342,241.026 118.506,241.044L118.512,241.041C118.856,240.851 119.209,240.679 119.574,240.535C119.864,240.421 120.161,240.324 120.463,240.25C120.673,240.198 120.886,240.158 121.101,240.131C121.317,240.104 121.534,240.09 121.752,240.09C122.01,240.091 122.267,240.112 122.521,240.154C122.697,240.183 122.871,240.222 123.042,240.269C123.16,240.302 123.277,240.34 123.393,240.381C123.473,240.409 123.552,240.44 123.63,240.472C123.693,240.497 123.756,240.524 123.818,240.552C124.279,240.76 124.713,241.025 125.123,241.321C125.201,241.378 125.278,241.435 125.354,241.493C125.454,241.57 125.552,241.648 125.65,241.727C125.786,241.839 125.92,241.953 126.052,242.069C126.225,242.221 126.394,242.376 126.561,242.534C126.792,242.753 127.019,242.976 127.243,243.202C127.55,243.512 127.853,243.826 128.154,244.141C128.372,244.367 128.589,244.594 128.807,244.82C128.976,244.994 129.145,245.168 129.315,245.341L129.6,244.8C129.606,244.803 129.612,244.806 129.618,244.809L130.4,246.4C128.406,242.208 125.938,238.113 124.8,233.6L125.674,233.425L125.97,232.754C126.058,232.558 126.149,232.363 126.242,232.169C126.493,231.647 126.76,231.132 127.048,230.628C127.313,230.163 127.596,229.707 127.898,229.265L128.227,228.8L126.4,228.8L126.4,228C127.385,228.17 127.707,228.233 128.39,228.582C129.562,227.036 130.994,225.723 132.8,224.8C132.19,226.877 131.48,228.773 130.377,230.302C130.237,230.497 130.09,230.686 129.936,230.868C130.438,231.6 130.707,232.16 131,233L132.8,228.8C133.85,228.8 134.016,228.806 134.489,229.116C134.802,227.525 135.241,226.325 136,224.8L137.245,224.8C139.197,221.064 142.07,217.398 145.6,216.8C145.321,218.869 144.885,220.506 144,222.4L144.037,222.329C144.803,220.857 144.886,220.711 146.4,220L147.201,220.401C147.205,219.955 147.224,219.72 147.304,219.504C147.376,219.31 147.499,219.133 147.705,218.833L147.6,218.4C147.8,218 148,217.6 148,217.6L148.039,218.572C148.287,219.689 148.207,219.703 147.45,220.525L148,220.8C148.097,220.546 148.196,220.293 148.297,220.041C148.611,219.251 148.94,218.467 149.289,217.691C149.663,216.859 150.059,216.037 150.484,215.229C150.879,214.477 151.299,213.739 151.749,213.019C152.112,212.439 152.495,211.871 152.902,211.321L153.262,210.846C153.423,210.267 153.605,209.694 153.818,209.132C153.909,208.894 154.005,208.659 154.108,208.426C154.207,208.201 154.312,207.979 154.425,207.761C154.609,207.405 154.813,207.058 155.041,206.728C155.242,206.438 155.462,206.161 155.703,205.903C155.858,205.739 156.021,205.584 156.193,205.438C156.363,205.295 156.543,205.161 156.73,205.041C156.965,204.889 157.213,204.756 157.47,204.646C157.642,204.572 157.817,204.508 157.996,204.454C158.12,204.416 158.247,204.383 158.374,204.354C158.467,204.333 158.56,204.314 158.654,204.298C158.725,204.285 158.796,204.274 158.867,204.264C159.394,204.191 159.928,204.186 160.457,204.225C160.548,204.231 160.639,204.239 160.729,204.248C160.851,204.26 160.972,204.275 161.093,204.291C161.25,204.312 161.407,204.336 161.563,204.363C161.768,204.398 161.972,204.437 162.175,204.48C162.448,204.539 162.72,204.603 162.99,204.673C163.34,204.762 163.687,204.86 164.033,204.963C164.532,205.111 165.028,205.269 165.523,205.431L166.16,205.548L166.386,205.597C166.391,205.598 166.396,205.597 166.4,205.6C166.404,205.603 166.405,205.608 166.407,205.612L166.483,205.743L166.576,205.781C167.101,205.957 167.625,206.133 168.151,206.304C168.696,206.481 169.243,206.653 169.793,206.815C170.12,206.911 170.448,207.003 170.778,207.091L171.188,207.197C171.192,207.198 171.196,207.198 171.2,207.2C171.203,207.202 171.203,207.206 171.204,207.209L171.308,207.405C171.396,207.57 171.486,207.733 171.578,207.895C171.896,208.453 172.24,208.997 172.601,209.529C173.333,210.61 174.132,211.643 174.928,212.677C175.265,213.116 175.602,213.556 175.933,214C176.144,214.282 176.352,214.567 176.556,214.853L176.8,214.4L177.418,214.688C177.445,214.702 177.472,214.717 177.498,214.735C177.524,214.754 177.549,214.775 177.568,214.802C177.576,214.813 177.583,214.825 177.589,214.838C177.609,214.879 177.617,214.926 177.62,214.972L177.615,215.357L178.4,215.2C180.405,219.935 182.997,224.158 186.4,228L187.2,228C188.889,226.261 191.092,228.017 193.015,229.445C192.956,229.281 192.891,229.072 192.8,228.8L194.4,228.8L194.4,230.4C194.541,228.898 194.75,227.841 195.2,226.4L198.4,226.4L198.415,226.405C199.707,226.835 199.566,226.697 200,228L199.193,228L199.333,228.247C199.506,228.272 199.638,228.344 199.488,228.511L199.975,229.293C200.249,229.718 200.534,230.135 200.826,230.548L206.4,243.2C206.768,237 201.269,234.045 200,228C200.056,228.042 200.112,228.084 200.167,228.127ZM209.251,250.114C209.259,250.262 209.265,250.409 209.271,250.557C209.293,251.086 209.303,251.615 209.306,252.145C209.308,252.763 209.3,253.381 209.284,253.999C209.254,255.114 209.2,256.228 209.133,257.341C209.097,257.953 209.057,258.565 209.016,259.176L209.013,259.216C209.063,258.539 209.114,257.861 209.159,257.184C209.23,256.121 209.29,255.057 209.319,253.992C209.336,253.382 209.343,252.771 209.336,252.161C209.33,251.639 209.314,251.118 209.283,250.597L209.251,250.114ZM125.866,241.334C125.844,241.356 125.822,241.578 125.85,241.75C125.878,241.922 125.956,242.044 126.134,241.866C126.178,241.822 126.222,240.978 125.866,241.334ZM120.8,238.4L124.8,240.8C123.649,238.714 123.17,238.334 120.8,238.4ZM208.83,237.038L209.09,237.305C208.951,237.22 208.814,237.131 208.68,237.04C208.725,237.037 208.777,237.036 208.83,237.038ZM203.648,231.734L203.842,231.977L203.867,232.008C203.956,232.12 204.045,232.232 204.134,232.343L204.627,232.963L204.733,233.095L204.873,233.271L204.993,233.419L205.134,233.591L205.255,233.738L205.397,233.909L205.518,234.054L205.663,234.224L205.807,234.391L205.854,234.445L205.921,234.522L205.988,234.597L206.056,234.674L206.124,234.749L206.193,234.824L206.262,234.9L206.33,234.974L206.401,235.049L206.469,235.121L206.544,235.199L206.609,235.268L206.697,235.357L206.75,235.411L206.78,235.441L206.891,235.551L206.953,235.612L207.036,235.692L207.103,235.756L207.183,235.832L207.252,235.896L207.332,235.969L207.403,236.033L207.483,236.104L207.555,236.167L207.636,236.238L207.709,236.299L207.792,236.369L207.865,236.429L207.95,236.498L208.023,236.556L208.112,236.626L208.184,236.681L208.279,236.753L208.347,236.803L208.455,236.882L208.512,236.923L208.68,237.04L208.68,237.04C208.623,237.001 208.567,236.962 208.512,236.923L208.506,236.919L208.455,236.882L208.36,236.813L208.347,236.803L208.334,236.794L208.279,236.753L208.203,236.696L208.184,236.681L208.165,236.667L208.112,236.626L208.049,236.577L208.023,236.556L207.998,236.537L207.95,236.498L207.897,236.456L207.865,236.429L207.834,236.404L207.792,236.369L207.747,236.332L207.709,236.299L207.672,236.269L207.636,236.238L207.599,236.206L207.555,236.167L207.513,236.131L207.483,236.104L207.453,236.078L207.403,236.033L207.356,235.991L207.332,235.969L207.309,235.949L207.252,235.896L207.201,235.849L207.183,235.832L207.167,235.817L207.103,235.756L207.048,235.704L207.036,235.692L207.026,235.683L206.953,235.612L206.897,235.558L206.887,235.548L206.78,235.441L206.748,235.409L206.697,235.357L206.614,235.273L206.601,235.259L206.544,235.199L206.48,235.133L206.469,235.121L206.455,235.107L206.401,235.049L206.346,234.991L206.33,234.974L206.311,234.953L206.262,234.9L206.214,234.848L206.193,234.824L206.168,234.798L206.124,234.749L206.084,234.704L206.056,234.674L206.027,234.641L205.988,234.597L205.954,234.559L205.921,234.522L205.887,234.483L205.854,234.445L205.825,234.412L205.807,234.391L205.748,234.323L205.663,234.224L205.571,234.116L205.518,234.054L205.473,234L205.397,233.909L205.319,233.817L205.255,233.738L205.201,233.674L205.134,233.591L205.07,233.514L204.993,233.419L204.932,233.344L204.873,233.271L204.823,233.209L204.733,233.095L204.665,233.012L204.627,232.963L204.578,232.902C204.496,232.799 204.414,232.697 204.333,232.594L203.857,231.995L203.648,231.734L203.648,231.734ZM130.743,233.6L130.421,233.6C130.415,233.777 130.4,234.027 130.4,234.391L130.4,234.4L130.743,233.6ZM129.766,231.064C128.961,231.964 127.971,232.698 126.719,233.216L128.8,232.8C128.954,233.262 129.035,233.542 129.134,233.732L129.6,232.8L130.213,233.085L130.281,233.124L129.766,231.064ZM113.6,228C113.986,229.205 114.462,230.052 115.103,230.775C115.744,231.498 116.551,232.095 117.6,232.8C116.561,230.59 115.558,229.469 113.6,228ZM209.321,187.16L209.358,187.27C209.367,186.908 209.377,186.547 209.39,186.185C209.418,185.366 209.456,184.546 209.507,183.727C209.527,183.407 209.548,183.087 209.572,182.766L209.598,182.42C209.599,182.414 209.603,182.406 209.6,182.4C209.598,182.397 209.593,182.4 209.589,182.4L209.14,182.407C208.65,182.42 208.159,182.449 207.671,182.493C207.087,182.546 206.504,182.62 205.926,182.718C205.369,182.812 204.814,182.928 204.267,183.071C203.818,183.189 203.373,183.324 202.936,183.483C202.579,183.612 202.227,183.756 201.883,183.919C201.781,183.968 201.679,184.018 201.578,184.07L201.576,184.072C201.584,184.048 201.592,184.024 201.6,184L200,184L200,185.131C199.152,185.883 198.564,186.826 198.4,188C197.138,188.195 194.855,188.982 192.643,190.081L191.2,189.6L191.2,190.852L190.941,191.003C190.907,190.858 190.827,190.773 190.666,190.934C190.651,190.949 190.635,191.062 190.637,191.187L190.635,191.188C190.303,191.392 189.976,191.604 189.657,191.828C189.42,191.995 189.186,192.169 188.959,192.349C188.803,192.473 188.649,192.601 188.5,192.733C188.36,192.856 188.224,192.982 188.092,193.113C187.972,193.233 187.855,193.356 187.743,193.484C187.638,193.603 187.538,193.725 187.443,193.852C187.299,194.045 187.168,194.248 187.058,194.462C186.967,194.639 186.891,194.823 186.838,195.015C186.817,195.092 186.799,195.17 186.785,195.249C186.773,195.318 186.765,195.387 186.758,195.457L186.741,195.78C186.616,195.336 186.502,194.88 186.4,194.4L184.8,194.4C185.292,196.813 185.805,197.9 187.878,199.129L187.88,199.132C188.068,199.434 188.268,199.729 188.475,200.019C188.678,200.303 188.888,200.583 189.101,200.86C189.334,201.162 189.57,201.462 189.804,201.763C189.933,201.929 190.061,202.096 190.187,202.264L190.673,202.927C190.671,202.929 190.668,202.932 190.666,202.934C190.644,202.956 190.622,203.178 190.65,203.35C190.678,203.522 190.756,203.644 190.934,203.466C190.944,203.456 190.955,203.4 190.96,203.326C191.144,203.582 191.328,203.841 191.511,204.102C191.418,204.072 191.314,204.038 191.2,204L191.2,205.6L192.548,205.6L192.572,205.635C193.273,206.66 193.965,207.692 194.657,208.724C195.656,210.211 196.658,211.697 197.694,213.158L198.302,214.007L199.2,217.6L200,217.6C199.964,217.054 199.915,216.549 199.846,216.074L199.855,216.085C200.712,217.189 201.602,218.267 202.546,219.298C202.862,219.643 203.185,219.984 203.514,220.317L203.985,220.785C203.99,220.79 203.996,220.794 204,220.8L203.901,220.879C203.837,220.934 203.777,220.994 203.723,221.059C203.65,221.147 203.589,221.245 203.549,221.352C203.526,221.414 203.511,221.479 203.504,221.544C203.496,221.609 203.497,221.674 203.504,221.739C203.517,221.85 203.55,221.959 203.594,222.062C203.622,222.127 203.654,222.189 203.689,222.25C203.728,222.317 203.771,222.381 203.816,222.444C203.874,222.525 203.937,222.603 204.002,222.678C204.073,222.761 204.148,222.841 204.225,222.919C204.299,222.995 204.376,223.069 204.454,223.142L204.795,223.448C204.563,223.368 204.301,223.288 204,223.2L208.8,232L209.6,232L209.6,211.489L209.601,211.455C209.618,210.713 209.629,209.97 209.634,209.228C209.644,207.633 209.628,206.039 209.6,204.444L209.6,200.8C209.6,196.627 210.412,191.348 209.321,187.16ZM128.33,146.856C128.491,146.585 127.774,146.626 127.734,146.666C127.614,146.786 127.63,146.861 127.707,146.905L126.784,146.979L126.829,147L126.58,147.023C125.72,147.096 124.861,147.16 124,147.2L126.784,146.979C124.925,146.064 123.682,146.553 123.2,148.8L124,148.8C124.163,148.666 124.311,148.547 124.45,148.44C124.466,148.5 124.55,148.534 124.65,148.55C124.763,148.568 124.898,148.565 124.983,148.555L125.527,148.874L126.05,149.19C126.026,149.283 126.125,149.33 126.25,149.35C126.273,149.354 126.298,149.357 126.322,149.359L127.141,149.884C127.91,150.392 128.662,150.928 129.386,151.5C130.013,151.995 130.619,152.518 131.197,153.07C131.513,153.372 131.82,153.682 132.117,154.002C132.412,154.318 132.697,154.643 132.971,154.976C133.264,155.331 133.545,155.696 133.813,156.07C134.015,156.352 134.211,156.638 134.399,156.929L134.4,156.931L134.4,158.4L135.2,158.4C135.189,158.336 135.178,158.275 135.168,158.216L135.547,158.929L135.917,159.689C135.946,159.819 135.973,159.948 136,160.077L136,162.4L136.372,162.4C136.387,162.549 136.401,162.698 136.413,162.847C136.374,162.848 136.326,162.874 136.266,162.934C136.244,162.956 136.222,163.178 136.25,163.35C136.273,163.493 136.332,163.602 136.454,163.531L136.465,163.998L136.463,164.46C136.418,164.431 136.354,164.446 136.266,164.534C136.244,164.556 136.222,164.778 136.25,164.95C136.272,165.086 136.326,165.191 136.435,165.141L136.398,165.61L136.349,166.067C136.324,166.082 136.297,166.103 136.266,166.134C136.244,166.156 136.222,166.378 136.25,166.55C136.255,166.581 136.262,166.61 136.27,166.636L136.268,166.646C136.213,166.995 136.147,167.342 136.072,167.687L136.003,167.988C136.002,167.992 135.996,167.998 136,168C136.01,168.004 136.022,168 136.033,168L136.576,167.996L136.947,167.974C137.008,167.967 137.069,167.958 137.13,167.945C137.179,167.934 137.228,167.92 137.276,167.903L137.29,167.895C133.759,170.323 131.375,174.082 127.988,176.794C123.94,180.035 118.984,182.395 114.385,184.998L114.4,184.99L114.4,184.8L112.551,183.875C113.195,183.721 113.802,183.544 114.4,183.343L114.4,184L117.6,183.2C116.569,182.873 116.167,182.823 115.462,182.956C115.899,182.786 116.341,182.601 116.8,182.4C114.904,181.929 113.834,182.436 112,183.2L112,183.6L111.2,183.2C112.043,184.395 112.627,184.809 113.794,185.336L113.768,185.35L113.554,185.475L113.486,185.514L113.461,185.528C113.319,185.611 113.178,185.694 113.036,185.777L112.986,185.806L112.92,185.846L112.774,185.932L112.545,186.069L112.491,186.101L112.474,186.112L112.445,186.129L112,186.4C111.996,186.41 112,186.422 112,186.433L112.007,187.086L112.038,187.436C111.978,187.348 111.915,187.262 111.851,187.178C111.747,187.04 111.638,186.906 111.527,186.775C111.42,186.648 111.31,186.524 111.2,186.4L111.09,186.73C110.975,186.652 110.768,186.584 110.4,186.4L109.6,188L110.667,188L110.55,188.35L108.8,188L107.2,191.2C104.52,191.33 98.887,193.071 99.43,196.769C99.6,197.923 100.52,199.152 101.608,200.33L101.6,200.321L101.6,201.6L102.828,201.6L104.24,203.07C104.234,203.153 104.235,203.258 104.25,203.35C104.278,203.522 104.356,203.644 104.534,203.466C104.541,203.459 104.548,203.433 104.553,203.396L104.24,203.07L104.247,203.003L104.233,202.988L103.548,202.297L103.22,201.972L103.14,201.893L102.844,201.6L102.828,201.6L102.43,201.185L102.538,201.294C102.614,201.37 102.69,201.447 102.766,201.523L103.14,201.893L103.526,202.275L103.548,202.297C103.787,202.534 104.017,202.765 104.233,202.988L104.247,203.003L104.247,203.003C104.355,203.115 104.46,203.225 104.559,203.334L104.555,203.382L104.553,203.396L105.137,204.004L105.017,203.855L105.001,203.835L104.878,203.689L104.855,203.663L104.782,203.58L104.683,203.469L104.613,203.392L104.559,203.334L104.56,203.333L104.613,203.392L104.657,203.44L104.683,203.469L104.717,203.506L104.782,203.58L104.829,203.633L104.855,203.663L104.867,203.676L104.878,203.689C104.92,203.738 104.961,203.787 105.001,203.835L105.007,203.842L105.017,203.855L105.065,203.913L105.137,204.004C107.126,206.551 109.523,209.043 111.601,211.648C111.565,211.654 111.52,211.68 111.466,211.734C111.444,211.756 111.422,211.978 111.45,212.15C111.478,212.322 111.556,212.444 111.734,212.266C111.756,212.244 111.778,212.026 111.75,211.855L111.606,211.654L111.693,211.762L111.747,211.83L111.75,211.855L112.805,213.326L112.859,213.366L112.966,213.449C113.315,213.939 113.647,214.433 113.958,214.934L112.805,213.326C112.564,213.145 112.297,212.971 112,212.8L112.8,217.6L115.031,216.856L115.041,216.875L115.227,217.243L115.337,217.467L115.457,217.709L115.57,217.942L115.684,218.178L115.802,218.425L115.906,218.642L116.311,219.496C116.387,219.655 116.462,219.813 116.538,219.971L116.634,220.171L116.667,220.241C116.597,220.246 116.544,220.256 116.534,220.266C116.356,220.444 116.478,220.522 116.65,220.55L116.824,220.564L116.94,220.8L116.8,220.8L116.8,222.4L117.77,222.4L117.781,222.419C117.894,222.624 118.009,222.827 118.128,223.028L118.135,223.041L118.171,223.101L118.234,223.207L118.266,223.261L118.292,223.303L118.322,223.352L118.367,223.426L118.418,223.507L118.452,223.562L118.477,223.601L118.503,223.643L118.55,223.716L118.594,223.785L118.617,223.82L118.641,223.857L118.691,223.932L118.739,224.005L118.761,224.037L118.782,224.069L118.834,224.146L118.887,224.224L118.907,224.252L118.925,224.278L118.982,224.359L119.039,224.44L119.056,224.463L119.071,224.484L119.134,224.57L119.194,224.653L119.208,224.671L119.219,224.687L119.293,224.783L119.353,224.864L119.363,224.876L119.371,224.887L119.462,225.003L119.517,225.072L119.521,225.077C119.627,225.21 119.736,225.34 119.847,225.468L119.848,225.469L119.897,225.524L120.009,225.651L120.016,225.659L120.077,225.724L120.177,225.833L120.189,225.845L120.255,225.913L120.349,226.011L120.357,226.019L120.366,226.027C120.414,226.076 120.463,226.125 120.513,226.173L120.525,226.185L120.532,226.191C120.584,226.242 120.637,226.292 120.691,226.341L120.704,226.354L120.719,226.368L120.732,226.38L120.761,226.405L120.795,226.437L120.812,226.452L120.827,226.465L120.854,226.489L120.887,226.519L120.906,226.535L120.922,226.549L120.95,226.573L120.981,226.599L121,226.616L121.019,226.632L121.046,226.654L121.075,226.679L121.096,226.697L121.116,226.714L121.132,226.726C121.178,226.764 121.225,226.801 121.271,226.839L121.364,226.911L121.42,226.953L121.432,226.963L121.44,226.968C121.488,227.005 121.537,227.041 121.586,227.076L121.594,227.082L121.607,227.091L121.663,227.131L121.751,227.192L121.762,227.2L120.8,227.2L121.6,230.4L122.4,230.4L122.4,227.599L122.4,227.599C122.656,227.745 122.922,227.879 123.2,228C125.887,219.615 130.933,212.157 133.263,203.71L133.259,203.725C133.366,203.809 133.479,203.901 133.6,204C134.476,201.676 132.36,201.696 130.4,201.6L130.4,202.4C130.592,202.45 130.766,202.497 130.926,202.542L129.994,202.645C129.482,202.708 128.971,202.779 128.461,202.856C127.584,202.989 126.71,203.138 125.836,203.283L124.629,203.48C124.406,202.819 124.322,202.769 123.573,202.523C123.923,202.505 124.305,202.464 124.8,202.4C123.704,201.904 123.07,201.763 121.95,201.638C122.355,201.222 122.765,200.849 123.187,200.511C124.558,200.21 125.816,199.791 127.2,199.2C126.698,199.034 126.239,198.942 125.802,198.908C126.475,198.598 127.201,198.324 128,198.067L128,198.4C128.506,198.133 128.929,197.915 129.272,197.689L129.6,197.6L129.552,197.489C129.635,197.423 129.716,197.353 129.791,197.277C129.878,197.189 129.958,197.094 130.028,196.992C130.075,196.923 130.118,196.851 130.155,196.776C130.175,196.736 130.194,196.694 130.212,196.653C130.307,196.423 130.357,196.178 130.383,195.932L130.402,195.663C130.405,195.593 130.406,195.523 130.406,195.453C130.405,195.368 130.403,195.284 130.4,195.2L129.067,196.533L128.534,195.466C128.578,195.422 128.622,194.579 128.267,194.933L128,194.4C128.516,194.226 129.029,194.041 129.536,193.844C129.836,193.726 130.135,193.605 130.431,193.478L130.877,193.284C130.913,193.317 130.977,193.338 131.05,193.35C131.222,193.378 131.444,193.356 131.466,193.334C131.635,193.165 131.534,193.086 131.376,193.055L131.379,193.053C131.752,192.877 132.122,192.693 132.486,192.499C133.084,192.18 133.669,191.836 134.237,191.465C134.696,191.164 135.143,190.845 135.576,190.508C135.997,190.18 136.404,189.835 136.796,189.473C137.126,189.167 137.445,188.85 137.752,188.521C138.056,188.196 138.349,187.861 138.63,187.515C138.913,187.167 139.185,186.809 139.445,186.443C139.708,186.074 139.959,185.697 140.2,185.314C140.855,184.271 141.434,183.182 141.971,182.074C142.219,181.564 142.458,181.05 142.692,180.534C142.928,180.012 143.159,179.488 143.388,178.964C143.657,178.347 143.924,177.729 144.192,177.112C144.458,176.5 144.725,175.89 144.998,175.281C145.299,174.608 145.607,173.937 145.925,173.271C146.087,172.931 146.251,172.593 146.418,172.257L146.705,171.685C146.516,172.467 146.434,173.336 146.4,174.4L147.2,174.4C148.071,172.257 149.153,170.388 148.818,168.116L149.32,167.415L150.536,165.766C150.688,165.558 150.838,165.35 150.986,165.139C151.094,164.985 151.2,164.83 151.304,164.673C151.383,164.554 151.461,164.433 151.538,164.312C151.594,164.222 151.65,164.132 151.704,164.041C152.01,163.533 152.284,163.003 152.492,162.446C152.523,162.364 152.552,162.281 152.58,162.198C152.619,162.081 152.655,161.963 152.688,161.844C152.736,161.669 152.777,161.493 152.809,161.315C152.863,161.027 152.895,160.734 152.907,160.441C152.916,160.193 152.91,159.944 152.89,159.696C152.87,159.445 152.834,159.194 152.787,158.946C152.726,158.632 152.644,158.321 152.547,158.017C152.443,157.692 152.321,157.374 152.186,157.061L152.059,156.78C153.304,156.368 153.171,156.488 153.6,155.2L152,155.2L152,156.654L151.756,156.17C151.779,155.956 151.757,155.485 151.499,155.703L151.206,155.211C151.204,155.207 151.197,155.203 151.2,155.2C151.205,155.194 151.214,155.196 151.221,155.194L151.487,155.109C151.613,155.068 151.737,155.026 151.861,154.982C151.98,154.939 152.097,154.895 152.213,154.847C152.391,154.773 152.566,154.691 152.733,154.595C152.803,154.555 152.872,154.512 152.939,154.467C153.003,154.424 153.065,154.378 153.126,154.33C153.19,154.28 153.253,154.226 153.313,154.17C153.452,154.042 153.58,153.903 153.701,153.758C153.801,153.638 153.897,153.513 153.989,153.387L154.4,152.8C154.398,152.794 154.387,152.8 154.38,152.8L153.284,152.808C152.957,152.813 152.629,152.82 152.302,152.826C151.772,152.836 151.243,152.846 150.714,152.849C150.103,152.853 149.492,152.849 148.881,152.826L148.318,152.8L149.6,152.8C148.602,152.252 148.362,152.201 147.2,152L147.2,152.71L147.197,152.709C146.885,152.676 146.574,152.635 146.264,152.584L145.6,152.46L145.6,152.244L146.006,152.193C146.257,152.159 146.508,152.12 146.758,152.078L147.2,152L149.6,152C148.602,151.452 148.362,151.401 147.2,151.2L147.2,151.999C147.199,151.998 147.194,151.997 147.192,151.997L146.812,151.848C146.547,151.751 146.278,151.667 146.006,151.594C145.529,151.466 145.044,151.373 144.555,151.306C144.321,151.274 144.087,151.249 143.851,151.228L143.494,151.2L144.8,151.2C143.81,150.609 143.187,150.39 142.382,150.346C142.158,149.671 142.091,149.4 141.874,149.225L144,148.8C139.086,145.698 133.748,146.315 128.33,146.856ZM100,224C101.11,226.858 102.754,227.796 105.6,228.8L105.6,228L100,224ZM192,224L193.6,228.8C195.175,226.37 194.754,224.921 192,224ZM120.266,227.734C120.244,227.756 120.222,227.978 120.25,228.15C120.278,228.322 120.356,228.444 120.534,228.266C120.578,228.222 120.622,227.378 120.266,227.734ZM186.4,224C186.76,224.85 186.935,225.27 187.232,225.568C187.53,225.865 187.951,226.041 188.8,226.4C187.918,225.234 187.566,224.882 186.4,224ZM130.4,224.8L129.6,226.4C130.61,225.623 130.714,225.845 130.4,224.8ZM133.066,225.334C133.044,225.356 133.022,225.578 133.05,225.75C133.078,225.922 133.156,226.044 133.334,225.866C133.378,225.822 133.422,224.978 133.066,225.334ZM117.6,222.4L118.4,225.6L119.2,225.6C118.749,224.198 118.465,223.566 117.6,222.4ZM132.805,223.39C132.597,223.091 132.353,222.796 132,222.4C132.163,223.237 132.206,223.641 132.387,223.934C132.568,224.226 132.887,224.408 133.6,224.8C133.38,224.358 133.21,224.032 133.034,223.742C133.843,222.863 133.895,222.898 133.6,221.6C133.206,222.192 133.005,222.432 132.904,222.704C132.838,222.883 132.814,223.075 132.805,223.39ZM106.134,223.466C105.956,223.644 106.078,223.722 106.25,223.75C106.422,223.778 106.644,223.756 106.666,223.734C107.022,223.378 106.178,223.422 106.134,223.466ZM192.534,223.466C192.356,223.644 192.478,223.722 192.65,223.75C192.822,223.778 193.044,223.756 193.066,223.734C193.422,223.378 192.578,223.422 192.534,223.466ZM134.4,220L133.6,221.6L135.2,221.6C135.2,220.118 135.44,220.52 134.4,220ZM201.6,220L201.6,221.6C202.908,221.164 202.764,221.308 203.2,220L201.6,220ZM115.2,218.4L115.2,220.8L116,220.8C115.799,219.638 115.748,219.398 115.2,218.4ZM59.467,219.734C59.444,219.756 59.422,219.978 59.45,220.15C59.478,220.322 59.556,220.444 59.733,220.266C59.778,220.222 59.822,219.378 59.467,219.734ZM189.066,219.734C189.044,219.756 189.022,219.978 189.05,220.15C189.078,220.322 189.156,220.444 189.334,220.266C189.378,220.222 189.422,219.378 189.066,219.734ZM135.466,218.934C135.444,218.956 135.422,219.178 135.45,219.35C135.478,219.522 135.556,219.644 135.734,219.466C135.778,219.422 135.822,218.578 135.466,218.934ZM145.866,217.334C145.844,217.356 145.822,217.578 145.85,217.75C145.878,217.922 145.956,218.044 146.134,217.866C146.178,217.822 146.222,216.978 145.866,217.334ZM59.467,217.334C59.444,217.356 59.422,217.578 59.45,217.75C59.478,217.922 59.556,218.044 59.733,217.866C59.778,217.822 59.822,216.978 59.467,217.334ZM141.866,216.534C141.844,216.556 141.822,216.778 141.85,216.95C141.878,217.122 141.956,217.244 142.134,217.066C142.178,217.022 142.222,216.178 141.866,216.534ZM56,216L56,216.8L58.4,216.8C57.401,216.252 57.161,216.201 56,216ZM143.734,216.266C143.556,216.444 143.678,216.522 143.85,216.55C144.022,216.578 144.244,216.556 144.266,216.534C144.622,216.178 143.778,216.222 143.734,216.266ZM92.534,215.466C92.356,215.644 92.478,215.722 92.65,215.75C92.822,215.778 93.044,215.756 93.066,215.734C93.422,215.378 92.578,215.422 92.534,215.466ZM178.934,215.466C178.756,215.644 178.878,215.722 179.05,215.75C179.222,215.778 179.444,215.756 179.466,215.734C179.822,215.378 178.978,215.422 178.934,215.466ZM176.193,215.614C176.173,215.628 176.154,215.64 176.136,215.653L176.178,215.644L176.193,215.614ZM137.866,214.934C137.844,214.956 137.822,215.178 137.85,215.35C137.878,215.522 137.956,215.644 138.134,215.466C138.178,215.422 138.222,214.578 137.866,214.934ZM185.866,214.934C185.844,214.956 185.822,215.178 185.85,215.35C185.878,215.522 185.956,215.644 186.134,215.466C186.178,215.422 186.222,214.578 185.866,214.934ZM135.466,214.934C135.444,214.956 135.422,215.178 135.45,215.35C135.478,215.522 135.556,215.644 135.734,215.466C135.778,215.422 135.822,214.578 135.466,214.934ZM136,213.6L136,215.2L137.6,215.2C137.164,213.892 137.308,214.036 136,213.6ZM92,212.8L92,214.4C93.308,213.964 93.164,214.108 93.6,212.8L92,212.8ZM178.4,212.8L178.4,214.4C179.708,213.964 179.564,214.108 180,212.8L178.4,212.8ZM97.6,212L97.6,213.6C98.908,213.164 98.764,213.308 99.2,212L97.6,212ZM63.701,210.099C63.656,210.029 63.582,210.018 63.467,210.134C63.446,210.155 63.424,210.356 63.446,210.523L61.6,213.6C63.212,212.285 64.078,211.67 64,209.6L63.701,210.099ZM148,212C148.218,212.654 148.291,212.945 148.473,213.127C148.655,213.309 148.946,213.382 149.6,213.6C149.164,212.292 149.308,212.436 148,212ZM111.747,211.83L111.774,211.865L112.278,212.516L112.321,212.572L112.947,213.424L112.966,213.449L112.967,213.45L112.947,213.424L112.754,213.155C112.668,213.038 112.582,212.921 112.496,212.804L112.321,212.572L112.299,212.543L112.278,212.516C112.113,212.298 111.945,212.081 111.774,211.865L111.746,211.83L111.747,211.83ZM184.266,212.534C184.244,212.556 184.222,212.778 184.25,212.95C184.278,213.122 184.356,213.244 184.534,213.066C184.578,213.022 184.622,212.178 184.266,212.534ZM148.8,211.2C149.018,211.854 149.091,212.145 149.273,212.327C149.455,212.509 149.746,212.582 150.4,212.8C149.964,211.492 150.108,211.636 148.8,211.2ZM138.4,210.4L137.6,212L139.2,212C139.2,210.518 139.44,210.92 138.4,210.4ZM67.968,209.441L66.4,211.6C68,208.6 69.6,205.6 69.6,205.6L67.968,209.441ZM150.4,209.6L149.6,211.2L151.2,211.2C151.2,209.718 151.44,210.12 150.4,209.6ZM146.134,210.666C145.956,210.844 146.078,210.922 146.25,210.95C146.422,210.978 146.644,210.956 146.666,210.934C147.022,210.578 146.178,210.622 146.134,210.666ZM131.466,209.334C131.444,209.356 131.422,209.578 131.45,209.75C131.478,209.922 131.556,210.044 131.734,209.866C131.778,209.822 131.822,208.978 131.466,209.334ZM146.4,208C146.836,209.308 146.692,209.164 148,209.6L148,208L146.4,208ZM60.8,208L60,209.6L61.6,209.6C61.6,208.118 61.84,208.52 60.8,208ZM106.934,209.066C106.756,209.244 106.878,209.322 107.05,209.35C107.222,209.378 107.444,209.356 107.466,209.334C107.822,208.978 106.978,209.022 106.934,209.066ZM139.466,208.534C139.444,208.556 139.422,208.778 139.45,208.95C139.478,209.122 139.556,209.244 139.734,209.066C139.778,209.022 139.822,208.178 139.466,208.534ZM64.8,206.4L64,208L65.6,208C65.6,206.518 65.84,206.92 64.8,206.4ZM148.8,205.6L148.8,206.4C150.565,206.855 150.902,207.827 152.8,208C151.426,206.528 150.747,206.121 148.8,205.6ZM162.043,205.339C161.962,205.343 161.881,205.349 161.8,205.356C161.625,205.37 161.451,205.388 161.277,205.411C160.9,205.462 160.526,205.537 160.16,205.644C159.893,205.722 159.632,205.818 159.378,205.931C159.241,205.992 159.106,206.059 158.974,206.131L158.714,206.282C158.923,206.185 159.135,206.095 159.349,206.012C159.678,205.884 160.013,205.771 160.353,205.675C160.691,205.58 161.033,205.501 161.377,205.439L162.043,205.339ZM148.8,204L148.8,205.6L150.4,205.6C149.964,204.292 150.108,204.436 148.8,204ZM63.2,203.2L63.2,205.6L64,205.6C63.799,204.438 63.748,204.198 63.2,203.2ZM105.334,205.066C105.156,205.244 105.278,205.322 105.45,205.35C105.622,205.378 105.844,205.356 105.866,205.334C106.222,204.978 105.378,205.022 105.334,205.066ZM62.667,204.534C62.644,204.556 62.622,204.778 62.65,204.95C62.678,205.122 62.756,205.244 62.933,205.066C62.978,205.022 63.022,204.178 62.667,204.534ZM150.4,201.6C150.413,202.333 150.397,202.645 150.486,202.917C150.575,203.19 150.769,203.424 151.2,204C150.999,202.838 150.948,202.598 150.4,201.6ZM158.4,202.4L157.6,204C158.61,203.223 158.714,203.445 158.4,202.4ZM64,201.6L64,204L64.8,204C64.599,202.838 64.548,202.598 64,201.6ZM161.6,202.4L161.6,203.2L164,203.2C163.002,202.652 162.762,202.601 161.6,202.4ZM126.134,202.666C125.956,202.844 126.078,202.922 126.25,202.95C126.422,202.978 126.644,202.956 126.666,202.934C127.022,202.578 126.178,202.622 126.134,202.666ZM128,201.6L128,202.4L130.4,202.4C129.402,201.852 129.162,201.801 128,201.6ZM131.2,195.2L130.4,197.6C131.813,196.817 131.964,196.622 131.2,195.2ZM96.8,194.4L96.8,196L99.2,196L99.2,194.4L96.8,194.4ZM183.2,194.4C183.636,195.708 183.492,195.564 184.8,196L184.8,194.4L183.2,194.4ZM182.666,194.934C182.644,194.956 182.622,195.178 182.65,195.35C182.678,195.522 182.756,195.644 182.934,195.466C182.978,195.422 183.022,194.578 182.666,194.934ZM96.266,194.934C96.244,194.956 96.222,195.178 96.25,195.35C96.278,195.522 96.356,195.644 96.534,195.466C96.578,195.422 96.622,194.578 96.266,194.934ZM184.534,193.866C184.356,194.044 184.478,194.122 184.65,194.15C184.822,194.178 185.044,194.156 185.066,194.134C185.422,193.778 184.578,193.822 184.534,193.866ZM98.134,193.866C97.956,194.044 98.078,194.122 98.25,194.15C98.422,194.178 98.644,194.156 98.666,194.134C99.022,193.778 98.178,193.822 98.134,193.866ZM97.6,191.2L97.6,192L100,192C99.002,191.452 98.762,191.401 97.6,191.2ZM95.2,191.726L95.2,192L97.6,192C96.759,191.539 96.456,191.43 95.688,191.287C95.777,191.098 95.858,190.826 96,190.4L94.4,190.4L94.4,192C94.765,191.878 95.017,191.802 95.2,191.726ZM183.2,190.933L181.6,190.4C182.381,191.82 182.326,191.676 183.98,191.996L184,192L186.4,192C185.418,191.461 185.17,191.403 184.054,191.209L184,191.2L183.657,191.086L186.4,190.4C185.073,190.075 184.606,190.153 183.2,190.4L183.2,190.933ZM96.8,190.4L96.8,191.2L100,190.4C98.673,190.075 98.206,190.153 96.8,190.4ZM105.066,190.134C105.044,190.156 105.022,190.378 105.05,190.55C105.078,190.722 105.156,190.844 105.334,190.666C105.378,190.622 105.422,189.778 105.066,190.134ZM101.6,189.76L101.6,190.4L104,190.4C103.815,190.299 103.656,190.214 103.513,190.143L104.8,190.4C103.369,189.262 102.635,189.042 100.8,188.8L100.8,189.6L101.6,189.76ZM187.2,188.8L187.2,188.96L186.4,188.8C186.681,189.129 186.942,189.384 187.2,189.583L187.2,189.6L187.229,189.606C188.093,190.26 188.933,190.298 190.4,190.4L190.4,190.24L191.2,190.4C190.91,190.169 190.648,189.976 190.4,189.813L190.4,189.6L189.856,189.491L189.476,189.314C189.334,189.254 189.188,189.202 189.041,189.156C188.731,189.059 188.413,188.99 188.093,188.934C187.959,188.91 187.824,188.888 187.689,188.868C187.526,188.844 187.363,188.822 187.2,188.8ZM100.534,189.866C100.356,190.044 100.478,190.122 100.65,190.15C100.822,190.178 101.044,190.156 101.066,190.134C101.422,189.778 100.578,189.822 100.534,189.866ZM102.134,188.266C101.956,188.444 102.078,188.522 102.25,188.55C102.422,188.578 102.644,188.556 102.666,188.534C103.022,188.178 102.178,188.222 102.134,188.266ZM108.8,184.8L104.8,187.2L104.8,188C106.787,187.321 108.222,186.863 108.8,184.8ZM196.8,186.4L196,188L197.6,188C197.6,186.518 197.84,186.92 196.8,186.4ZM53.684,151.404L53.765,151.61L53.845,151.82L53.846,151.825L53.879,151.914L53.923,152.034L53.925,152.04L53.957,152.133L53.998,152.252L54.001,152.259L54.033,152.354L54.072,152.472L54.075,152.481L54.107,152.578L54.144,152.696L54.148,152.707L54.178,152.805L54.215,152.924L54.218,152.935L54.248,153.036L54.283,153.154L54.287,153.168L54.316,153.269L54.35,153.388L54.354,153.403L54.382,153.505L54.415,153.625L54.419,153.642L54.446,153.745L54.478,153.865L54.483,153.883L54.509,153.988L54.539,154.107L54.544,154.128L54.57,154.234L54.599,154.353L54.604,154.376L54.629,154.484L54.657,154.602L54.662,154.626L54.687,154.737L54.713,154.853C54.908,154.172 55.212,153.621 55.68,153.287C55.628,153.241 55.629,153.171 55.733,153.066C55.755,153.044 55.972,153.023 56.143,153.049C56.536,152.913 57.016,152.893 57.6,153.017L57.6,152.416C56.587,152.416 55.574,152.544 54.4,152.8C56.15,150.798 58.902,150.758 60.692,152.68C60.728,152.667 60.764,152.655 60.8,152.643L60.8,151.2L61.388,151.305C61.596,151.346 61.804,151.391 62.007,151.453C62.122,151.488 62.236,151.529 62.347,151.575L62.769,151.771C63.411,151.749 64.039,151.807 64.8,152C63.932,152.271 63.202,152.455 62.431,152.589L62.712,152.681L63.048,152.834C63.342,152.989 63.612,153.187 63.858,153.411L64,153.546L64,152.8C65.571,152.87 66.585,152.977 68,153.6L64.054,153.6L64.055,153.601C64.226,153.775 64.384,153.961 64.532,154.155C64.645,154.303 64.751,154.455 64.852,154.611C64.964,154.785 65.069,154.963 65.167,155.145C65.283,155.358 65.389,155.575 65.488,155.795L65.6,156.056L65.6,155.2L67.2,155.2C66.794,156.419 66.891,156.377 65.848,156.718L65.945,157.018C66.027,157.286 66.099,157.556 66.161,157.829C66.219,158.087 66.268,158.348 66.307,158.609C66.345,158.866 66.374,159.124 66.39,159.383C66.408,159.652 66.413,159.921 66.402,160.191L66.402,160.195C66.621,159.619 66.883,159.038 67.2,158.4L68.8,158.4L66.4,163.2L65.883,163.2L65.881,163.21C65.568,164.529 65.17,165.828 64.715,167.105C64.484,167.754 64.238,168.399 63.981,169.038C63.709,169.712 63.424,170.381 63.129,171.045C62.831,171.715 62.522,172.381 62.205,173.043C61.871,173.743 61.527,174.438 61.176,175.13C60.238,176.982 59.252,178.809 58.263,180.634L58.229,180.698C58.285,180.94 58.334,181.221 58.4,181.6L57.74,181.6L56.453,183.992C56.028,184.791 55.609,185.593 55.2,186.4L55.002,182.053C54.801,184.27 54.588,186.291 54.4,188L53.6,188L53.6,151.2C53.628,151.267 53.656,151.335 53.684,151.404ZM192,186.4L191.2,188L192.8,188C192.8,186.518 193.04,186.92 192,186.4ZM193.933,186.079C193.751,185.893 193.461,185.82 192.8,185.6C193.018,186.254 193.091,186.545 193.273,186.727C193.455,186.909 193.746,186.982 194.4,187.2C194.257,186.77 194.176,186.497 194.086,186.309C194.607,186.212 194.904,186.155 195.134,186.013C195.427,185.832 195.608,185.513 196,184.8C194.894,185.279 194.635,185.413 193.933,186.079ZM142.4,182.4C141.562,183.885 141.19,184.755 140.8,186.4L141.6,186.4C142.246,184.834 142.615,184.018 142.4,182.4ZM196.266,185.334C196.244,185.356 196.222,185.578 196.25,185.75C196.278,185.922 196.356,186.044 196.534,185.866C196.578,185.822 196.622,184.978 196.266,185.334ZM109.866,185.334C109.844,185.356 109.822,185.578 109.85,185.75C109.878,185.922 109.956,186.044 110.134,185.866C110.178,185.822 110.222,184.978 109.866,185.334ZM114.134,184.266C113.956,184.444 114.078,184.522 114.25,184.55C114.422,184.578 114.644,184.556 114.666,184.534C115.022,184.178 114.178,184.222 114.134,184.266ZM198.934,184.266C198.756,184.444 198.878,184.522 199.05,184.55C199.222,184.578 199.444,184.556 199.466,184.534C199.822,184.178 198.978,184.222 198.934,184.266ZM197.866,183.734C197.844,183.756 197.822,183.978 197.85,184.15C197.878,184.322 197.956,184.444 198.134,184.266C198.178,184.222 198.222,183.378 197.866,183.734ZM202.069,182.875C202.102,182.914 202.171,182.937 202.25,182.95C202.422,182.978 202.644,182.956 202.666,182.934C202.828,182.772 202.742,182.693 202.596,182.659C202.795,182.576 202.996,182.49 203.2,182.4C201.304,181.929 200.234,182.436 198.4,183.2L198.4,184C199.727,183.717 200.873,183.351 202.069,182.875ZM190.047,182.816L188.8,182.4C189.584,183.826 189.526,183.675 191.2,184L191.2,183.2L190.486,182.962C190.579,182.959 190.654,182.946 190.666,182.934C191.022,182.578 190.178,182.622 190.134,182.666C190.073,182.727 190.047,182.776 190.047,182.816ZM201.334,183.466C201.156,183.644 201.278,183.722 201.45,183.75C201.622,183.778 201.844,183.756 201.866,183.734C202.222,183.378 201.378,183.422 201.334,183.466ZM143.466,182.934C143.444,182.956 143.422,183.178 143.45,183.35C143.478,183.522 143.556,183.644 143.734,183.466C143.778,183.422 143.822,182.578 143.466,182.934ZM204,181.6L203.2,183.2C204.21,182.423 204.314,182.645 204,181.6ZM103.734,182.666C103.556,182.844 103.678,182.922 103.85,182.95C104.022,182.978 104.244,182.956 104.266,182.934C104.622,182.578 103.778,182.622 103.734,182.666ZM116,180.8C116.489,181.278 116.773,181.541 117.093,181.753C117.412,181.966 117.768,182.127 118.4,182.4C117.422,181.444 117.264,181.347 116,180.8ZM143.4,181.6L143.2,182.4L144,182.4C144.189,181.615 144.304,181.175 144.312,180.743C144.942,179.167 145.795,177.613 145.6,176C143.982,177.857 143.469,179.152 143.2,181.6L143.4,181.6ZM206.4,181.6L206.4,182.4C208.098,182.154 208.549,182.094 209.6,180.8L206.4,181.6ZM205.334,181.866C205.156,182.044 205.278,182.122 205.45,182.15C205.622,182.178 205.844,182.156 205.866,182.134C206.222,181.778 205.378,181.822 205.334,181.866ZM118.934,181.866C118.756,182.044 118.878,182.122 119.05,182.15C119.222,182.178 119.444,182.156 119.466,182.134C119.822,181.778 118.978,181.822 118.934,181.866ZM163.2,180L163.2,181.6C164.508,181.164 164.364,181.308 164.8,180L163.2,180ZM76.8,180L76.8,181.6L78.4,181.6C77.964,180.292 78.108,180.436 76.8,180ZM111.466,178.934C111.444,178.956 111.422,179.178 111.45,179.35C111.478,179.522 111.556,179.644 111.734,179.466C111.778,179.422 111.822,178.578 111.466,178.934ZM197.866,178.934C197.844,178.956 197.822,179.178 197.85,179.35C197.878,179.522 197.956,179.644 198.134,179.466C198.178,179.422 198.222,178.578 197.866,178.934ZM200.367,177.79C199.482,178.186 199.253,178.366 198.4,179.2C199.032,178.926 199.387,178.766 199.707,178.553C199.947,178.394 200.166,178.207 200.467,177.921C200.469,177.923 200.471,177.925 200.473,177.927C200.655,178.109 200.946,178.182 201.6,178.4C201.164,177.092 201.308,177.236 200,176.8C200.17,177.311 200.252,177.601 200.367,177.79ZM168.8,177.6L168,179.2L169.6,179.2C169.6,177.718 169.84,178.12 168.8,177.6ZM112,179.2C112.632,178.926 112.988,178.766 113.307,178.553C113.627,178.341 113.911,178.078 114.4,177.6C113.136,178.147 112.978,178.244 112,179.2ZM88,168.799C87.467,168.797 86.933,168.796 86.4,168.8C86.391,168.8 86.399,168.818 86.398,168.826L86.343,169.485C85.83,168.463 85.583,168.079 84.8,167.2C84.088,168.596 83.638,169.7 83.2,171.2L85.6,170L85.6,171.2C85.86,171.113 86.062,171.05 86.223,170.993C86.165,171.865 86.139,172.716 86.198,173.6L84.8,173.6C84.429,174.712 84.478,174.775 83.696,175.037C82.938,174.639 82.634,174.579 81.6,174.4L81.6,175.2L83.2,175.2C83.041,176.886 82.835,177.234 81.6,178.4L81.6,179.2C84.646,178.47 87.393,177.07 90.181,175.735C90.203,175.741 90.226,175.746 90.25,175.75C90.422,175.778 90.644,175.756 90.666,175.734C90.775,175.625 90.772,175.554 90.714,175.509L94.073,174.08C94.057,174.063 94.047,174.044 94.046,174.021L94.111,173.996C94.183,173.969 94.255,173.941 94.328,173.914L94.512,173.845L94.512,173.845L94.524,173.84C94.623,173.804 94.723,173.767 94.824,173.732L94.855,173.72L94.892,173.707C94.994,173.671 95.097,173.635 95.2,173.6L95.096,173.576C94.576,173.463 94.059,173.424 93.544,173.431L93.548,173.43C94.338,173.218 95.124,172.993 95.904,172.748C96.488,172.564 97.069,172.368 97.644,172.157C98.069,172.001 98.491,171.836 98.909,171.661C99.231,171.527 99.55,171.386 99.867,171.239C100.106,171.127 100.344,171.012 100.579,170.892C100.755,170.802 100.93,170.71 101.104,170.616C101.237,170.543 101.37,170.469 101.502,170.393C102.384,169.885 103.227,169.305 103.995,168.634C104.113,168.53 104.23,168.424 104.345,168.316C104.496,168.174 104.644,168.029 104.787,167.879C104.981,167.677 105.167,167.469 105.346,167.254C105.594,166.955 105.826,166.644 106.041,166.32C106.235,166.029 106.414,165.727 106.578,165.418L106.885,164.788L105.6,168L107.66,166.764C107.609,166.874 107.714,166.928 107.85,166.95C108.022,166.978 108.244,166.956 108.266,166.934C108.541,166.659 108.101,166.623 107.866,166.641L109.6,165.6L109.6,164C109.422,163.909 109.245,163.82 109.068,163.732L109.126,163.661C109.136,163.646 109.144,163.631 109.149,163.614C109.151,163.604 109.153,163.594 109.153,163.584C109.153,163.577 109.153,163.57 109.151,163.563C109.15,163.559 109.149,163.554 109.147,163.55C109.137,163.526 109.115,163.508 109.093,163.495L109.047,163.474L108.942,163.449L108.713,163.438L108.584,163.45C108.572,163.452 108.561,163.455 108.55,163.458C108.546,163.459 108.543,163.461 108.54,163.462L108.534,163.466C107.649,163.032 106.775,162.629 105.872,162.268L106.4,162.4L106.4,161.6L103.2,160.8L103.2,161.6L104,161.8L104,162.108L103.994,162.105C103.6,161.911 103.199,161.729 102.793,161.561C102.473,161.429 102.149,161.307 101.822,161.194C101.572,161.109 101.321,161.029 101.067,160.957C100.872,160.901 100.675,160.85 100.478,160.803C100.33,160.767 100.18,160.734 100.031,160.704C99.918,160.682 99.804,160.66 99.691,160.641C98.927,160.51 98.148,160.455 97.374,160.505C97.253,160.513 97.133,160.524 97.012,160.537C96.856,160.554 96.7,160.576 96.544,160.602C96.335,160.638 96.128,160.682 95.923,160.735C95.641,160.808 95.364,160.898 95.093,161.005C94.895,161.083 94.699,161.171 94.509,161.267C94.316,161.365 94.128,161.471 93.945,161.587C93.636,161.782 93.342,162.001 93.066,162.24C92.93,162.358 92.799,162.48 92.672,162.607L92.468,162.818C92.885,161.886 93.253,160.934 93.6,160L92,160C90.45,162.918 88.744,165.561 88,168.799ZM122.134,178.666C121.956,178.844 122.078,178.922 122.25,178.95C122.422,178.978 122.644,178.956 122.666,178.934C123.022,178.578 122.178,178.622 122.134,178.666ZM208,176C207.606,176.592 207.406,176.832 207.304,177.104C207.203,177.377 207.2,177.681 207.2,178.4C208.231,177.246 208.321,177.413 208,176ZM80,177.074C79.817,176.998 79.565,176.922 79.2,176.8L79.2,178.4L80.8,178.4C80.641,177.923 80.559,177.639 80.456,177.45C81.28,177.176 81.223,177.131 81.6,176L80,176L80,177.074ZM122.4,176C122.674,176.632 122.834,176.988 123.047,177.307C123.259,177.627 123.522,177.911 124,178.4C123.453,177.136 123.356,176.978 122.4,176ZM208.8,176L208,178.4C209.413,177.617 209.564,177.422 208.8,176ZM122.134,177.866C121.956,178.044 122.078,178.122 122.25,178.15C122.422,178.178 122.644,178.156 122.666,178.134C123.022,177.778 122.178,177.822 122.134,177.866ZM170.134,177.866C169.956,178.044 170.078,178.122 170.25,178.15C170.422,178.178 170.644,178.156 170.666,178.134C171.022,177.778 170.178,177.822 170.134,177.866ZM165.866,177.334C165.844,177.356 165.822,177.578 165.85,177.75C165.878,177.922 165.956,178.044 166.134,177.866C166.178,177.822 166.222,176.978 165.866,177.334ZM165.066,177.334C165.044,177.356 165.022,177.578 165.05,177.75C165.078,177.922 165.156,178.044 165.334,177.866C165.378,177.822 165.422,176.978 165.066,177.334ZM209.866,177.334C209.844,177.356 209.822,177.578 209.85,177.75C209.878,177.922 209.956,178.044 210.134,177.866C210.178,177.822 210.222,176.978 209.866,177.334ZM169.6,176.8L169.6,177.6C170.949,177.774 171.453,177.779 172.8,177.6C171.595,177.054 170.948,176.939 169.6,176.8ZM121.6,176L120.8,177.6L122.4,177.6C122.4,176.118 122.64,176.52 121.6,176ZM166.666,176.534C166.644,176.556 166.622,176.778 166.65,176.95C166.678,177.122 166.756,177.244 166.934,177.066C166.978,177.022 167.022,176.178 166.666,176.534ZM187.193,169.51L187.999,168.882C182.012,171.061 176.784,176.45 170.4,176.8C170.938,174.34 171.529,172.671 173.6,171.2L173.33,170.391C173.134,170.873 172.949,170.884 172,171.2L172,170L169.6,171.2C170.486,168.422 171.838,166.318 173.6,164L173.193,166.85C173.41,166.798 173.372,167.428 173.334,167.466C173.218,167.582 173.145,167.571 173.1,167.501L173.081,167.631C173.222,167.748 173.299,167.908 173.401,168.199L174.104,167.478C174.36,167.212 174.614,166.944 174.868,166.676C175.1,166.429 175.332,166.182 175.564,165.935C175.778,165.708 175.992,165.481 176.208,165.255C176.39,165.065 176.573,164.875 176.759,164.688C176.94,164.506 177.123,164.325 177.309,164.149C177.715,163.765 178.138,163.398 178.592,163.071C178.775,162.939 178.963,162.814 179.156,162.697C179.348,162.58 179.546,162.471 179.749,162.371C179.901,162.296 180.056,162.226 180.213,162.161C180.374,162.094 180.538,162.032 180.704,161.976C181.188,161.811 181.687,161.691 182.19,161.602C182.727,161.508 183.27,161.448 183.814,161.409L183.821,161.409C183.591,161.406 183.361,161.406 183.131,161.409C181.335,161.434 179.561,161.655 177.6,162.4C179.396,159.63 182.971,159.561 186.086,160.49L186.083,160.489C186.028,160.443 186.027,160.373 186.134,160.266C186.178,160.222 187.022,160.178 186.666,160.534C186.646,160.554 186.467,160.573 186.306,160.557L186.313,160.56C186.396,160.586 186.479,160.613 186.561,160.64L186.583,160.648L186.614,160.658L186.698,160.687L186.83,160.734L186.857,160.743L186.866,160.746C186.946,160.775 187.025,160.804 187.104,160.834L187.128,160.843L187.167,160.859L187.252,160.891L187.356,160.933L187.397,160.949L187.415,160.956C187.491,160.987 187.567,161.018 187.642,161.05L187.664,161.059L187.702,161.076L187.789,161.113L187.899,161.162L187.93,161.175L187.942,161.181C188.02,161.216 188.098,161.251 188.175,161.288L188.192,161.296L188.219,161.308L188.306,161.35L188.43,161.411L188.458,161.424C188.834,161.446 189.219,161.477 189.6,161.527L189.6,160.8C190.762,161.001 191.002,161.052 192,161.6L190.075,161.6C191.82,161.91 193.363,162.697 193.363,164.839C193.363,167.435 190.901,167.985 188.845,168.606L187.193,169.51L184,172C180.4,173.6 176.8,175.2 176.8,175.2L187.193,169.51ZM115.734,176.266C115.556,176.444 115.678,176.522 115.85,176.55C116.022,176.578 116.244,176.556 116.266,176.534C116.622,176.178 115.778,176.222 115.734,176.266ZM202.134,176.266C201.956,176.444 202.078,176.522 202.25,176.55C202.422,176.578 202.644,176.556 202.666,176.534C203.022,176.178 202.178,176.222 202.134,176.266ZM146.666,175.734C146.644,175.756 146.622,175.978 146.65,176.15C146.678,176.322 146.756,176.444 146.934,176.266C146.978,176.222 147.022,175.378 146.666,175.734ZM169.866,175.734C169.844,175.756 169.822,175.978 169.85,176.15C169.878,176.322 169.956,176.444 170.134,176.266C170.178,176.222 170.222,175.378 169.866,175.734ZM125.6,174.4L124.8,176C125.81,175.223 125.914,175.445 125.6,174.4ZM176.534,175.466C176.356,175.644 176.478,175.722 176.65,175.75C176.822,175.778 177.044,175.756 177.066,175.734C177.422,175.378 176.578,175.422 176.534,175.466ZM166.934,175.466C166.756,175.644 166.878,175.722 167.05,175.75C167.222,175.778 167.444,175.756 167.466,175.734C167.822,175.378 166.978,175.422 166.934,175.466ZM80.534,175.466C80.356,175.644 80.478,175.722 80.65,175.75C80.822,175.778 81.044,175.756 81.066,175.734C81.422,175.378 80.578,175.422 80.534,175.466ZM94.046,174.021L94.046,174.021L94.012,174.035C93.894,174.081 93.777,174.127 93.66,174.174L93.467,174.252L93.371,174.292L93.275,174.332L93.148,174.385L93.041,174.429L92.968,174.461L92.893,174.493L92.732,174.562L92.618,174.611L92.566,174.634L92.512,174.657L92.372,174.72L92.196,174.797L92.119,174.832L92.058,174.859L91.933,174.916L91.776,174.987L91.676,175.033L91.606,175.064L91.498,175.115L91.358,175.179L91.234,175.237L91.156,175.273L91.059,175.319L90.941,175.374L90.803,175.44L90.707,175.485L90.69,175.493L90.69,175.493L90.525,175.571L90.183,175.734L90.714,175.509L90.704,175.501L90.69,175.493L90.803,175.44L91.059,175.319L91.234,175.237L91.498,175.115L91.676,175.033L91.933,174.916L92.119,174.832L92.372,174.72L92.566,174.634L92.732,174.562L92.968,174.461L93.148,174.385L93.371,174.292L93.653,174.177L93.66,174.174L94.012,174.035L94.046,174.021ZM117.866,174.934C117.844,174.956 117.822,175.178 117.85,175.35C117.878,175.522 117.956,175.644 118.134,175.466C118.178,175.422 118.222,174.578 117.866,174.934ZM204.266,174.934C204.244,174.956 204.222,175.178 204.25,175.35C204.278,175.522 204.356,175.644 204.534,175.466C204.578,175.422 204.622,174.578 204.266,174.934ZM119.2,175.2C119.901,174.668 120.435,174.219 120.927,173.727C121.418,173.235 121.868,172.701 122.4,172C120.601,172.923 120.123,173.401 119.2,175.2ZM168.8,173.6L168.8,175.2L170.4,175.2C169.964,173.892 170.108,174.036 168.8,173.6ZM126.666,174.134C126.644,174.156 126.622,174.378 126.65,174.55C126.678,174.722 126.756,174.844 126.934,174.666C126.978,174.622 127.022,173.778 126.666,174.134ZM180.534,173.866C180.356,174.044 180.478,174.122 180.65,174.15C180.822,174.178 181.044,174.156 181.066,174.134C181.422,173.778 180.578,173.822 180.534,173.866ZM94.593,173.858L95.2,173.6L94.892,173.707L94.824,173.732L94.524,173.84L94.512,173.845L94.547,173.85C94.559,173.852 94.57,173.854 94.581,173.856L94.593,173.858L94.073,174.08C94.108,174.116 94.174,174.138 94.25,174.15C94.422,174.178 94.644,174.156 94.666,174.134C94.829,173.971 94.741,173.892 94.593,173.858ZM127.466,173.334C127.444,173.356 127.422,173.578 127.45,173.75C127.478,173.922 127.556,174.044 127.734,173.866C127.778,173.822 127.822,172.978 127.466,173.334ZM130.4,170.4C129.761,170.993 129.339,171.405 128.989,171.863C128.637,172.321 128.357,172.825 128,173.6C129.405,172.498 130.032,172.085 130.4,170.4ZM82.4,171.2L82.4,172.8C83.708,172.364 83.564,172.508 84,171.2L82.4,171.2ZM168.8,171.2L168.8,172.8C170.108,172.364 169.964,172.508 170.4,171.2L168.8,171.2ZM131.362,169.95C131.172,169.844 130.887,169.762 130.4,169.6C130.618,170.254 130.691,170.545 130.873,170.727C131.055,170.909 131.346,170.982 132,171.2C131.796,170.589 131.719,170.295 131.562,170.11C132.482,169.385 132.662,169.291 132.8,168C132.326,168.475 132.02,168.791 131.786,169.131C131.62,169.371 131.49,169.623 131.362,169.95ZM172.8,169.6L173.067,169.6L172.88,169.04L172.8,169.6ZM149.866,168.534C149.844,168.556 149.822,168.778 149.85,168.95C149.878,169.122 149.956,169.244 150.134,169.066C150.178,169.022 150.222,168.178 149.866,168.534ZM88.002,168.799C88.535,168.8 89.067,168.802 89.6,168.8C89.605,168.8 89.602,168.79 89.604,168.785L89.727,168.287C89.831,167.888 89.947,167.493 90.077,167.102L90.23,166.661C89.591,167.472 88.859,168.199 88.002,168.799ZM85.866,167.734C85.844,167.756 85.822,167.978 85.85,168.15C85.878,168.322 85.956,168.444 86.134,168.266C86.178,168.222 86.222,167.378 85.866,167.734ZM87.466,167.734C87.444,167.756 87.422,167.978 87.45,168.15C87.478,168.322 87.556,168.444 87.734,168.266C87.778,168.222 87.822,167.378 87.466,167.734ZM133.866,166.934C133.844,166.956 133.822,167.178 133.85,167.35C133.878,167.522 133.956,167.644 134.134,167.466C134.178,167.422 134.222,166.578 133.866,166.934ZM134.666,166.934C134.644,166.956 134.622,167.178 134.65,167.35C134.678,167.522 134.756,167.644 134.934,167.466C134.978,167.422 135.022,166.578 134.666,166.934ZM87.2,164L85.6,167.2L86.4,167.2C87.039,165.81 87.242,165.445 87.2,164ZM86.934,166.666C86.756,166.844 86.878,166.922 87.05,166.95C87.222,166.978 87.444,166.956 87.466,166.934C87.822,166.578 86.978,166.622 86.934,166.666ZM194.134,166.666C193.956,166.844 194.078,166.922 194.25,166.95C194.422,166.978 194.644,166.956 194.666,166.934C195.022,166.578 194.178,166.622 194.134,166.666ZM194.847,163.616L193.6,163.2L193.6,166.4C195.038,166.4 194.817,166.389 196,165.6L196,164L195.286,163.762C195.379,163.759 195.454,163.746 195.466,163.734C195.822,163.378 194.978,163.422 194.934,163.466C194.873,163.527 194.847,163.576 194.847,163.616ZM109.866,164.534C109.844,164.556 109.822,164.778 109.85,164.95C109.878,165.122 109.956,165.244 110.134,165.066C110.178,165.022 110.222,164.178 109.866,164.534ZM173.6,160.8L173.6,162.4C174.908,161.964 174.764,162.108 175.2,160.8L173.6,160.8ZM87.2,160.8L87.2,162.4C88.508,161.964 88.364,162.108 88.8,160.8L87.2,160.8ZM88.8,159.2L88,160.8C89.01,160.023 89.114,160.245 88.8,159.2ZM100.534,160.266C100.356,160.444 100.478,160.522 100.65,160.55C100.822,160.578 101.044,160.556 101.066,160.534C101.422,160.178 100.578,160.222 100.534,160.266ZM178.4,159.2L178.4,160L180.8,160C179.802,159.452 179.562,159.401 178.4,159.2ZM154.423,156.85L154.4,156.8L154.4,156.879C154.101,157.266 153.935,157.625 153.6,158.4L154.4,158.4L154.4,160L155.2,160C155.092,158.955 154.999,158.331 154.708,157.541C155.031,156.745 155.2,156.805 155.2,158.4L156,158.4C155.799,157.238 155.748,156.998 155.2,156C154.844,156.364 154.608,156.614 154.423,156.85ZM182.934,159.466C182.756,159.644 182.878,159.722 183.05,159.75C183.222,159.778 183.444,159.756 183.466,159.734C183.822,159.378 182.978,159.422 182.934,159.466ZM96.534,159.466C96.356,159.644 96.478,159.722 96.65,159.75C96.822,159.778 97.044,159.756 97.066,159.734C97.422,159.378 96.578,159.422 96.534,159.466ZM93.334,159.466C93.156,159.644 93.278,159.722 93.45,159.75C93.622,159.778 93.844,159.756 93.866,159.734C94.222,159.378 93.378,159.422 93.334,159.466ZM181.334,159.466C181.156,159.644 181.278,159.722 181.45,159.75C181.622,159.778 181.844,159.756 181.866,159.734C182.222,159.378 181.378,159.422 181.334,159.466ZM94.934,159.466C94.756,159.644 94.878,159.722 95.05,159.75C95.222,159.778 95.444,159.756 95.466,159.734C95.822,159.378 94.978,159.422 94.934,159.466ZM153.866,158.934C153.844,158.956 153.822,159.178 153.85,159.35C153.878,159.522 153.956,159.644 154.134,159.466C154.178,159.422 154.222,158.578 153.866,158.934ZM153.066,157.334C153.044,157.356 153.022,157.578 153.05,157.75C153.078,157.922 153.156,158.044 153.334,157.866C153.378,157.822 153.422,156.978 153.066,157.334ZM66.4,156.8L66.4,157.6C68.166,157.962 68.441,158.117 69.6,156.8L66.4,156.8ZM132.8,156L132.8,157.6L134.4,157.6C133.964,156.292 134.108,156.436 132.8,156ZM65.6,155.2L68.8,154.4C67.163,153.799 66.723,153.875 65.6,155.2ZM154.934,154.666C154.756,154.844 154.878,154.922 155.05,154.95C155.222,154.978 155.444,154.956 155.466,154.934C155.822,154.578 154.978,154.622 154.934,154.666ZM154.134,153.866C153.956,154.044 154.078,154.122 154.25,154.15C154.422,154.178 154.644,154.156 154.666,154.134C155.022,153.778 154.178,153.822 154.134,153.866ZM59.2,152.519L59.2,153.6C59.658,153.203 60.103,152.922 60.532,152.743C60.067,152.648 59.627,152.573 59.2,152.519ZM129.066,152.534C129.044,152.556 129.022,152.778 129.05,152.95C129.078,153.122 129.156,153.244 129.334,153.066C129.378,153.022 129.422,152.178 129.066,152.534ZM149.6,151.2L149.6,152.8C150.908,152.364 150.764,152.508 151.2,151.2L149.6,151.2ZM55.326,148.696C55.389,148.654 55.455,148.615 55.523,148.581C55.604,148.541 55.688,148.509 55.775,148.486C55.84,148.469 55.906,148.456 55.973,148.449C56.041,148.441 56.11,148.438 56.179,148.44C56.258,148.442 56.337,148.449 56.416,148.46C56.499,148.471 56.582,148.487 56.664,148.506C56.815,148.54 56.964,148.583 57.112,148.63C57.276,148.683 57.438,148.741 57.6,148.8L55.747,149.263L56,149.6L56,150.4C53.557,149.877 53.651,148.794 53.6,146.4L55.323,148.698L55.326,148.696ZM209.334,148.266C209.156,148.444 209.278,148.522 209.45,148.55C209.622,148.578 209.844,148.556 209.866,148.534C210.222,148.178 209.378,148.222 209.334,148.266ZM142.4,145.6L142.4,146L140.8,145.6L140.8,146.4C142.378,148.326 143.985,148.246 146.4,148L146.4,147.2C145.83,147.174 145.278,147.135 144.734,147.08L144.577,146.799C144.531,146.717 144.483,146.636 144.434,146.556C144.382,146.472 144.328,146.388 144.269,146.309C144.207,146.226 144.139,146.148 144.061,146.08C144.008,146.035 143.95,145.994 143.888,145.961C143.819,145.922 143.746,145.892 143.671,145.867C143.61,145.847 143.547,145.829 143.485,145.813L143.054,145.723L142.4,145.6ZM58.4,147.086L58.4,145.6L53.6,145.6L53.6,146.4L54.531,146.555C56.067,148.321 57.652,148.239 60,148L60,147.2C59.453,147.175 58.922,147.138 58.4,147.086ZM53.6,140.8L54.4,140.8L55.111,140.736C55.348,140.714 55.584,140.691 55.821,140.667C56.41,140.609 56.999,140.546 57.588,140.482L57.6,140.48L57.6,140.8L60,140.8C59.576,140.567 59.288,140.424 59.009,140.321L59.018,140.32C59.917,140.216 60.817,140.109 61.716,140.005L61.756,140L62.4,140C62.361,139.979 62.324,139.958 62.287,139.939C62.858,139.873 63.429,139.809 64,139.748L64,140L66.4,140C66.059,139.813 65.806,139.684 65.575,139.587L67.043,139.455C67.774,139.395 68.505,139.344 69.238,139.303C69.943,139.264 70.649,139.235 71.355,139.218C71.837,139.206 72.318,139.2 72.8,139.2L72.801,138.889C73.199,138.873 73.597,138.853 73.995,138.83C74.196,138.818 74.398,138.805 74.599,138.79L75.2,138.744L75.2,139.2L77.6,139.2C77.045,138.895 76.724,138.744 76.349,138.636L77.135,138.55L78.183,138.424L79.2,138.467L79.2,139.2L82.4,139.2C81.486,138.786 80.893,138.62 80.072,138.503L82.4,138.6L82.4,139.2L89.6,139.2C89.28,139.066 88.96,138.954 88.637,138.86L89.6,138.9L89.6,139.2L92,139.2C91.849,139.117 91.715,139.045 91.593,138.983L96.8,139.2C96.616,139.102 96.43,139.009 96.241,138.921C96.044,138.829 95.845,138.742 95.643,138.659L96.401,138.864C97.315,139.118 98.223,139.39 99.129,139.673C100.28,140.032 101.425,140.407 102.569,140.787L102.608,140.8L101.6,140.8L101.6,143.2C102.511,142.268 102.642,142.081 103.125,140.972L103.2,140.997L103.2,141.6L105.011,141.6L105.061,141.617C106.302,142.028 107.546,142.435 108.796,142.82L108.8,142.822L108.8,143.2L110.055,143.2L110.06,143.202C111.149,143.521 112.244,143.821 113.348,144.086C114.289,144.312 115.236,144.512 116.189,144.676C116.73,144.769 117.274,144.85 117.819,144.917L118.451,144.987C118.498,144.991 118.544,144.995 118.59,144.998C118.752,145.007 118.915,145.008 119.077,145.001C119.231,144.993 119.385,144.979 119.538,144.957C119.69,144.936 119.84,144.907 119.99,144.873C120.263,144.811 120.532,144.73 120.796,144.636L120.8,144.634L120.8,144.8C122.439,144.637 124.019,144.3 125.6,143.977L125.6,144L128.8,144C128.386,143.813 128.039,143.676 127.706,143.572C128.849,143.375 130.006,143.228 131.2,143.2C129.314,142.408 127.503,142.325 125.702,142.605L125.713,142.603C126.757,142.4 127.799,142.185 128.839,141.964C129.662,141.789 130.484,141.61 131.307,141.43C132.584,141.151 133.862,140.869 135.14,140.595C135.954,140.42 136.769,140.248 137.585,140.081L137.6,140.8C137.96,140.799 138.32,140.795 138.68,140.788C139.368,140.775 140.055,140.751 140.741,140.718C141.451,140.685 142.159,140.643 142.867,140.593L144,140.509L144,140.8L146.4,140.8C146.049,140.607 145.791,140.476 145.554,140.378L146.808,140.262C148.005,140.148 149.201,140.027 150.398,139.908L150.4,139.908L150.4,140L161.6,140C160.715,139.629 159.774,139.398 158.802,139.258L158.822,139.257C159.462,139.232 160.103,139.214 160.743,139.206L161.576,139.2C161.584,139.2 161.592,139.203 161.6,139.2C161.604,139.199 161.593,139.197 161.589,139.195L161.362,139.103C161.204,139.04 161.044,138.979 160.884,138.922C160.404,138.751 159.916,138.604 159.421,138.482C158.606,138.281 157.776,138.144 156.941,138.059C156.47,138.011 155.997,137.98 155.524,137.963C155.3,137.955 155.075,137.95 154.85,137.948L154.848,137.948C158.06,137.72 161.274,137.527 164.491,137.414C165.707,137.372 166.923,137.34 168.139,137.323C169.302,137.307 170.465,137.303 171.628,137.316C172.047,137.32 172.466,137.327 172.884,137.336L171.242,137.417C170.633,137.449 170.024,137.481 169.415,137.511C168.924,137.534 168.432,137.556 167.941,137.572C167.427,137.589 166.914,137.6 166.4,137.6L166.4,138.392L166.251,138.395L166.057,138.397L165.959,138.398L165.6,138.4L165.6,139.2L174.4,139.2C173.728,138.918 173.034,138.726 172.327,138.597L172.345,138.598C172.732,138.623 173.119,138.65 173.505,138.68L174.4,138.753L174.4,139.2L177.6,139.2C177.462,139.138 177.332,139.081 177.206,139.029L178.519,139.182C179.36,139.284 180.201,139.396 181.04,139.515C182.056,139.658 183.071,139.813 184.084,139.977L185.667,140.24C185.514,140.229 185.353,140.247 185.334,140.266C185.156,140.444 185.278,140.522 185.45,140.55C185.622,140.578 185.844,140.556 185.866,140.534C186.014,140.386 185.954,140.307 185.831,140.268L185.87,140.275C186.526,140.388 187.182,140.504 187.836,140.623L188.756,140.792C188.771,140.795 188.785,140.8 188.8,140.8C188.803,140.8 188.795,140.795 188.793,140.792L188.447,140.458C188.203,140.235 187.947,140.027 187.68,139.832C187.23,139.504 186.75,139.217 186.252,138.968C185.994,138.839 185.731,138.719 185.464,138.609C185.333,138.555 185.202,138.504 185.07,138.454L186.038,138.631C186.614,138.738 187.189,138.85 187.763,138.963C188.919,139.191 190.074,139.424 191.232,139.645C192.161,139.822 193.093,139.99 194.027,140.14C194.674,140.244 195.322,140.338 195.971,140.422C196.618,140.504 197.265,140.576 197.914,140.633C198.622,140.696 199.332,140.742 200.042,140.769C200.379,140.783 200.716,140.792 201.054,140.796L201.6,140.8L192,140.8L192,141.6C192.734,141.638 193.446,141.731 194.144,141.86C194.139,141.862 194.136,141.864 194.134,141.866C193.956,142.044 194.078,142.122 194.25,142.15C194.422,142.178 194.644,142.156 194.666,142.134C194.728,142.072 194.753,142.023 194.753,141.983L195.2,142.084L195.2,143.2C196.126,142.891 196.324,142.873 196.516,142.425C198.358,142.941 200.164,143.57 202.094,143.943C204.193,145.05 206.074,145.52 208.668,145.596C208.667,146.061 208.71,146.524 208.8,147.2L209.6,147.2C209.461,145.852 209.346,145.205 208.8,144C208.784,144.124 208.769,144.241 208.756,144.352L208.726,143.338L208.726,143.299C208.749,143.534 208.774,143.767 208.8,144L209.6,144L209.6,108.8L178.863,108.8L178.826,108.799C176.028,108.713 173.23,108.642 170.432,108.585C162.717,108.429 155,108.376 147.284,108.392C138.948,108.409 130.613,108.505 122.278,108.636C119.115,108.686 115.951,108.741 112.788,108.799L112.731,108.8L54.4,108.8L54.4,111.183C54.179,110.347 53.914,109.549 53.6,108.8L53.6,140.8ZM152.8,146.4L152.8,147.2L155.2,147.2C154.202,146.652 153.962,146.601 152.8,146.4ZM66.4,146.4L66.4,147.2L68.8,147.2C67.801,146.652 67.561,146.601 66.4,146.4ZM128.318,146.857L127.707,146.905L127.71,146.907L127.726,146.915L127.62,146.926L126.981,146.986L126.829,147L126.829,147.001L126.981,146.986L127.224,146.964L127.62,146.926L127.727,146.915L127.726,146.915L127.867,146.902L128.318,146.857ZM122.134,146.666C121.956,146.844 122.078,146.922 122.25,146.95C122.422,146.978 122.644,146.956 122.666,146.934C123.022,146.578 122.178,146.622 122.134,146.666ZM65.333,146.666C65.156,146.844 65.278,146.922 65.45,146.95C65.622,146.978 65.844,146.956 65.867,146.934C66.222,146.578 65.378,146.622 65.333,146.666ZM151.734,146.666C151.556,146.844 151.678,146.922 151.85,146.95C152.022,146.978 152.244,146.956 152.266,146.934C152.622,146.578 151.778,146.622 151.734,146.666ZM129.6,145.6L129.6,146.4L132.8,146.4C131.595,145.854 130.948,145.739 129.6,145.6ZM136,145.6L136,146.4L140.8,146.4C139.158,145.701 137.802,145.638 136,145.6ZM132.8,145.6L132.8,146.4L136,146.4C134.795,145.854 134.148,145.739 132.8,145.6ZM121.6,144.8C122.651,146.094 123.102,146.154 124.8,146.4L124.8,145.6L121.6,144.8ZM205.6,145.6L205.6,146.4L208,146.4C207.002,145.852 206.762,145.801 205.6,145.6ZM118.934,145.866C118.756,146.044 118.878,146.122 119.05,146.15C119.222,146.178 119.444,146.156 119.466,146.134C119.822,145.778 118.978,145.822 118.934,145.866ZM120.534,145.066C120.356,145.244 120.478,145.322 120.65,145.35C120.822,145.378 121.044,145.356 121.066,145.334C121.422,144.978 120.578,145.022 120.534,145.066ZM193.066,144.534C193.044,144.556 193.022,144.778 193.05,144.95C193.078,145.122 193.156,145.244 193.334,145.066C193.378,145.022 193.422,144.178 193.066,144.534ZM188,141.6L188,143.2L190.4,143.2L190.4,142.4C189.217,141.611 189.438,141.6 188,141.6ZM132.534,142.666C132.356,142.844 132.478,142.922 132.65,142.95C132.822,142.978 133.044,142.956 133.066,142.934C133.422,142.578 132.578,142.622 132.534,142.666ZM192.534,141.866C192.356,142.044 192.478,142.122 192.65,142.15C192.822,142.178 193.044,142.156 193.066,142.134C193.422,141.778 192.578,141.822 192.534,141.866ZM136,140.8L136,141.6L138.4,141.6C137.402,141.052 137.162,141.001 136,140.8ZM188.8,140.8L188.8,141.6L192,141.6C190.795,141.054 190.148,140.939 188.8,140.8ZM138.4,140.8L138.4,141.6L144.8,141.6C142.71,140.722 140.668,140.806 138.4,140.8ZM96.8,140L96.8,140.8L100,140.8C98.795,140.254 98.148,140.139 96.8,140ZM183.734,140.266C183.556,140.444 183.678,140.522 183.85,140.55C184.022,140.578 184.244,140.556 184.266,140.534C184.622,140.178 183.778,140.222 183.734,140.266ZM72.8,139.2L72.8,140L75.2,140C74.201,139.452 73.961,139.401 72.8,139.2ZM94.4,139.2L94.4,140L96.8,140C95.802,139.452 95.562,139.401 94.4,139.2ZM93.334,139.466C93.156,139.644 93.278,139.722 93.45,139.75C93.622,139.778 93.844,139.756 93.866,139.734C94.222,139.378 93.378,139.422 93.334,139.466ZM179.734,139.466C179.556,139.644 179.678,139.722 179.85,139.75C180.022,139.778 180.244,139.756 180.266,139.734C180.622,139.378 179.778,139.422 179.734,139.466ZM164.534,138.666C164.356,138.844 164.478,138.922 164.65,138.95C164.822,138.978 165.044,138.956 165.066,138.934C165.422,138.578 164.578,138.622 164.534,138.666ZM162.934,138.666C162.756,138.844 162.878,138.922 163.05,138.95C163.222,138.978 163.444,138.956 163.466,138.934C163.822,138.578 162.978,138.622 162.934,138.666ZM78.133,138.666C77.956,138.844 78.078,138.922 78.25,138.95C78.422,138.978 78.644,138.956 78.667,138.934C79.022,138.578 78.178,138.622 78.133,138.666ZM208.799,111.022C208.8,110.815 208.8,110.607 208.8,110.4L208.799,111.022Z" style="fill:white;"/>
            </g>
            <g transform="matrix(3.24222,0,0,3.24222,-937.228,-1103.25)">
                <path d="M315.629,453.596L316.766,453.596L316.766,458.559C316.766,459.422 316.668,460.108 316.473,460.615C316.278,461.123 315.925,461.536 315.415,461.855C314.905,462.173 314.237,462.332 313.408,462.332C312.604,462.332 311.946,462.193 311.434,461.916C310.922,461.639 310.557,461.237 310.338,460.712C310.119,460.187 310.01,459.469 310.01,458.559L310.01,453.596L311.147,453.596L311.147,458.553C311.147,459.299 311.216,459.849 311.355,460.202C311.493,460.556 311.732,460.828 312.07,461.02C312.407,461.211 312.821,461.307 313.309,461.307C314.145,461.307 314.74,461.117 315.096,460.738C315.451,460.359 315.629,459.631 315.629,458.553L315.629,453.596ZM312.664,453.068L313.444,451.428L314.826,451.428L313.537,453.068L312.664,453.068Z" style="fill:white;fill-rule:nonzero;"/>
                <path d="M325.668,462.186L325.668,453.596L326.804,453.596L326.804,457.856L331.07,453.596L332.611,453.596L329.007,457.076L332.769,462.186L331.269,462.186L328.211,457.838L326.804,459.209L326.804,462.186L325.668,462.186Z" style="fill:white;fill-rule:nonzero;"/>
                <path d="M340.727,462.186L340.727,453.596L341.864,453.596L341.864,461.172L346.095,461.172L346.095,462.186L340.727,462.186Z" style="fill:white;fill-rule:nonzero;"/>
                <rect x="354.698" y="453.596" width="1.137" height="8.59" style="fill:white;fill-rule:nonzero;"/>
                <path d="M364.894,462.186L364.894,453.596L367.853,453.596C368.521,453.596 369.031,453.637 369.382,453.719C369.875,453.832 370.295,454.037 370.642,454.334C371.095,454.717 371.434,455.206 371.659,455.802C371.883,456.398 371.996,457.078 371.996,457.844C371.996,458.496 371.92,459.074 371.767,459.578C371.615,460.082 371.42,460.499 371.181,460.829C370.943,461.159 370.682,461.419 370.399,461.609C370.116,461.798 369.774,461.942 369.374,462.039C368.973,462.137 368.513,462.186 367.994,462.186L364.894,462.186ZM366.031,461.172L367.865,461.172C368.431,461.172 368.876,461.119 369.198,461.014C369.52,460.908 369.777,460.76 369.968,460.568C370.238,460.299 370.448,459.937 370.598,459.482C370.749,459.026 370.824,458.475 370.824,457.826C370.824,456.928 370.676,456.237 370.381,455.755C370.087,455.273 369.728,454.949 369.306,454.785C369.002,454.668 368.511,454.609 367.836,454.609L366.031,454.609L366.031,461.172Z" style="fill:white;fill-rule:nonzero;"/>
                <path d="M380.27,458.002C380.27,456.576 380.653,455.46 381.419,454.653C382.185,453.847 383.173,453.443 384.384,453.443C385.177,453.443 385.892,453.633 386.528,454.012C387.165,454.391 387.65,454.919 387.984,455.597C388.318,456.275 388.485,457.043 388.485,457.902C388.485,458.774 388.31,459.553 387.958,460.24C387.606,460.928 387.108,461.448 386.464,461.802C385.819,462.155 385.124,462.332 384.378,462.332C383.569,462.332 382.847,462.137 382.21,461.746C381.573,461.356 381.091,460.822 380.763,460.147C380.435,459.471 380.27,458.756 380.27,458.002ZM381.442,458.02C381.442,459.055 381.721,459.87 382.277,460.466C382.834,461.062 383.532,461.359 384.372,461.359C385.227,461.359 385.932,461.059 386.484,460.457C387.037,459.856 387.313,459.002 387.313,457.897C387.313,457.197 387.195,456.587 386.959,456.066C386.723,455.544 386.377,455.14 385.922,454.853C385.467,454.566 384.956,454.422 384.39,454.422C383.585,454.422 382.893,454.698 382.312,455.251C381.732,455.804 381.442,456.727 381.442,458.02Z" style="fill:white;fill-rule:nonzero;"/>
                <path d="M399.461,462.186L396.133,453.596L397.364,453.596L399.596,459.836C399.776,460.336 399.926,460.805 400.047,461.242C400.18,460.774 400.334,460.305 400.51,459.836L402.83,453.596L403.991,453.596L400.627,462.186L399.461,462.186Z" style="fill:white;fill-rule:nonzero;"/>
                <path d="M412.089,462.186L412.089,453.596L418.3,453.596L418.3,454.609L413.226,454.609L413.226,457.24L417.978,457.24L417.978,458.248L413.226,458.248L413.226,461.172L418.5,461.172L418.5,462.186L412.089,462.186ZM414.433,453.068L415.213,451.428L416.595,451.428L415.306,453.068L414.433,453.068Z" style="fill:white;fill-rule:nonzero;"/>
                <path d="M437.129,459.426L438.201,459.332C438.252,459.762 438.37,460.114 438.556,460.39C438.742,460.665 439.03,460.888 439.42,461.058C439.811,461.228 440.25,461.313 440.739,461.313C441.172,461.313 441.555,461.248 441.887,461.119C442.219,460.99 442.466,460.814 442.628,460.589C442.79,460.364 442.871,460.119 442.871,459.854C442.871,459.584 442.793,459.349 442.637,459.148C442.481,458.946 442.223,458.777 441.864,458.641C441.633,458.551 441.123,458.411 440.334,458.222C439.545,458.032 438.992,457.854 438.676,457.686C438.266,457.471 437.96,457.204 437.759,456.886C437.558,456.568 437.457,456.211 437.457,455.817C437.457,455.383 437.58,454.978 437.826,454.601C438.073,454.224 438.432,453.938 438.905,453.742C439.377,453.547 439.903,453.449 440.481,453.449C441.117,453.449 441.679,453.552 442.165,453.757C442.652,453.962 443.026,454.264 443.287,454.662C443.549,455.061 443.69,455.512 443.709,456.016L442.619,456.098C442.561,455.555 442.363,455.145 442.025,454.867C441.687,454.59 441.188,454.451 440.528,454.451C439.84,454.451 439.339,454.577 439.025,454.829C438.71,455.081 438.553,455.385 438.553,455.74C438.553,456.049 438.664,456.303 438.887,456.502C439.106,456.701 439.677,456.905 440.601,457.114C441.525,457.323 442.159,457.506 442.502,457.662C443.002,457.893 443.371,458.185 443.61,458.538C443.848,458.892 443.967,459.299 443.967,459.76C443.967,460.217 443.836,460.648 443.575,461.052C443.313,461.456 442.937,461.771 442.447,461.995C441.956,462.22 441.405,462.332 440.791,462.332C440.014,462.332 439.363,462.219 438.837,461.992C438.312,461.766 437.9,461.425 437.601,460.97C437.302,460.515 437.145,460 437.129,459.426Z" style="fill:white;fill-rule:nonzero;"/>
                <path d="M452.529,462.186L452.529,453.596L453.666,453.596L453.666,461.172L457.896,461.172L457.896,462.186L452.529,462.186Z" style="fill:white;fill-rule:nonzero;"/>
                <path d="M471.942,453.596L473.079,453.596L473.079,458.559C473.079,459.422 472.981,460.108 472.786,460.615C472.591,461.123 472.238,461.536 471.729,461.855C471.219,462.173 470.55,462.332 469.722,462.332C468.917,462.332 468.259,462.193 467.747,461.916C467.235,461.639 466.87,461.237 466.651,460.712C466.433,460.187 466.323,459.469 466.323,458.559L466.323,453.596L467.46,453.596L467.46,458.553C467.46,459.299 467.529,459.849 467.668,460.202C467.807,460.556 468.045,460.828 468.383,461.02C468.721,461.211 469.134,461.307 469.622,461.307C470.458,461.307 471.054,461.117 471.409,460.738C471.765,460.359 471.942,459.631 471.942,458.553L471.942,453.596Z" style="fill:white;fill-rule:nonzero;"/>
                <path d="M481.342,462.186L481.342,461.131L485.743,455.629C486.055,455.238 486.352,454.899 486.633,454.609L481.84,454.609L481.84,453.596L487.993,453.596L487.993,454.609L483.17,460.568L482.649,461.172L488.133,461.172L488.133,462.186L481.342,462.186ZM484.823,452.459L485.467,451.463L486.662,451.463L485.344,453.104L484.219,453.104L482.953,451.463L484.16,451.463L484.823,452.459Z" style="fill:white;fill-rule:nonzero;"/>
                <path d="M496.367,462.186L496.367,453.596L499.59,453.596C500.246,453.596 500.772,453.683 501.169,453.857C501.565,454.03 501.876,454.298 502.1,454.659C502.325,455.021 502.437,455.399 502.437,455.793C502.437,456.16 502.338,456.506 502.138,456.83C501.939,457.154 501.638,457.416 501.236,457.615C501.756,457.768 502.155,458.027 502.434,458.395C502.714,458.762 502.853,459.195 502.853,459.695C502.853,460.098 502.768,460.472 502.598,460.818C502.428,461.163 502.218,461.43 501.968,461.617C501.718,461.805 501.405,461.946 501.028,462.042C500.651,462.138 500.189,462.186 499.642,462.186L496.367,462.186ZM497.504,457.205L499.361,457.205C499.865,457.205 500.226,457.172 500.445,457.106C500.734,457.02 500.952,456.877 501.098,456.678C501.245,456.479 501.318,456.229 501.318,455.928C501.318,455.643 501.25,455.392 501.113,455.175C500.976,454.958 500.781,454.81 500.527,454.73C500.273,454.65 499.838,454.609 499.22,454.609L497.504,454.609L497.504,457.205ZM497.504,461.172L499.642,461.172C500.009,461.172 500.267,461.158 500.416,461.131C500.677,461.084 500.896,461.006 501.072,460.897C501.248,460.787 501.392,460.628 501.506,460.419C501.619,460.21 501.675,459.969 501.675,459.695C501.675,459.375 501.593,459.097 501.429,458.86C501.265,458.624 501.038,458.458 500.747,458.362C500.456,458.267 500.037,458.219 499.49,458.219L497.504,458.219L497.504,461.172Z" style="fill:white;fill-rule:nonzero;"/>
                <path d="M513.894,462.186L513.894,458.547L510.583,453.596L511.966,453.596L513.659,456.186C513.972,456.67 514.263,457.154 514.532,457.639C514.79,457.19 515.103,456.684 515.47,456.121L517.134,453.596L518.458,453.596L515.03,458.547L515.03,462.186L513.894,462.186Z" style="fill:white;fill-rule:nonzero;"/>
            </g>
            <g transform="matrix(1.38043,0,0,1.38043,-159.665,-22.1429)">
                <path d="M372.161,129.364L372.161,114.676L319.457,114.676L319.457,181.876L338.465,181.876L338.465,158.836L368.129,158.836L368.129,144.148L338.465,144.148L338.465,129.364L372.161,129.364Z" style="fill:white;fill-rule:nonzero;"/>
                <path d="M414.401,183.22C435.905,183.22 451.745,168.436 451.745,148.276C451.745,128.116 435.905,113.332 414.401,113.332C392.897,113.332 377.057,128.116 377.057,148.276C377.057,168.436 392.897,183.22 414.401,183.22ZM414.401,167.476C404.225,167.476 396.257,159.892 396.257,148.276C396.257,136.66 404.225,129.076 414.401,129.076C424.577,129.076 432.545,136.66 432.545,148.276C432.545,159.892 424.577,167.476 414.401,167.476Z" style="fill:white;fill-rule:nonzero;"/>
                <path d="M503.297,181.876L523.649,181.876L509.153,160.756C517.505,156.724 522.305,149.428 522.305,139.54C522.305,124.18 510.785,114.676 492.449,114.676L461.729,114.676L461.729,181.876L480.737,181.876L480.737,164.02L491.105,164.02L503.297,181.876ZM503.105,139.54C503.105,145.684 499.169,149.332 491.297,149.332L480.737,149.332L480.737,129.652L491.297,129.652C499.169,129.652 503.105,133.3 503.105,139.54Z" style="fill:white;fill-rule:nonzero;"/>
                <path d="M352.961,256.999C365.345,256.999 375.329,252.487 381.857,244.327L369.761,233.383C365.537,238.471 360.353,241.255 353.921,241.255C342.881,241.255 335.201,233.575 335.201,222.055C335.201,210.535 342.881,202.855 353.921,202.855C360.353,202.855 365.537,205.639 369.761,210.727L381.857,199.783C375.329,191.623 365.345,187.111 352.961,187.111C331.649,187.111 316.001,201.607 316.001,222.055C316.001,242.503 331.649,256.999 352.961,256.999Z" style="fill:white;fill-rule:nonzero;"/>
                <path d="M390.305,255.655L441.377,255.655L441.377,240.583L409.313,240.583L409.313,188.455L390.305,188.455L390.305,255.655Z" style="fill:white;fill-rule:nonzero;"/>
                <path d="M467.681,240.967L467.681,228.679L497.537,228.679L497.537,214.471L467.681,214.471L467.681,203.143L501.569,203.143L501.569,188.455L448.865,188.455L448.865,255.655L502.817,255.655L502.817,240.967L467.681,240.967Z" style="fill:white;fill-rule:nonzero;"/>
                <path d="M563.681,255.655L583.457,255.655L553.697,188.455L534.977,188.455L505.313,255.655L524.705,255.655L529.985,242.599L558.401,242.599L563.681,255.655ZM535.553,228.583L544.193,207.079L552.833,228.583L535.553,228.583Z" style="fill:white;fill-rule:nonzero;"/>
                <path d="M634.145,188.455L634.145,224.263L604.481,188.455L588.833,188.455L588.833,255.655L607.457,255.655L607.457,219.847L637.121,255.655L652.769,255.655L652.769,188.455L634.145,188.455Z" style="fill:white;fill-rule:nonzero;"/>
            </g>
        </g>
    </g>
</svg>
