<?xml version="1.0" encoding="UTF-8" standalone="no"?>
<!DOCTYPE svg PUBLIC "-//W3C//DTD SVG 1.1//EN" "http://www.w3.org/Graphics/SVG/1.1/DTD/svg11.dtd">
<svg width="100%" height="100%" viewBox="0 0 565 82" version="1.1" xmlns="http://www.w3.org/2000/svg" xmlns:xlink="http://www.w3.org/1999/xlink" xml:space="preserve" xmlns:serif="http://www.serif.com/" style="fill-rule:evenodd;clip-rule:evenodd;stroke-linejoin:round;stroke-miterlimit:2;">
    <g transform="matrix(1,0,0,1,-15.1319,-11.4194)">
        <g>
            <g transform="matrix(3.55437,0,0,3.55437,-576.866,-72.2778)">
                <path d="M166.555,26.758L169.21,26.758L169.21,30.004L171.993,26.758L175.52,26.758L172.391,29.998L175.661,35.348L172.391,35.348L170.581,31.815L169.21,33.25L169.21,35.348L166.555,35.348L166.555,26.758Z" style="fill:white;fill-rule:nonzero;"/>
                <path d="M181.825,33.93L178.801,33.93L178.385,35.348L175.672,35.348L178.901,26.758L181.795,26.758L185.024,35.348L182.247,35.348L181.825,33.93ZM181.268,32.072L180.319,28.985L179.376,32.072L181.268,32.072Z" style="fill:white;fill-rule:nonzero;"/>
                <path d="M185.844,26.758L189.336,26.758L190.684,31.985L192.026,26.758L195.506,26.758L195.506,35.348L193.338,35.348L193.338,28.797L191.657,35.348L189.694,35.348L188.018,28.797L188.018,35.348L185.844,35.348L185.844,26.758Z" style="fill:white;fill-rule:nonzero;"/>
                <path d="M197.217,26.758L199.696,26.758L202.93,31.51L202.93,26.758L205.432,26.758L205.432,35.348L202.93,35.348L199.713,30.631L199.713,35.348L197.217,35.348L197.217,26.758Z" style="fill:white;fill-rule:nonzero;"/>
                <path d="M212.364,33.93L209.34,33.93L208.924,35.348L206.211,35.348L209.44,26.758L212.335,26.758L215.563,35.348L212.786,35.348L212.364,33.93ZM211.807,32.072L210.858,28.985L209.915,32.072L211.807,32.072Z" style="fill:white;fill-rule:nonzero;"/>
                <path d="M216.424,26.758L219.079,26.758L219.079,30.004L221.862,26.758L225.389,26.758L222.26,29.998L225.53,35.348L222.26,35.348L220.45,31.815L219.079,33.25L219.079,35.348L216.424,35.348L216.424,26.758Z" style="fill:rgb(212,217,219);fill-rule:nonzero;"/>
                <path d="M226.444,35.348L226.444,26.758L230.868,26.758C231.688,26.758 232.315,26.828 232.749,26.969C233.182,27.11 233.532,27.37 233.797,27.751C234.063,28.132 234.196,28.596 234.196,29.143C234.196,29.619 234.094,30.03 233.891,30.376C233.688,30.722 233.409,31.002 233.053,31.217C232.827,31.354 232.516,31.467 232.122,31.557C232.438,31.662 232.669,31.768 232.813,31.873C232.911,31.944 233.052,32.094 233.238,32.324C233.423,32.555 233.547,32.733 233.61,32.858L234.893,35.348L231.893,35.348L230.475,32.723C230.295,32.383 230.135,32.162 229.995,32.061C229.803,31.928 229.586,31.861 229.344,31.861L229.11,31.861L229.11,35.348L226.444,35.348ZM229.11,30.238L230.229,30.238C230.35,30.238 230.585,30.199 230.932,30.121C231.108,30.086 231.252,29.996 231.363,29.852C231.474,29.707 231.53,29.541 231.53,29.354C231.53,29.076 231.442,28.863 231.266,28.715C231.09,28.567 230.76,28.492 230.276,28.492L229.11,28.492L229.11,30.238Z" style="fill:rgb(212,217,219);fill-rule:nonzero;"/>
                <path d="M235.749,26.758L240.717,26.758C241.545,26.758 242.181,26.963 242.625,27.373C243.068,27.783 243.29,28.291 243.29,28.897C243.29,29.404 243.131,29.84 242.815,30.203C242.604,30.445 242.295,30.637 241.889,30.778C242.506,30.926 242.96,31.181 243.252,31.542C243.543,31.903 243.688,32.358 243.688,32.904C243.688,33.35 243.585,33.75 243.377,34.106C243.17,34.461 242.887,34.742 242.528,34.949C242.305,35.078 241.969,35.172 241.52,35.231C240.922,35.309 240.526,35.348 240.331,35.348L235.749,35.348L235.749,26.758ZM238.426,30.127L239.581,30.127C239.995,30.127 240.283,30.056 240.445,29.913C240.607,29.771 240.688,29.565 240.688,29.295C240.688,29.045 240.607,28.85 240.445,28.709C240.283,28.569 240.001,28.498 239.598,28.498L238.426,28.498L238.426,30.127ZM238.426,33.502L239.78,33.502C240.237,33.502 240.559,33.421 240.747,33.259C240.934,33.097 241.028,32.879 241.028,32.606C241.028,32.352 240.935,32.148 240.75,31.993C240.564,31.839 240.239,31.762 239.774,31.762L238.426,31.762L238.426,33.502Z" style="fill:rgb(212,217,219);fill-rule:nonzero;"/>
                <path d="M244.21,26.758L247.157,26.758L248.891,29.658L250.626,26.758L253.555,26.758L250.215,31.75L250.215,35.348L247.555,35.348L247.555,31.75L244.21,26.758Z" style="fill:rgb(212,217,219);fill-rule:nonzero;"/>
                <path d="M253.807,26.758L261.876,26.758L261.876,28.879L259.169,28.879L259.169,35.348L256.514,35.348L256.514,28.879L253.807,28.879L253.807,26.758Z" style="fill:white;fill-rule:nonzero;"/>
                <path d="M262.333,31.059C262.333,29.656 262.723,28.565 263.504,27.783C264.286,27.002 265.374,26.611 266.768,26.611C268.198,26.611 269.299,26.995 270.073,27.763C270.846,28.53 271.233,29.606 271.233,30.988C271.233,31.992 271.064,32.816 270.726,33.458C270.388,34.101 269.9,34.601 269.261,34.958C268.623,35.316 267.827,35.494 266.874,35.494C265.905,35.494 265.103,35.34 264.468,35.031C263.834,34.723 263.319,34.235 262.924,33.567C262.53,32.899 262.333,32.063 262.333,31.059ZM264.987,31.07C264.987,31.938 265.148,32.561 265.47,32.94C265.793,33.319 266.231,33.508 266.786,33.508C267.356,33.508 267.797,33.322 268.11,32.951C268.422,32.58 268.579,31.914 268.579,30.953C268.579,30.145 268.416,29.554 268.089,29.181C267.763,28.808 267.321,28.621 266.762,28.621C266.227,28.621 265.797,28.811 265.473,29.19C265.149,29.569 264.987,30.195 264.987,31.07Z" style="fill:white;fill-rule:nonzero;"/>
                <path d="M272.651,26.758L277.063,26.758C278.024,26.758 278.744,26.986 279.222,27.444C279.701,27.901 279.94,28.551 279.94,29.395C279.94,30.262 279.679,30.94 279.158,31.428C278.636,31.916 277.84,32.16 276.77,32.16L275.317,32.16L275.317,35.348L272.651,35.348L272.651,26.758ZM275.317,30.42L275.967,30.42C276.479,30.42 276.838,30.331 277.045,30.153C277.252,29.976 277.356,29.748 277.356,29.471C277.356,29.201 277.266,28.973 277.086,28.785C276.907,28.598 276.569,28.504 276.073,28.504L275.317,28.504L275.317,30.42Z" style="fill:white;fill-rule:nonzero;"/>
                <path d="M281.323,26.758L288.436,26.758L288.436,28.592L283.983,28.592L283.983,29.957L288.114,29.957L288.114,31.709L283.983,31.709L283.983,33.403L288.565,33.403L288.565,35.348L281.323,35.348L281.323,26.758Z" style="fill:white;fill-rule:nonzero;"/>
                <path d="M290.012,26.758L292.491,26.758L295.725,31.51L295.725,26.758L298.227,26.758L298.227,35.348L295.725,35.348L292.508,30.631L292.508,35.348L290.012,35.348L290.012,26.758Z" style="fill:white;fill-rule:nonzero;"/>
                <path d="M300.096,26.758L302.756,26.758L302.756,35.348L300.096,35.348L300.096,26.758ZM301.391,24.485L303.442,24.485L301.549,26.236L300.407,26.236L301.391,24.485Z" style="fill:white;fill-rule:nonzero;"/>
                <path d="M272.563,43.754L274.93,43.531C275.028,43.812 275.165,44.013 275.34,44.134C275.516,44.256 275.751,44.316 276.044,44.316C276.364,44.316 276.612,44.248 276.788,44.111C276.924,44.009 276.993,43.882 276.993,43.73C276.993,43.558 276.903,43.425 276.723,43.332C276.594,43.265 276.252,43.183 275.698,43.086C274.87,42.941 274.294,42.807 273.972,42.684C273.65,42.561 273.378,42.353 273.158,42.06C272.937,41.767 272.827,41.433 272.827,41.058C272.827,40.648 272.946,40.295 273.184,39.998C273.422,39.701 273.751,39.479 274.169,39.333C274.586,39.186 275.147,39.113 275.85,39.113C276.592,39.113 277.14,39.17 277.494,39.283C277.847,39.396 278.142,39.572 278.378,39.81C278.615,40.048 278.811,40.371 278.967,40.777L276.706,41C276.647,40.8 276.549,40.654 276.413,40.56C276.225,40.435 275.999,40.373 275.733,40.373C275.463,40.373 275.267,40.421 275.144,40.516C275.021,40.612 274.96,40.728 274.96,40.865C274.96,41.017 275.038,41.132 275.194,41.211C275.35,41.289 275.69,41.359 276.213,41.422C277.006,41.511 277.596,41.636 277.983,41.797C278.37,41.957 278.666,42.185 278.871,42.482C279.076,42.779 279.178,43.105 279.178,43.461C279.178,43.82 279.07,44.17 278.853,44.509C278.636,44.849 278.294,45.12 277.828,45.321C277.361,45.522 276.725,45.623 275.92,45.623C274.784,45.623 273.974,45.461 273.492,45.136C273.009,44.812 272.7,44.351 272.563,43.754Z" style="fill:white;fill-rule:nonzero;"/>
                <rect x="280.321" y="43.086" width="2.549" height="2.391" style="fill:white;fill-rule:nonzero;"/>
                <path d="M284.335,39.254L286.567,39.254L286.567,40.273C286.782,39.832 287.003,39.528 287.232,39.362C287.46,39.196 287.743,39.113 288.079,39.113C288.43,39.113 288.815,39.222 289.233,39.441L288.495,41.14C288.213,41.023 287.991,40.964 287.827,40.964C287.514,40.964 287.272,41.093 287.1,41.351C286.854,41.714 286.731,42.394 286.731,43.39L286.731,45.476L284.335,45.476L284.335,39.254Z" style="fill:white;fill-rule:nonzero;"/>
                <rect x="288.717" y="43.086" width="2.549" height="2.391" style="fill:white;fill-rule:nonzero;"/>
                <path d="M292.415,42.382C292.415,41.433 292.735,40.651 293.376,40.036C294.016,39.421 294.881,39.113 295.971,39.113C297.217,39.113 298.159,39.474 298.795,40.197C299.307,40.779 299.563,41.496 299.563,42.347C299.563,43.304 299.246,44.089 298.611,44.7C297.976,45.311 297.098,45.617 295.977,45.617C294.977,45.617 294.169,45.363 293.551,44.855C292.794,44.226 292.415,43.402 292.415,42.382ZM294.805,42.377C294.805,42.931 294.918,43.341 295.142,43.607C295.367,43.873 295.649,44.006 295.989,44.006C296.333,44.006 296.615,43.875 296.835,43.613C297.056,43.351 297.167,42.931 297.167,42.353C297.167,41.814 297.055,41.413 296.833,41.149C296.61,40.885 296.335,40.754 296.006,40.754C295.659,40.754 295.372,40.887 295.145,41.155C294.919,41.422 294.805,41.83 294.805,42.377Z" style="fill:white;fill-rule:nonzero;"/>
                <rect x="300.512" y="43.086" width="2.549" height="2.391" style="fill:white;fill-rule:nonzero;"/>
            </g>
            <g transform="matrix(1.1597,0.10146,-0.0870245,0.994695,-79.2012,-52.9386)">
                <path d="M524.474,40.2C524.474,40.2 510.173,50.113 521.522,70.411C528.62,83.108 524.937,92.709 524.937,92.709C524.937,92.709 540.993,81.729 531.424,64.484C520.671,45.103 524.474,40.2 524.474,40.2Z" style="fill:white;"/>
            </g>
            <g transform="matrix(1.81443,0.158742,-0.136156,1.55627,-400.199,-134.399)">
                <path d="M524.474,40.2C524.474,40.2 510.173,50.113 521.522,70.411C528.62,83.108 524.937,92.709 524.937,92.709C524.937,92.709 540.993,81.729 531.424,64.484C520.671,45.103 524.474,40.2 524.474,40.2Z" style="fill:white;"/>
            </g>
            <g transform="matrix(1.30075,0.32198,-0.262906,1.0621,-96.422,-178.023)">
                <path d="M524.474,40.2C524.474,40.2 510.173,50.113 521.522,70.411C528.62,83.108 524.937,92.709 524.937,92.709C524.937,92.709 540.993,81.729 531.424,64.484C520.671,45.103 524.474,40.2 524.474,40.2Z" style="fill:white;"/>
            </g>
        </g>
    </g>
</svg>
