<?xml version="1.0" encoding="UTF-8" standalone="no"?>
<!DOCTYPE svg PUBLIC "-//W3C//DTD SVG 1.1//EN" "http://www.w3.org/Graphics/SVG/1.1/DTD/svg11.dtd">
<svg width="100%" height="100%" viewBox="0 0 3071 571" version="1.1" xmlns="http://www.w3.org/2000/svg" xmlns:xlink="http://www.w3.org/1999/xlink" xml:space="preserve" xmlns:serif="http://www.serif.com/" style="fill-rule:evenodd;clip-rule:evenodd;stroke-linejoin:round;stroke-miterlimit:2;">
    <g>
        <g>
            <path d="M417.763,273.092C464.092,248.708 493.35,204.817 493.35,147.925C493.35,59.333 420.2,-0 277.967,-0L0,-0L0,568.938L294.221,568.938C443.771,568.938 521.796,512.042 521.796,413.7C521.796,342.175 481.158,293.408 417.762,273.092L417.763,273.092ZM261.713,99.158C325.922,99.158 360.868,121.104 360.868,165.804C360.868,210.508 325.922,233.263 261.713,233.263L130.855,233.263L130.855,99.158L261.713,99.158ZM284.468,469.779L130.855,469.779L130.855,329.171L284.468,329.171C352.743,329.171 389.318,351.929 389.318,399.883C389.318,448.646 352.743,469.779 284.468,469.779Z" style="fill:white;fill-rule:nonzero;"/>
            <path d="M1125.68,568.938L998.076,386.063C1072.04,354.367 1115.11,291.783 1115.11,206.442C1115.11,78.837 1020.02,-0 868.03,-0L621.764,-0L621.764,568.937L753.43,568.937L753.43,410.446L874.535,410.446L984.26,568.937L1125.68,568.937L1125.68,568.938ZM981.818,206.443C981.818,268.213 941.18,305.601 860.718,305.601L753.43,305.601L753.43,107.284L860.718,107.284C941.18,107.284 981.818,143.859 981.818,206.443Z" style="fill:white;fill-rule:nonzero;"/>
            <path d="M1644.23,568.938L1782.4,568.938L1528,0L1397.96,0L1144.38,568.938L1279.3,568.938L1329.69,447.021L1593.84,447.021L1644.23,568.938ZM1371.95,347.05L1462.17,129.229L1552.38,347.05L1371.95,347.05Z" style="fill:white;fill-rule:nonzero;"/>
            <path d="M2233.48,0L2233.48,345.425L1950.64,0L1841.73,0L1841.73,568.938L1971.77,568.938L1971.77,223.512L2255.43,568.938L2363.52,568.938L2363.52,0L2233.48,0Z" style="fill:white;fill-rule:nonzero;"/>
            <path d="M2498.45,568.938L2756.91,568.938C2943.03,568.938 3070.64,456.775 3070.64,284.467C3070.64,112.162 2943.03,0 2756.91,0L2498.45,0L2498.45,568.938ZM2630.12,460.839L2630.12,108.101L2750.41,108.101C2863.38,108.101 2937.35,175.559 2937.35,284.468C2937.35,393.38 2863.38,460.839 2750.41,460.839L2630.12,460.839Z" style="fill:white;fill-rule:nonzero;"/>
        </g>
    </g>
</svg>
