<?xml version="1.0" encoding="UTF-8" standalone="no"?>
<!DOCTYPE svg PUBLIC "-//W3C//DTD SVG 1.1//EN" "http://www.w3.org/Graphics/SVG/1.1/DTD/svg11.dtd">
<svg width="100%" height="100%" viewBox="0 0 757 55" version="1.1" xmlns="http://www.w3.org/2000/svg" xmlns:xlink="http://www.w3.org/1999/xlink" xml:space="preserve" xmlns:serif="http://www.serif.com/" style="fill-rule:evenodd;clip-rule:evenodd;stroke-linejoin:round;stroke-miterlimit:2;">
    <g transform="matrix(1,0,0,1,-217.615,-206.109)">
        <g>
            <g transform="matrix(1.843,0,0,1.843,-452.885,-212.93)">
                <path d="M372.135,227.588L392.985,227.588C393.571,227.588 394.063,227.787 394.462,228.186C394.861,228.584 395.06,229.077 395.06,229.663C395.06,230.281 394.869,230.786 394.486,231.176C394.104,231.567 393.603,231.762 392.985,231.762L372.135,231.762C371.028,231.762 370.06,232.039 369.23,232.592C368.4,233.146 367.985,233.911 367.985,234.887C367.985,235.799 368.416,236.547 369.279,237.133C370.141,237.719 371.094,238.012 372.135,238.012L390.885,238.012C393.099,238.012 395.044,238.712 396.72,240.112C398.397,241.512 399.235,243.253 399.235,245.337C399.235,247.42 398.401,249.149 396.732,250.525C395.064,251.9 393.115,252.588 390.885,252.588L365.885,252.588C365.299,252.588 364.807,252.388 364.408,251.989C364.009,251.591 363.81,251.098 363.81,250.512C363.81,249.943 364.018,249.45 364.433,249.035C364.848,248.62 365.332,248.413 365.885,248.413L390.885,248.413C392.008,248.413 392.985,248.136 393.815,247.583C394.645,247.029 395.06,246.264 395.06,245.288C395.06,244.344 394.637,243.587 393.791,243.017C392.944,242.448 391.976,242.163 390.885,242.163L372.135,242.163C369.922,242.163 367.981,241.463 366.312,240.063C364.644,238.663 363.81,236.922 363.81,234.839C363.81,232.771 364.648,231.046 366.325,229.663C368.001,228.279 369.938,227.588 372.135,227.588Z" style="fill:white;fill-rule:nonzero;"/>
                <path d="M415.812,251.123C415.438,252.099 414.77,252.588 413.81,252.588C412.882,252.588 412.215,252.099 411.808,251.123L403.727,230.835C403.499,230.379 403.385,229.988 403.385,229.663C403.385,229.077 403.585,228.584 403.983,228.186C404.382,227.787 404.874,227.588 405.46,227.588C406.323,227.588 406.95,227.962 407.34,228.711L413.81,244.873L420.255,228.711C420.646,227.962 421.273,227.588 422.135,227.588C422.998,227.588 423.624,227.962 424.015,228.711L430.46,244.873L436.93,228.711C437.321,227.962 437.947,227.588 438.81,227.588C439.396,227.588 439.888,227.787 440.287,228.186C440.686,228.584 440.885,229.077 440.885,229.663C440.885,229.988 440.771,230.379 440.543,230.835L432.462,251.123C432.055,252.099 431.388,252.588 430.46,252.588C429.533,252.588 428.865,252.099 428.458,251.123L422.135,235.205L415.812,251.123Z" style="fill:white;fill-rule:nonzero;"/>
                <path d="M453.361,252.588C451.066,252.588 449.105,251.774 447.477,250.146C445.849,248.519 445.036,246.557 445.036,244.262L445.036,235.913C445.036,233.618 445.849,231.657 447.477,230.029C449.105,228.401 451.066,227.588 453.361,227.588L476.286,227.588C476.872,227.588 477.364,227.787 477.763,228.186C478.161,228.584 478.361,229.077 478.361,229.663C478.361,230.249 478.161,230.749 477.763,231.164C477.364,231.579 476.872,231.787 476.286,231.787L453.361,231.787C452.221,231.787 451.245,232.194 450.431,233.007C449.617,233.821 449.21,234.806 449.21,235.962L449.21,238.012L472.111,238.012C472.697,238.012 473.193,238.212 473.6,238.61C474.007,239.009 474.21,239.502 474.21,240.088C474.21,240.673 474.007,241.166 473.6,241.565C473.193,241.963 472.697,242.163 472.111,242.163L449.21,242.163L449.21,244.262C449.21,245.418 449.613,246.399 450.419,247.204C451.225,248.01 452.205,248.413 453.361,248.413L476.286,248.413C476.872,248.413 477.364,248.616 477.763,249.023C478.161,249.43 478.361,249.926 478.361,250.512C478.361,251.098 478.161,251.591 477.763,251.989C477.364,252.388 476.872,252.588 476.286,252.588L453.361,252.588Z" style="fill:white;fill-rule:nonzero;"/>
            </g>
            <g transform="matrix(1,0,0,1,137.527,0)">
                <path d="M370.06,231.836L388.81,231.836C394.36,231.836 397.135,233.878 397.135,237.964C397.135,239.428 396.745,240.653 395.963,241.638C395.182,242.623 394.189,243.318 392.985,243.725C391.78,244.132 390.389,244.336 388.81,244.336L367.985,244.336C367.985,245.361 368.416,246.297 369.279,247.143C370.141,247.99 371.094,248.413 372.135,248.413C375.39,248.413 378.869,248.421 382.572,248.437C386.275,248.453 389.746,248.462 392.985,248.462C393.555,248.462 394.043,248.665 394.45,249.072C394.857,249.479 395.06,249.959 395.06,250.512C395.06,251.098 394.861,251.591 394.462,251.989C394.063,252.388 393.571,252.588 392.985,252.588L372.135,252.588C369.824,252.588 367.859,251.786 366.239,250.183C364.62,248.58 363.81,246.63 363.81,244.336L363.81,238.012C363.81,236.434 364.465,235.009 365.775,233.74C367.086,232.47 368.514,231.836 370.06,231.836ZM367.985,240.136L388.81,240.161L389.591,240.161C390.014,240.161 390.364,240.153 390.641,240.136C390.918,240.12 391.219,240.071 391.544,239.99C391.87,239.908 392.126,239.795 392.313,239.648C392.501,239.502 392.659,239.294 392.79,239.026C392.92,238.757 392.985,238.427 392.985,238.037C392.985,237.565 392.903,237.182 392.741,236.889C392.578,236.596 392.326,236.385 391.984,236.255C391.642,236.124 391.317,236.043 391.007,236.01C390.698,235.978 390.283,235.962 389.762,235.962L370.109,235.962C369.555,235.962 369.063,236.161 368.632,236.56C368.201,236.958 367.985,237.443 367.985,238.012L367.985,240.136Z" style="fill:white;fill-rule:nonzero;"/>
                <path d="M432.56,252.588L409.635,252.588C407.975,252.588 406.498,252.075 405.204,251.049C403.91,250.024 402.938,248.73 402.287,247.168C401.636,245.605 401.31,243.937 401.31,242.163C401.31,240.405 401.636,238.749 402.287,237.194C402.938,235.64 403.91,234.358 405.204,233.349C406.498,232.34 407.975,231.836 409.635,231.836L432.56,231.836C433.179,231.836 433.659,232.002 434,232.336C434.342,232.67 434.529,233.007 434.562,233.349L434.635,233.838C434.635,233.886 434.631,233.96 434.623,234.057C434.615,234.155 434.574,234.322 434.501,234.558C434.428,234.794 434.326,235.005 434.196,235.193C434.066,235.38 433.858,235.547 433.573,235.693C433.288,235.839 432.951,235.913 432.56,235.913L409.635,235.913C408.724,235.913 407.943,236.238 407.291,236.889C406.64,237.54 406.177,238.326 405.9,239.245C405.623,240.165 405.485,241.137 405.485,242.163C405.485,243.221 405.619,244.201 405.888,245.105C406.156,246.008 406.616,246.785 407.267,247.436C407.918,248.087 408.708,248.413 409.635,248.413L432.56,248.413C433.179,248.413 433.663,248.588 434.013,248.938C434.363,249.288 434.562,249.642 434.611,250L434.684,250.512C434.684,250.561 434.68,250.634 434.672,250.732C434.664,250.83 434.619,250.997 434.538,251.233C434.456,251.469 434.346,251.68 434.208,251.867C434.07,252.054 433.858,252.221 433.573,252.368C433.288,252.514 432.951,252.588 432.56,252.588Z" style="fill:white;fill-rule:nonzero;"/>
                <path d="M463.834,236.01L443.009,236.01L443.009,250.537C443.009,251.09 442.802,251.57 442.387,251.977C441.972,252.384 441.479,252.588 440.91,252.588C440.324,252.588 439.831,252.388 439.433,251.989C439.034,251.591 438.834,251.098 438.834,250.512L438.834,221.338C438.834,220.784 439.038,220.304 439.445,219.897C439.852,219.49 440.34,219.287 440.91,219.287C441.496,219.287 441.992,219.482 442.399,219.873C442.806,220.263 443.009,220.752 443.009,221.338L443.009,231.836L463.786,231.836C465.853,231.836 467.761,232.702 469.511,234.436C471.26,236.169 472.135,238.077 472.135,240.161L472.135,250.512C472.135,251.098 471.932,251.591 471.525,251.989C471.118,252.388 470.622,252.588 470.036,252.588C469.466,252.588 468.978,252.384 468.571,251.977C468.164,251.57 467.96,251.09 467.96,250.537L467.96,240.161C467.96,239.087 467.533,238.126 466.679,237.28C465.824,236.434 464.876,236.01 463.834,236.01Z" style="fill:white;fill-rule:nonzero;"/>
                <path d="M509.611,242.163L509.611,250.464C509.611,251.049 509.411,251.55 509.013,251.965C508.614,252.38 508.122,252.588 507.536,252.588C506.95,252.588 506.457,252.388 506.059,251.989C505.66,251.591 505.46,251.098 505.46,250.512L505.46,242.163C505.46,240.503 505.106,239.046 504.398,237.793C503.69,236.539 502.653,235.913 501.286,235.913L484.611,235.913C483.683,235.913 482.894,236.238 482.243,236.889C481.592,237.54 481.132,238.318 480.863,239.221C480.595,240.124 480.46,241.105 480.46,242.163L480.46,250.512C480.46,251.098 480.257,251.591 479.85,251.989C479.443,252.388 478.947,252.588 478.361,252.588C477.775,252.588 477.283,252.388 476.884,251.989C476.485,251.591 476.286,251.098 476.286,250.512L476.286,242.163C476.286,240.405 476.611,238.749 477.262,237.194C477.913,235.64 478.886,234.358 480.18,233.349C481.474,232.34 482.951,231.836 484.611,231.836L501.286,231.836C502.946,231.836 504.423,232.34 505.717,233.349C507.011,234.358 507.983,235.64 508.634,237.194C509.285,238.749 509.611,240.405 509.611,242.163Z" style="fill:white;fill-rule:nonzero;"/>
                <path d="M522.111,231.836L538.786,231.836C540.43,231.836 541.898,232.344 543.192,233.361C544.486,234.379 545.463,235.665 546.122,237.219C546.781,238.773 547.111,240.421 547.111,242.163C547.111,243.937 546.785,245.605 546.134,247.168C545.483,248.73 544.511,250.024 543.217,251.049C541.923,252.075 540.446,252.588 538.786,252.588L522.111,252.588C520.451,252.588 518.974,252.075 517.68,251.049C516.386,250.024 515.413,248.73 514.762,247.168C514.111,245.605 513.786,243.937 513.786,242.163C513.786,240.405 514.111,238.749 514.762,237.194C515.413,235.64 516.386,234.358 517.68,233.349C518.974,232.34 520.451,231.836 522.111,231.836ZM522.111,248.413L538.786,248.413C540.153,248.413 541.19,247.786 541.898,246.533C542.606,245.28 542.96,243.823 542.96,242.163C542.96,240.503 542.606,239.046 541.898,237.793C541.19,236.539 540.153,235.913 538.786,235.913L522.111,235.913C521.199,235.913 520.418,236.238 519.767,236.889C519.116,237.54 518.652,238.326 518.375,239.245C518.099,240.165 517.96,241.137 517.96,242.163C517.96,243.221 518.095,244.201 518.363,245.105C518.632,246.008 519.092,246.785 519.743,247.436C520.394,248.087 521.183,248.413 522.111,248.413Z" style="fill:white;fill-rule:nonzero;"/>
                <path d="M555.46,250.537C555.46,251.09 555.253,251.57 554.838,251.977C554.423,252.384 553.93,252.588 553.361,252.588C552.775,252.588 552.283,252.388 551.884,251.989C551.485,251.591 551.286,251.098 551.286,250.512L551.286,221.386C551.286,220.8 551.493,220.304 551.908,219.897C552.323,219.49 552.824,219.287 553.41,219.287C553.979,219.287 554.464,219.49 554.862,219.897C555.261,220.304 555.46,220.784 555.46,221.338L555.46,250.537Z" style="fill:white;fill-rule:nonzero;"/>
                <path d="M567.936,231.836L584.611,231.836C586.255,231.836 587.724,232.344 589.018,233.361C590.312,234.379 591.288,235.665 591.947,237.219C592.606,238.773 592.936,240.421 592.936,242.163C592.936,243.937 592.61,245.605 591.959,247.168C591.308,248.73 590.336,250.024 589.042,251.049C587.748,252.075 586.271,252.588 584.611,252.588L567.936,252.588C566.276,252.588 564.799,252.075 563.505,251.049C562.211,250.024 561.238,248.73 560.587,247.168C559.936,245.605 559.611,243.937 559.611,242.163C559.611,240.405 559.936,238.749 560.587,237.194C561.238,235.64 562.211,234.358 563.505,233.349C564.799,232.34 566.276,231.836 567.936,231.836ZM567.936,248.413L584.611,248.413C585.978,248.413 587.016,247.786 587.724,246.533C588.432,245.28 588.786,243.823 588.786,242.163C588.786,240.503 588.432,239.046 587.724,237.793C587.016,236.539 585.978,235.913 584.611,235.913L567.936,235.913C567.025,235.913 566.243,236.238 565.592,236.889C564.941,237.54 564.477,238.326 564.201,239.245C563.924,240.165 563.786,241.137 563.786,242.163C563.786,243.221 563.92,244.201 564.188,245.105C564.457,246.008 564.917,246.785 565.568,247.436C566.219,248.087 567.008,248.413 567.936,248.413Z" style="fill:white;fill-rule:nonzero;"/>
                <path d="M626.286,235.913L605.436,235.913C604.508,235.913 603.719,236.238 603.068,236.889C602.417,237.54 601.957,238.318 601.688,239.221C601.42,240.124 601.286,241.105 601.286,242.163C601.286,243.221 601.42,244.201 601.688,245.105C601.957,246.008 602.417,246.785 603.068,247.436C603.719,248.087 604.508,248.413 605.436,248.413L626.286,248.413L626.286,235.913ZM626.286,252.588L605.436,252.588C603.792,252.588 602.323,252.071 601.029,251.037C599.735,250.004 598.759,248.702 598.1,247.131C597.44,245.56 597.111,243.904 597.111,242.163C597.111,240.405 597.436,238.749 598.087,237.194C598.738,235.64 599.711,234.358 601.005,233.349C602.299,232.34 603.776,231.836 605.436,231.836L628.312,231.836C628.849,231.836 629.337,232.039 629.777,232.446C630.216,232.853 630.436,233.317 630.436,233.838L630.436,252.588C630.436,254.882 629.622,256.832 627.995,258.435C626.367,260.038 624.406,260.839 622.111,260.839L603.361,260.839C602.791,260.839 602.303,260.644 601.896,260.254C601.489,259.863 601.286,259.391 601.286,258.838C601.286,258.268 601.485,257.78 601.884,257.373C602.283,256.966 602.775,256.762 603.361,256.762L622.111,256.762C623.185,256.762 624.149,256.29 625.004,255.346C625.858,254.402 626.286,253.483 626.286,252.588Z" style="fill:white;fill-rule:nonzero;"/>
                <path d="M636.662,231.005C635.815,231.005 635.087,230.692 634.477,230.066C633.866,229.439 633.561,228.694 633.561,227.832C633.561,226.985 633.866,226.261 634.477,225.659C635.087,225.057 635.823,224.755 636.686,224.755C637.418,224.755 638.122,225.073 638.798,225.708C639.473,226.342 639.811,227.026 639.811,227.758C639.811,228.67 639.485,229.439 638.834,230.066C638.183,230.692 637.459,231.005 636.662,231.005ZM634.611,233.838C634.611,233.252 634.81,232.771 635.209,232.397C635.608,232.023 636.1,231.836 636.686,231.836C637.272,231.836 637.768,232.023 638.175,232.397C638.582,232.771 638.786,233.252 638.786,233.838L638.786,250.512C638.786,251.098 638.582,251.591 638.175,251.989C637.768,252.388 637.272,252.588 636.686,252.588C636.1,252.588 635.608,252.388 635.209,251.989C634.81,251.591 634.611,251.098 634.611,250.512L634.611,233.838Z" style="fill:white;fill-rule:nonzero;"/>
                <path d="M649.186,231.836L667.936,231.836C673.486,231.836 676.261,233.878 676.261,237.964C676.261,239.428 675.871,240.653 675.089,241.638C674.308,242.623 673.315,243.318 672.111,243.725C670.906,244.132 669.515,244.336 667.936,244.336L647.111,244.336C647.111,245.361 647.542,246.297 648.405,247.143C649.267,247.99 650.22,248.413 651.261,248.413C654.516,248.413 657.995,248.421 661.698,248.437C665.401,248.453 668.872,248.462 672.111,248.462C672.68,248.462 673.169,248.665 673.576,249.072C673.983,249.479 674.186,249.959 674.186,250.512C674.186,251.098 673.987,251.591 673.588,251.989C673.189,252.388 672.697,252.588 672.111,252.588L651.261,252.588C648.95,252.588 646.985,251.786 645.365,250.183C643.746,248.58 642.936,246.63 642.936,244.336L642.936,238.012C642.936,236.434 643.591,235.009 644.901,233.74C646.212,232.47 647.64,231.836 649.186,231.836ZM647.111,240.136L667.936,240.161L668.717,240.161C669.14,240.161 669.49,240.153 669.767,240.136C670.044,240.12 670.345,240.071 670.67,239.99C670.996,239.908 671.252,239.795 671.439,239.648C671.627,239.502 671.785,239.294 671.916,239.026C672.046,238.757 672.111,238.427 672.111,238.037C672.111,237.565 672.029,237.182 671.867,236.889C671.704,236.596 671.452,236.385 671.11,236.255C670.768,236.124 670.443,236.043 670.133,236.01C669.824,235.978 669.409,235.962 668.888,235.962L649.235,235.962C648.681,235.962 648.189,236.161 647.758,236.56C647.326,236.958 647.111,237.443 647.111,238.012L647.111,240.136Z" style="fill:white;fill-rule:nonzero;"/>
                <path d="M682.511,252.588C681.925,252.588 681.433,252.388 681.034,251.989C680.635,251.591 680.436,251.098 680.436,250.512C680.436,249.926 680.644,249.43 681.059,249.023C681.474,248.616 681.974,248.413 682.56,248.413L707.511,248.413C708.097,248.413 708.594,248.213 709,247.815C709.407,247.416 709.611,246.923 709.611,246.338C709.611,245.752 709.407,245.259 709,244.86C708.594,244.462 708.097,244.262 707.511,244.262L686.686,244.262C684.961,244.262 683.488,243.656 682.267,242.443C681.046,241.231 680.436,239.754 680.436,238.012C680.436,236.287 681.042,234.826 682.255,233.63C683.467,232.434 684.944,231.836 686.686,231.836L707.438,231.836C707.991,231.836 708.492,232.039 708.939,232.446C709.387,232.853 709.611,233.317 709.611,233.838C709.611,234.391 709.391,234.875 708.952,235.29C708.512,235.705 708.008,235.913 707.438,235.913L686.686,235.913C686.1,235.913 685.608,236.116 685.209,236.523C684.81,236.93 684.611,237.426 684.611,238.012C684.611,238.582 684.818,239.082 685.233,239.514C685.648,239.945 686.133,240.161 686.686,240.161C689.388,240.161 692.855,240.149 697.086,240.124C701.318,240.1 704.793,240.088 707.511,240.088C709.253,240.088 710.73,240.698 711.942,241.919C713.155,243.139 713.761,244.612 713.761,246.338C713.761,248.079 713.155,249.556 711.942,250.769C710.73,251.981 709.253,252.588 707.511,252.588L682.511,252.588Z" style="fill:white;fill-rule:nonzero;"/>
                <path d="M774.186,240.039C774.186,239.013 773.751,238.069 772.88,237.207C772.009,236.344 771.053,235.913 770.011,235.913L749.186,235.913C748.616,235.913 748.124,235.713 747.709,235.315C747.294,234.916 747.086,234.44 747.086,233.886C747.086,233.3 747.29,232.812 747.697,232.422C748.104,232.031 748.6,231.836 749.186,231.836L770.011,231.836C772.322,231.836 774.288,232.645 775.907,234.265C777.527,235.884 778.336,237.841 778.336,240.136L778.336,252.588L753.336,252.588C750.781,252.588 748.755,252.099 747.257,251.123C745.76,250.146 745.011,248.575 745.011,246.411C745.011,244.946 745.402,243.721 746.183,242.736C746.964,241.752 747.957,241.056 749.162,240.649C750.366,240.242 751.758,240.039 753.336,240.039L774.186,240.039ZM774.186,248.413L774.186,244.214L752.897,244.214C752.392,244.214 751.994,244.222 751.701,244.238C751.408,244.254 751.078,244.299 750.712,244.372C750.346,244.445 750.069,244.559 749.882,244.714C749.695,244.869 749.532,245.088 749.394,245.373C749.255,245.658 749.186,246.004 749.186,246.411C749.186,247.241 749.418,247.782 749.882,248.034C750.346,248.287 751.058,248.413 752.018,248.413L774.186,248.413Z" style="fill:white;fill-rule:nonzero;"/>
                <path d="M785.587,252.588C784.741,252.588 784.017,252.274 783.415,251.648C782.812,251.021 782.511,250.276 782.511,249.414C782.511,248.567 782.816,247.843 783.427,247.241C784.037,246.639 784.774,246.338 785.636,246.338C786.369,246.338 787.073,246.655 787.748,247.29C788.423,247.924 788.761,248.608 788.761,249.34C788.761,250.252 788.432,251.021 787.772,251.648C787.113,252.274 786.385,252.588 785.587,252.588Z" style="fill:white;fill-rule:nonzero;"/>
                <path d="M794.987,252.588C794.401,252.588 793.909,252.388 793.51,251.989C793.111,251.591 792.912,251.098 792.912,250.512C792.912,249.926 793.119,249.43 793.534,249.023C793.949,248.616 794.45,248.413 795.036,248.413L819.987,248.413C820.573,248.413 821.069,248.213 821.476,247.815C821.883,247.416 822.086,246.923 822.086,246.338C822.086,245.752 821.883,245.259 821.476,244.86C821.069,244.462 820.573,244.262 819.987,244.262L799.162,244.262C797.436,244.262 795.963,243.656 794.743,242.443C793.522,241.231 792.912,239.754 792.912,238.012C792.912,236.287 793.518,234.826 794.73,233.63C795.943,232.434 797.42,231.836 799.162,231.836L819.914,231.836C820.467,231.836 820.967,232.039 821.415,232.446C821.863,232.853 822.086,233.317 822.086,233.838C822.086,234.391 821.867,234.875 821.427,235.29C820.988,235.705 820.483,235.913 819.914,235.913L799.162,235.913C798.576,235.913 798.083,236.116 797.685,236.523C797.286,236.93 797.086,237.426 797.086,238.012C797.086,238.582 797.294,239.082 797.709,239.514C798.124,239.945 798.608,240.161 799.162,240.161C801.863,240.161 805.33,240.149 809.562,240.124C813.794,240.1 817.269,240.088 819.987,240.088C821.728,240.088 823.205,240.698 824.418,241.919C825.631,243.139 826.237,244.612 826.237,246.338C826.237,248.079 825.631,249.556 824.418,250.769C823.205,251.981 821.728,252.588 819.987,252.588L794.987,252.588Z" style="fill:white;fill-rule:nonzero;"/>
                <path d="M833.488,252.588C832.641,252.588 831.917,252.274 831.315,251.648C830.713,251.021 830.412,250.276 830.412,249.414C830.412,248.567 830.717,247.843 831.327,247.241C831.937,246.639 832.674,246.338 833.537,246.338C834.269,246.338 834.973,246.655 835.648,247.29C836.324,247.924 836.662,248.608 836.662,249.34C836.662,250.252 836.332,251.021 835.673,251.648C835.014,252.274 834.285,252.588 833.488,252.588Z" style="fill:white;fill-rule:nonzero;"/>
            </g>
            <g transform="matrix(1,0,0,0.940927,0,14.9211)">
                <path d="M484.573,252.588L484.573,206.513" style="fill:none;"/>
            </g>
            <g transform="matrix(9.39603e-17,1,-1.53449,6.12323e-17,836.815,-275.339)">
                <path d="M484.573,252.588L484.573,206.513" style="fill:none;"/>
            </g>
            <path d="M481.448,212.359L481.448,252.588C481.448,254.312 482.849,255.713 484.573,255.713C486.298,255.713 487.698,254.312 487.698,252.588L487.698,212.359L519.924,212.359C521.649,212.359 523.049,210.959 523.049,209.234C523.049,207.51 521.649,206.109 519.924,206.109L449.223,206.109C447.498,206.109 446.098,207.51 446.098,209.234C446.098,210.959 447.498,212.359 449.223,212.359L481.448,212.359Z" style="fill:white;"/>
        </g>
    </g>
</svg>
