<?xml version="1.0" encoding="UTF-8" standalone="no"?>
<!DOCTYPE svg PUBLIC "-//W3C//DTD SVG 1.1//EN" "http://www.w3.org/Graphics/SVG/1.1/DTD/svg11.dtd">
<svg width="100%" height="100%" viewBox="0 0 762 337" version="1.1" xmlns="http://www.w3.org/2000/svg" xmlns:xlink="http://www.w3.org/1999/xlink" xml:space="preserve" xmlns:serif="http://www.serif.com/" style="fill-rule:evenodd;clip-rule:evenodd;stroke-linejoin:round;stroke-miterlimit:2;">
    <g transform="matrix(1,0,0,1,0,0.023335)">
        <g>
            <g id="Vrstva_2-2">
                <path d="M285.8,259.2L297.9,267.2L144.3,336.8L0,263.7L13.6,259.2L144.3,322.5L283.9,257.8L285.8,259.2Z" style="fill:white;fill-rule:nonzero;"/>
            </g>
            <g id="Vrstva_1-2">
                <path d="M286.8,258.5L286.8,63.8" style="fill:none;fill-rule:nonzero;"/>
                <path d="M146.8,318.2L146.8,128.8" style="fill:none;fill-rule:nonzero;"/>
                <path d="M6.2,253.2L6.2,65.5" style="fill:none;fill-rule:nonzero;"/>
                <path d="M290.4,69.3L152.3,5.5" style="fill:none;fill-rule:nonzero;"/>
                <path d="M150.3,134.4L9.9,69.5" style="fill:none;fill-rule:nonzero;"/>
                <path d="M146.8,320L2.8,247.7" style="fill:none;fill-rule:nonzero;"/>
                <path d="M157.1,5.5L2.5,71.1" style="fill:none;fill-rule:nonzero;"/>
                <path d="M290.4,69.1L145.3,134.4" style="fill:none;fill-rule:nonzero;"/>
                <path d="M288.9,253.2L141.7,320" style="fill:none;fill-rule:nonzero;"/>
                <path d="M154.802,0.084L154.756,-0.023L0.337,65.5L0.2,65.5L0.2,65.558L0.156,65.577L0.2,65.68L0.2,252.878L0.108,253.062L0.2,253.108L0.2,253.2L0.382,253.2L144.108,325.362L144.121,325.335L144.179,325.464L291.379,258.664L291.305,258.5L292.8,258.5L292.8,74.6L292.862,74.571L292.8,74.433L292.8,64.105L292.916,63.853L154.816,0.053L154.802,0.084ZM12.2,245.706L140.8,310.274L140.8,136.619L12.2,77.173L12.2,245.706ZM249.8,264.355L249.8,151L186.8,180.3L186.8,292.945L152.8,308.374L152.8,137.604L280.8,80L280.8,250.287L249.8,264.355ZM113.2,249.1L37.7,213.9L37.7,138.4L113.2,173.6L113.2,249.1ZM22.97,68.932L147.867,126.665L275.719,69.127L154.495,13.123L22.97,68.932Z" style="fill:white;"/>
                <g>
                    <path d="M460,79.6C463.9,81.5 465.9,83.7 465.9,86C465.9,87.1 465.4,88.7 464.4,90.8L436.8,146.8C436.1,148.3 435,149.5 433.5,150.3C432,151.2 430.5,151.7 428.9,151.7L427.9,151.7C426.2,151.7 424.6,151.2 423.1,150.3C421.6,149.4 420.5,148.2 419.7,146.8L392.1,90.8C391.1,88.7 390.6,87.1 390.6,86C390.6,83.7 392.6,81.5 396.5,79.6C398.7,78.5 400.4,77.9 401.5,77.9C402.7,77.9 403.5,78 404.1,78.3C404.7,78.6 405.3,79 405.8,79.7C406.4,80.5 407,81.4 407.5,82.3C408,83.3 409.3,86 411.3,90.6C413.4,95.2 415.6,100 418,105.2C420.4,110.3 422.6,115.2 424.7,119.7C426.8,124.3 428,126.8 428.3,127.3L448.3,83.5C448.8,82.2 449.3,81.2 449.7,80.5C450.9,78.7 452.4,77.8 454.1,77.8C455.8,77.9 457.8,78.5 460,79.6Z" style="fill:white;fill-rule:nonzero;"/>
                </g>
                <g>
                    <path d="M498.7,83.7L525.7,139.5C526.8,141.8 527.4,143.5 527.4,144.6C527.4,147 525.5,149.2 521.6,151.1C519.3,152.2 517.6,152.8 516.3,152.8C515,152.8 513.9,152.5 513.1,151.9C512.3,151.3 511.7,150.7 511.3,150C510.9,149.3 510.4,148.3 509.7,147L504.5,136.2L476.8,136.2L471.6,147C470.9,148.3 470.4,149.3 470,149.9C469.6,150.5 469,151.1 468.2,151.8C467.4,152.4 466.3,152.8 465,152.8C463.7,152.8 461.9,152.2 459.6,151.1C455.7,149.2 453.8,147.1 453.8,144.7C453.8,143.6 454.4,141.9 455.5,139.6L482.5,83.7C483.2,82.2 484.3,80.9 485.8,80C487.3,79.1 488.9,78.6 490.6,78.6C494.3,78.5 496.9,80.3 498.7,83.7ZM490.6,107.7L484,121.4L497.3,121.4L490.6,107.7Z" style="fill:white;fill-rule:nonzero;"/>
                    <path d="M587,93.3C588.7,96.8 589.6,100.8 589.6,105.1C589.6,109.4 588.7,113.3 587,116.8C585.3,120.3 583,123.1 580.3,125.2C574.8,129.5 569,131.6 563.1,131.6L550.6,131.6L550.6,142.9C550.6,144.4 550.5,145.6 550.4,146.4C550.3,147.2 550,148.1 549.4,149.1C548.5,150.9 545.9,151.8 541.6,151.8C536.9,151.8 534.2,150.6 533.4,148.1C533,147 532.8,145.2 532.8,142.9L532.8,87.3C532.8,85.8 532.8,84.6 532.9,83.8C533,83 533.3,82.2 533.9,81.2C534.8,79.4 537.4,78.5 541.7,78.5L563.1,78.5C569,78.5 574.7,80.6 580.2,84.9C583,87 585.2,89.8 587,93.3ZM569.1,111.7C571,110.2 572,108 572,105.1C572,102.2 571,100 569.1,98.5C567.2,97 565.2,96.2 563.1,96.2L550.6,96.2L550.6,113.9L563.2,113.9C565.2,113.9 567.1,113.2 569.1,111.7Z" style="fill:white;fill-rule:nonzero;"/>
                    <path d="M613.8,134.1L644.6,134.1C646.1,134.1 647.3,134.1 648,134.3C648.8,134.4 649.7,134.7 650.7,135.3C652.5,136.2 653.4,138.8 653.4,143.1C653.4,147.8 652.2,150.5 649.7,151.3C648.6,151.7 646.8,151.9 644.5,151.9L604.9,151.9C600.2,151.9 597.5,150.6 596.7,148.1C596.3,147 596.1,145.3 596.1,143L596.1,87.3C596.1,83.9 596.7,81.6 598,80.3C599.3,79.1 601.7,78.5 605.2,78.5L644.6,78.5C646.1,78.5 647.3,78.5 648,78.6C648.8,78.7 649.7,79 650.7,79.5C652.5,80.4 653.4,83 653.4,87.3C653.4,92 652.2,94.7 649.7,95.5C648.6,95.9 646.8,96.1 644.5,96.1L613.8,96.1L613.8,106.2L633.6,106.2C635.1,106.2 636.3,106.2 637,106.4C637.8,106.5 638.7,106.8 639.7,107.3C641.5,108.2 642.4,110.8 642.4,115.1C642.4,119.8 641.1,122.5 638.6,123.3C637.5,123.7 635.7,123.9 633.4,123.9L613.8,123.9L613.8,134.1Z" style="fill:white;fill-rule:nonzero;"/>
                    <path d="M664.7,78.4L720.3,78.4C722.4,78.4 724,78.7 725,79.2C726,79.7 726.7,80.5 727,81.6C727.3,82.7 727.5,84.1 727.5,85.8C727.5,87.5 727.3,88.9 727,89.9C726.7,90.9 726.1,91.7 725.3,92.1C724.1,92.7 722.4,93 720.2,93L701.1,93L701.1,143.3C701.1,144.8 701.1,146 700.9,146.7C700.8,147.4 700.5,148.3 700,149.2C699.5,150.2 698.6,150.9 697.3,151.3C696,151.7 694.4,151.9 692.3,151.9C690.2,151.9 688.6,151.7 687.3,151.3C686.1,150.9 685.2,150.2 684.7,149.2C684.2,148.2 683.9,147.4 683.8,146.6C683.7,145.8 683.7,144.7 683.7,143.1L683.7,92.9L664.5,92.9C662.4,92.9 660.8,92.6 659.8,92.1C658.8,91.6 658.1,90.8 657.8,89.8C657.5,88.7 657.3,87.3 657.3,85.6C657.3,83.9 657.5,82.5 657.8,81.5C658.1,80.5 658.7,79.7 659.5,79.4C660.8,78.7 662.5,78.4 664.7,78.4Z" style="fill:white;fill-rule:nonzero;"/>
                </g>
                <g>
                    <path d="M395.6,177.5C395.6,176.9 395.8,176.3 396.3,175.9C396.7,175.4 397.3,175.2 397.9,175.2C398.5,175.2 399.1,175.4 399.5,175.9C400,176.4 400.2,176.9 400.2,177.5C400.2,178.1 400,178.7 399.5,179.1C399,179.5 398.5,179.8 397.9,179.8C397.3,179.8 396.7,179.6 396.3,179.1C395.8,178.7 395.6,178.2 395.6,177.5ZM399,236.5L396.8,236.5L396.8,191.6L399,191.6L399,236.5Z" style="fill:white;fill-rule:nonzero;"/>
                    <path d="M416,202C417.5,198.5 419.6,195.8 422.5,193.7C425.3,191.7 428.5,190.7 432,190.7C436.8,190.7 440.4,192.1 442.7,194.8C445,197.5 446.2,201.6 446.2,207.1L446.2,236.4L444,236.4L444,207C444,202.2 443,198.6 441.1,196.3C439.2,194 436.1,192.8 431.9,192.8C428,192.8 424.7,194.2 421.8,196.9C419,199.7 417,203.2 416.1,207.5L416.1,236.2L413.9,236.2L413.9,191.3L416.1,191.3L416.1,202L416,202Z" style="fill:white;fill-rule:nonzero;"/>
                    <path d="M462.5,202C464,198.5 466.1,195.8 469,193.7C471.8,191.7 475,190.7 478.5,190.7C483.3,190.7 486.9,192.1 489.2,194.8C491.5,197.5 492.7,201.6 492.7,207.1L492.7,236.4L490.5,236.4L490.5,207C490.5,202.2 489.5,198.6 487.6,196.3C485.7,194 482.6,192.8 478.4,192.8C474.5,192.8 471.2,194.2 468.3,196.9C465.5,199.7 463.5,203.2 462.6,207.5L462.6,236.2L460.4,236.2L460.4,191.3L462.6,191.3L462.6,202L462.5,202Z" style="fill:white;fill-rule:nonzero;"/>
                </g>
                <g>
                    <path d="M503.4,213.1C503.4,208.8 504.2,205 505.9,201.5C507.5,198.1 509.9,195.4 512.9,193.5C515.9,191.6 519.3,190.6 523.1,190.6C526.9,190.6 530.2,191.5 533.2,193.4C536.2,195.3 538.5,197.9 540.2,201.3C541.9,204.7 542.7,208.5 542.8,212.8L542.8,214.8C542.8,219.1 542,223 540.4,226.4C538.8,229.8 536.4,232.5 533.4,234.4C530.4,236.3 527,237.3 523.2,237.3C519.4,237.3 516,236.4 513,234.5C510,232.6 507.7,230 506,226.6C504.3,223.2 503.5,219.4 503.5,215.2L503.5,213.1L503.4,213.1ZM505.6,214.9C505.6,218.6 506.3,222.1 507.8,225.2C509.3,228.3 511.3,230.7 514,232.5C516.6,234.2 519.7,235.1 523.1,235.1C528.2,235.1 532.4,233.2 535.6,229.3C538.8,225.4 540.4,220.5 540.4,214.4L540.4,213.1C540.4,209.4 539.7,206 538.2,202.9C536.7,199.8 534.6,197.3 532,195.6C529.4,193.8 526.4,193 523,193C517.9,193 513.7,195 510.5,198.9C507.3,202.8 505.6,207.7 505.6,213.6L505.6,214.9Z" style="fill:white;fill-rule:nonzero;"/>
                    <path d="M565.4,232.9L581.5,191.6L583.9,191.6L566.4,236.5L564.2,236.5L546.8,191.6L549.2,191.6L565.4,232.9Z" style="fill:white;fill-rule:nonzero;"/>
                </g>
                <g>
                    <path d="M621.9,236.5C621.3,234.6 621.1,231.9 621.1,228.3C619.3,231.2 616.9,233.4 613.8,235C610.7,236.6 607.3,237.4 603.4,237.4C599.2,237.4 595.9,236.3 593.4,234C590.9,231.7 589.6,228.8 589.6,225.2C589.6,221.1 591.5,217.8 595.2,215.3C598.9,212.8 603.9,211.6 610,211.5L621.1,211.5L621.1,204.9C621.1,201.1 619.9,198.2 617.6,196.1C615.2,194 611.9,193 607.5,193C603.4,193 600,194.1 597.2,196.2C594.5,198.3 593.1,200.9 593.1,204L590.9,203.9C590.9,200.2 592.5,197.1 595.7,194.6C598.9,192.1 602.8,190.8 607.5,190.8C612.3,190.8 616.2,192 619,194.4C621.8,196.8 623.3,200.2 623.4,204.6L623.4,226C623.4,230.9 623.8,234.3 624.6,236L624.6,236.4L621.9,236.4L621.9,236.5ZM603.4,235C607.6,235 611.2,234.1 614.3,232.2C617.3,230.3 619.6,227.7 621.1,224.3L621.1,213.6L610.7,213.6C604.3,213.6 599.4,214.9 596,217.4C593.2,219.5 591.8,222.1 591.8,225.2C591.8,227.9 592.9,230.3 595.1,232.2C597.3,234.1 600,235 603.4,235Z" style="fill:white;fill-rule:nonzero;"/>
                    <path d="M642.8,179.4L642.8,191.5L653,191.5L653,193.7L642.8,193.7L642.8,225.6C642.8,228.8 643.3,231.1 644.4,232.7C645.4,234.2 647.2,235 649.6,235C650.8,235 652.3,234.9 654,234.6L654.4,236.7C653.5,237 651.9,237.2 649.7,237.2C646.4,237.2 644.1,236.3 642.7,234.5C641.3,232.7 640.6,229.8 640.5,225.9L640.5,193.7L632.2,193.7L632.2,191.5L640.5,191.5L640.5,179.4L642.8,179.4Z" style="fill:white;fill-rule:nonzero;"/>
                    <path d="M664,177.5C664,176.9 664.2,176.3 664.7,175.9C665.1,175.4 665.7,175.2 666.3,175.2C666.9,175.2 667.5,175.4 667.9,175.9C668.4,176.4 668.6,176.9 668.6,177.5C668.6,178.1 668.4,178.7 667.9,179.1C667.4,179.5 666.9,179.8 666.3,179.8C665.7,179.8 665.1,179.6 664.7,179.1C664.2,178.7 664,178.2 664,177.5ZM667.4,236.5L665.2,236.5L665.2,191.6L667.4,191.6L667.4,236.5Z" style="fill:white;fill-rule:nonzero;"/>
                    <path d="M678.8,213.1C678.8,208.8 679.6,205 681.3,201.5C682.9,198.1 685.3,195.4 688.3,193.5C691.3,191.6 694.7,190.6 698.5,190.6C702.3,190.6 705.6,191.5 708.6,193.4C711.6,195.3 713.9,197.9 715.6,201.3C717.3,204.7 718.1,208.5 718.2,212.8L718.2,214.8C718.2,219.1 717.4,223 715.8,226.4C714.2,229.8 711.9,232.5 708.8,234.4C705.8,236.3 702.4,237.3 698.6,237.3C694.8,237.3 691.4,236.4 688.4,234.5C685.4,232.6 683.1,230 681.4,226.6C679.7,223.2 678.9,219.4 678.9,215.2L678.9,213.1L678.8,213.1ZM681,214.9C681,218.6 681.7,222.1 683.2,225.2C684.7,228.3 686.7,230.7 689.4,232.5C692,234.2 695.1,235.1 698.5,235.1C703.6,235.1 707.8,233.2 711,229.3C714.2,225.5 715.8,220.5 715.8,214.4L715.8,213.1C715.8,209.4 715.1,206 713.6,202.9C712.1,199.8 710,197.3 707.4,195.6C704.8,193.8 701.8,193 698.4,193C693.3,193 689.1,195 685.9,198.9C682.7,202.8 681,207.7 681,213.6L681,214.9Z" style="fill:white;fill-rule:nonzero;"/>
                    <path d="M731.2,202C732.7,198.5 734.8,195.8 737.7,193.7C740.5,191.7 743.7,190.7 747.2,190.7C752,190.7 755.6,192.1 757.9,194.8C760.2,197.5 761.4,201.6 761.4,207.1L761.4,236.4L759.2,236.4L759.2,207C759.2,202.2 758.2,198.6 756.3,196.3C754.4,194 751.3,192.8 747.1,192.8C743.2,192.8 739.9,194.2 737,196.9C734.2,199.7 732.2,203.2 731.3,207.5L731.3,236.2L729.1,236.2L729.1,191.3L731.3,191.3L731.3,202L731.2,202Z" style="fill:white;fill-rule:nonzero;"/>
                </g>
                <path d="M342.5,63.6L342.5,255.1" style="fill:none;fill-rule:nonzero;"/>
                <path d="M342,63.6L342,255.1L343,255.1L343,63.6L342,63.6Z" style="fill:white;"/>
            </g>
        </g>
    </g>
</svg>
