<?xml version="1.0" encoding="UTF-8" standalone="no"?>
<!DOCTYPE svg PUBLIC "-//W3C//DTD SVG 1.1//EN" "http://www.w3.org/Graphics/SVG/1.1/DTD/svg11.dtd">
<svg width="100%" height="100%" viewBox="0 0 709 229" version="1.1" xmlns="http://www.w3.org/2000/svg" xmlns:xlink="http://www.w3.org/1999/xlink" xml:space="preserve" xmlns:serif="http://www.serif.com/" style="fill-rule:evenodd;clip-rule:evenodd;stroke-linejoin:round;stroke-miterlimit:2;">
    <g id="Vrstva_2">
        <g>
            <g id="Vrstva_1-2">
                <g>
                    <g transform="matrix(1,0,0,1,-65.1392,-13.1498)">
                        <path d="M442.125,47.678C446.051,49.604 448.018,51.738 448.025,54.078C447.843,55.76 447.334,57.391 446.525,58.878L418.925,114.877C418.172,116.357 417.009,117.59 415.575,118.427C414.179,119.297 412.57,119.764 410.925,119.777L409.925,119.777C408.248,119.774 406.603,119.307 405.175,118.427C403.739,117.593 402.575,116.36 401.825,114.877L374.226,58.878C373.416,57.391 372.907,55.76 372.726,54.078C372.726,51.738 374.692,49.604 378.625,47.678C380.164,46.749 381.888,46.168 383.675,45.978C384.577,45.933 385.478,46.069 386.325,46.378C386.997,46.7 387.58,47.18 388.025,47.778C388.649,48.613 389.201,49.5 389.675,50.428C390.175,51.388 391.459,54.154 393.525,58.728C395.592,63.301 397.809,68.151 400.175,73.278L406.875,87.827C408.975,92.387 410.158,94.937 410.425,95.477L430.425,51.678C430.84,50.655 431.308,49.653 431.825,48.678C432.71,47.065 434.386,46.037 436.225,45.978C438.298,46.069 440.321,46.651 442.125,47.678Z" style="fill:white;fill-rule:nonzero;"/>
                    </g>
                    <g transform="matrix(1,0,0,1,-65.1392,-13.1498)">
                        <path d="M480.824,51.778L507.824,107.577C508.74,109.14 509.319,110.877 509.524,112.677C509.524,115.077 507.591,117.244 503.724,119.177C502.083,120.121 500.259,120.701 498.374,120.877C497.239,120.925 496.118,120.61 495.174,119.977C494.439,119.487 493.824,118.837 493.374,118.077C493.004,117.407 492.484,116.407 491.824,115.077L486.624,104.277L458.924,104.277L453.725,115.077C453.055,116.407 452.535,117.377 452.175,117.977C451.689,118.695 451.079,119.321 450.375,119.827C449.448,120.506 448.322,120.858 447.175,120.827C445.29,120.652 443.465,120.072 441.825,119.127C437.951,117.26 436.018,115.127 436.025,112.727C436.226,110.926 436.805,109.188 437.725,107.627L464.724,51.728C465.453,50.192 466.619,48.905 468.074,48.028C469.49,47.115 471.14,46.629 472.824,46.628C476.424,46.595 479.091,48.311 480.824,51.778ZM472.724,75.778L466.124,89.477L479.424,89.477L472.724,75.778Z" style="fill:white;fill-rule:nonzero;"/>
                    </g>
                    <g transform="matrix(1,0,0,1,-65.1392,-13.1498)">
                        <path d="M569.123,61.378C570.889,65.057 571.779,69.096 571.723,73.178C571.781,77.243 570.891,81.266 569.123,84.927C567.571,88.195 565.277,91.054 562.423,93.277C556.883,97.537 551.15,99.671 545.223,99.677L532.724,99.677L532.724,111.007C532.742,112.159 532.692,113.311 532.574,114.457C532.398,115.392 532.059,116.289 531.574,117.107C530.634,118.907 528.034,119.807 523.774,119.807C519.104,119.807 516.374,118.567 515.574,116.107C515.103,114.416 514.9,112.661 514.974,110.907L514.974,55.378C514.955,54.226 515.005,53.074 515.124,51.928C515.293,50.991 515.632,50.093 516.124,49.278C517.05,47.478 519.65,46.578 523.924,46.578L545.323,46.578C551.183,46.578 556.883,48.711 562.423,52.978C565.288,55.209 567.584,58.088 569.123,61.378ZM551.223,79.777C553.211,78.187 554.296,75.717 554.123,73.178C554.292,70.624 553.209,68.142 551.223,66.528C549.536,65.121 547.42,64.327 545.223,64.278L532.724,64.278L532.724,82.007L545.323,82.007C547.482,81.938 549.558,81.154 551.223,79.777Z" style="fill:white;fill-rule:nonzero;"/>
                    </g>
                    <g transform="matrix(1,0,0,1,-65.1392,-13.1498)">
                        <path d="M595.923,102.177L626.722,102.177C627.874,102.159 629.026,102.209 630.172,102.327C631.109,102.498 632.006,102.837 632.822,103.327C634.622,104.261 635.522,106.86 635.522,111.127C635.522,115.787 634.282,118.527 631.822,119.327C630.131,119.798 628.377,120.001 626.622,119.927L586.993,119.927C582.326,119.927 579.593,118.66 578.793,116.127C578.315,114.471 578.113,112.748 578.193,111.027L578.193,55.378C578.193,51.978 578.826,49.661 580.093,48.428C581.353,47.188 583.753,46.578 587.293,46.578L626.692,46.578C627.844,46.56 628.996,46.61 630.142,46.728C631.079,46.899 631.976,47.238 632.792,47.728C634.592,48.655 635.492,51.254 635.492,55.528C635.492,60.188 634.252,62.928 631.792,63.728C630.101,64.199 628.347,64.401 626.592,64.328L595.893,64.328L595.893,74.428L615.693,74.428C616.845,74.409 617.997,74.459 619.143,74.578C620.079,74.749 620.977,75.087 621.793,75.578C623.593,76.511 624.493,79.111 624.493,83.377C624.493,88.037 623.223,90.777 620.693,91.577C619.001,92.048 617.247,92.251 615.493,92.177L595.893,92.177L595.923,102.177Z" style="fill:white;fill-rule:nonzero;"/>
                    </g>
                    <g transform="matrix(1,0,0,1,-65.1392,-13.1498)">
                        <path d="M646.822,46.478L702.422,46.478C704.021,46.383 705.622,46.639 707.112,47.228C708.082,47.69 708.811,48.546 709.111,49.578C709.487,50.945 709.656,52.361 709.611,53.778C709.657,55.178 709.489,56.578 709.111,57.928C708.872,58.848 708.259,59.627 707.422,60.078C705.811,60.757 704.067,61.064 702.322,60.978L683.222,60.978L683.222,111.277C683.241,112.412 683.191,113.548 683.072,114.677C682.916,115.571 682.611,116.433 682.172,117.227C681.594,118.223 680.638,118.944 679.522,119.227C677.894,119.673 676.209,119.875 674.522,119.827C672.851,119.879 671.182,119.677 669.572,119.227C668.472,118.937 667.534,118.216 666.972,117.227C666.527,116.418 666.222,115.538 666.072,114.627C665.954,113.481 665.904,112.329 665.922,111.177L665.922,61.008L646.722,61.008C645.12,61.104 643.515,60.848 642.022,60.258C641.054,59.793 640.326,58.938 640.022,57.908C639.648,56.54 639.479,55.125 639.522,53.708C639.475,52.307 639.644,50.907 640.022,49.558C640.262,48.635 640.879,47.854 641.722,47.408C643.33,46.718 645.074,46.4 646.822,46.478Z" style="fill:white;fill-rule:nonzero;"/>
                    </g>
                </g>
                <path d="M690.532,187.856L690.822,187.026L706.342,146.437L708.851,146.437L688.742,199.156L687.742,201.646C685.582,206.879 682.012,209.493 677.032,209.486C675.905,209.565 674.775,209.408 673.712,209.026L673.712,206.876C674.69,207.135 675.7,207.26 676.712,207.246C678.843,207.336 680.932,206.622 682.562,205.246C684.415,203.375 685.788,201.083 686.562,198.566L689.292,191.156L671.412,146.497L673.852,146.497L690.532,187.856ZM628.062,168.436C628.062,161.276 629.572,155.683 632.592,151.657C635.467,147.716 640.129,145.462 645.002,145.657C648.129,145.601 651.213,146.396 653.922,147.957C656.602,149.576 658.774,151.915 660.192,154.707L660.192,146.487L662.472,146.487L662.472,190.606C662.472,196.526 660.952,201.153 657.912,204.486C654.872,207.819 650.736,209.486 645.502,209.486C642.621,209.504 639.778,208.818 637.222,207.486C634.689,206.133 632.507,204.204 630.852,201.856L632.432,200.356C633.991,202.406 635.938,204.129 638.162,205.426C640.401,206.639 642.917,207.245 645.462,207.186C650.082,207.186 653.679,205.783 656.252,202.976C658.832,200.176 660.152,196.216 660.252,191.116L660.252,184.256C658.742,186.759 656.563,188.792 653.962,190.126C651.174,191.533 648.085,192.24 644.962,192.186C640.074,192.343 635.427,190.01 632.632,185.996C629.612,181.876 628.102,176.21 628.102,168.996L628.062,168.436ZM580.003,168.026C579.942,164.036 580.786,160.083 582.473,156.467C583.997,153.189 586.426,150.413 589.473,148.467C592.519,146.544 596.061,145.55 599.663,145.607C606.961,145.464 613.69,149.654 616.783,156.267C618.494,159.857 619.366,163.789 619.333,167.766L619.333,169.766C619.391,173.764 618.543,177.723 616.853,181.346C615.336,184.629 612.905,187.407 609.853,189.346C606.806,191.269 603.265,192.267 599.663,192.216C592.334,192.342 585.585,188.127 582.483,181.486C580.78,177.915 579.911,174.003 579.943,170.046L580.003,168.026ZM515.714,168.026C515.652,164.036 516.497,160.083 518.184,156.467C519.708,153.189 522.137,150.413 525.184,148.467C528.23,146.544 531.772,145.55 535.374,145.607C542.672,145.464 549.401,149.654 552.493,156.267C554.204,159.857 555.077,163.789 555.043,167.766L555.043,169.766C555.112,173.762 554.274,177.721 552.593,181.346C551.076,184.629 548.646,187.407 545.593,189.346C542.547,191.269 539.006,192.267 535.404,192.216C528.079,192.325 521.343,188.099 518.254,181.456C516.551,177.885 515.682,173.973 515.714,170.016L515.714,168.026ZM318.246,134.327L318.246,146.447L328.456,146.447L328.456,148.687L318.246,148.687L318.246,180.596C318.246,183.776 318.766,186.136 319.796,187.656C320.826,189.176 322.576,189.936 325.006,189.936C326.493,189.916 327.976,189.793 329.446,189.566L329.826,191.686C328.298,192.092 326.716,192.261 325.136,192.186C321.869,192.186 319.536,191.276 318.136,189.456C316.736,187.636 316.013,184.77 315.966,180.856L315.966,148.687L307.656,148.687L307.656,146.447L315.966,146.447L315.966,134.327L318.246,134.327ZM398.185,189.936C401.813,190.077 405.377,188.933 408.245,186.706C410.93,184.481 412.516,181.193 412.585,177.706L414.855,177.706C414.784,181.756 412.958,185.583 409.855,188.186C406.598,190.887 402.465,192.31 398.235,192.186C393.06,192.385 388.086,190.116 384.845,186.076C381.512,182.016 379.845,176.496 379.845,169.516L379.845,168.026C379.845,161.22 381.512,155.783 384.845,151.717C388.058,147.693 393,145.426 398.145,145.617C402.447,145.471 406.643,146.991 409.855,149.857C413.025,152.8 414.836,156.931 414.855,161.256L412.615,161.256C412.569,157.572 411.031,154.059 408.355,151.527C405.547,149.011 401.862,147.693 398.095,147.857C393.089,147.857 389.169,149.66 386.335,153.267C383.502,156.873 382.082,161.89 382.075,168.316L382.075,169.766C382.075,176.046 383.509,180.98 386.375,184.566C389.242,188.153 393.179,189.943 398.185,189.936ZM356.266,192.186C352.718,192.211 349.239,191.192 346.266,189.256C343.213,187.285 340.755,184.519 339.156,181.256C337.403,177.716 336.522,173.807 336.586,169.856L336.586,167.986C336.54,164.044 337.392,160.142 339.076,156.577C340.58,153.304 342.949,150.503 345.926,148.477C348.731,146.575 352.047,145.564 355.436,145.577C360.12,145.437 364.628,147.401 367.716,150.927C370.896,154.493 372.486,159.183 372.486,164.996L372.486,167.366L338.856,167.366L338.856,169.856C338.825,173.367 339.616,176.836 341.166,179.986C342.578,182.955 344.774,185.483 347.516,187.296C350.113,189.035 353.171,189.958 356.296,189.946C358.938,190.021 361.565,189.509 363.986,188.446C366.203,187.367 368.132,185.776 369.616,183.806L371.196,184.926C367.829,189.759 362.852,192.179 356.266,192.186ZM428.315,156.907C429.639,153.593 431.885,150.726 434.785,148.647C437.54,146.67 440.854,145.619 444.245,145.647C449.065,145.647 452.641,147.01 454.975,149.737C457.308,152.463 458.491,156.577 458.524,162.076L458.524,191.376L456.285,191.376L456.285,161.996C456.285,157.19 455.301,153.63 453.335,151.317C451.368,149.003 448.298,147.85 444.125,147.857C440.355,147.819 436.725,149.305 434.065,151.977C431.141,154.878 429.14,158.581 428.315,162.616L428.315,191.346L426.075,191.346L426.075,127.597L428.315,127.597L428.315,156.907ZM474.854,156.907C476.186,153.594 478.434,150.729 481.334,148.647C484.089,146.67 487.403,145.619 490.794,145.647C495.607,145.647 499.184,147.01 501.524,149.737C503.864,152.463 505.047,156.577 505.074,162.076L505.074,191.376L502.854,191.376L502.854,161.996C502.854,157.19 501.854,153.63 499.854,151.317C497.854,149.003 494.787,147.85 490.654,147.857C486.881,147.816 483.247,149.303 480.584,151.977C477.673,154.885 475.68,158.585 474.854,162.616L474.854,191.346L472.614,191.346L472.614,146.447L474.854,146.447L474.854,156.907ZM568.673,191.346L566.433,191.346L566.433,127.597L568.673,127.597L568.673,191.346ZM630.352,169.316C630.352,175.736 631.626,180.776 634.172,184.436C636.531,188.008 640.595,190.097 644.872,189.936C648.285,190.045 651.654,189.129 654.542,187.306C657.204,185.542 659.195,182.93 660.192,179.896L660.192,159.517C657.752,151.743 652.676,147.857 644.962,147.857C640.678,147.687 636.599,149.748 634.192,153.297C631.632,156.917 630.352,162.256 630.352,169.316ZM517.954,169.766C517.911,173.317 518.674,176.832 520.184,180.046C521.525,183.001 523.666,185.523 526.364,187.326C529.058,189.082 532.218,189.992 535.434,189.936C540.271,190.067 544.903,187.931 547.943,184.166C551.163,180.326 552.777,175.376 552.783,169.316L552.783,168.026C552.81,164.51 552.041,161.033 550.533,157.857C549.179,154.89 547.034,152.354 544.333,150.527C541.666,148.765 538.529,147.849 535.334,147.897C530.499,147.785 525.88,149.935 522.854,153.707C519.614,157.607 517.994,162.516 517.994,168.436L517.954,169.766ZM582.243,169.766C582.201,173.317 582.963,176.832 584.473,180.046C585.815,183.001 587.955,185.523 590.653,187.326C593.347,189.082 596.507,189.992 599.723,189.936C604.561,190.067 609.192,187.931 612.233,184.166C615.453,180.326 617.066,175.376 617.073,169.316L617.073,168.026C617.109,164.513 616.35,161.036 614.853,157.857C613.499,154.89 611.353,152.354 608.653,150.527C605.986,148.765 602.849,147.849 599.653,147.897C594.791,147.775 590.144,149.943 587.113,153.747C583.873,157.647 582.253,162.556 582.253,168.476L582.243,169.766ZM355.436,147.857C351.197,147.795 347.133,149.577 344.306,152.737C341.184,156.165 339.299,160.542 338.956,165.166L370.246,165.166L370.246,164.626C370.272,161.685 369.611,158.778 368.316,156.137C367.149,153.648 365.31,151.535 363.006,150.037C360.75,148.586 358.118,147.828 355.436,147.857Z" style="fill:white;fill-rule:nonzero;"/>
                <path d="M259.557,18.478L259.557,209.966" style="fill:none;fill-rule:nonzero;"/>
                <path d="M259.057,18.478L259.057,209.966L260.057,209.966L260.057,18.478L259.057,18.478Z" style="fill:white;"/>
            </g>
            <g id="Vrstva_3">
                <g transform="matrix(1,0,0,1,-65.1392,-13.1498)">
                    <path d="M169.348,189.196C169.345,189.196 169.341,189.196 169.338,189.196C135.162,189.196 107.039,161.073 107.039,126.897C107.039,92.721 135.162,64.598 169.338,64.598C203.514,64.598 231.637,92.721 231.637,126.897C231.637,126.9 231.637,126.904 231.637,126.907C231.637,161.078 203.519,189.196 169.348,189.196ZM271.557,158.697C266.557,155.837 264.057,145.947 265.957,136.697L265.957,127.807C265.957,118.487 265.877,118.117 265.877,118.117C263.827,108.677 266.327,98.567 271.407,95.657C276.487,92.747 276.727,83.517 271.927,75.128L266.737,66.058C261.957,57.658 253.817,53.188 248.657,56.118C243.497,59.048 233.107,56.518 225.527,50.518L209.187,41.128C200.268,37.458 192.998,29.668 192.998,23.798C192.998,17.928 184.998,13.158 175.378,13.158L165.208,13.158C155.548,13.158 147.638,17.868 147.638,23.638C147.638,29.408 140.288,37.048 131.318,40.638L114.229,50.008C106.669,56.008 96.489,58.678 91.619,55.898C86.749,53.118 78.809,57.678 73.999,66.078L68.819,75.138C63.999,83.527 63.999,92.627 68.759,95.347C73.519,98.067 75.709,108.017 73.599,117.447C73.599,117.447 73.429,118.247 73.429,127.817L73.429,137.007C75.429,146.457 73.259,156.367 68.579,159.007C63.899,161.646 64.009,170.716 68.799,179.106L73.999,188.196C78.799,196.586 86.529,201.276 91.179,198.636C95.829,195.996 105.809,198.746 113.359,204.796L131.358,214.966C140.358,218.586 147.658,226.046 147.658,231.566C147.658,237.086 155.568,241.566 165.228,241.566L175.398,241.566C185.068,241.566 192.968,236.986 192.968,231.376C192.968,225.766 200.268,218.156 209.197,214.436L226.427,204.246C233.997,198.246 244.187,195.586 249.107,198.366C254.027,201.146 261.937,196.586 266.737,188.186L271.927,179.116C276.697,170.736 276.547,161.536 271.557,158.697Z" style="fill:white;fill-rule:nonzero;"/>
                </g>
                <g transform="matrix(1,0,0,1,-65.1392,-13.1498)">
                    <path d="M196.248,84.077C196.248,84.077 83.559,124.247 141.828,164.306L181.828,106.667L147.188,167.716C212.997,206.236 196.248,84.077 196.248,84.077Z" style="fill:white;fill-rule:nonzero;"/>
                </g>
            </g>
        </g>
    </g>
</svg>
